<?xml version="1.0" encoding="utf-8"?>
<svg xmlns="http://www.w3.org/2000/svg" xmlns:xlink="http://www.w3.org/1999/xlink">

	<symbol viewBox="0 0 16 16" id="conversation">
		<g clip-rule="evenodd" fill-rule="evenodd">
			<path d="m13.6 0h-11.2c-1.3 0-2.4 1.1-2.4 2.4v7.4c0 1.3 1.1 2.4 2.4 2.4h.1l1.5 3.8 1.5-3.8h8.1c1.3 0 2.4-1.1 2.4-2.4v-7.4c0-1.3-1.1-2.4-2.4-2.4z" />
			<g fill="#fff">
				<path d="m4.2 5.2c-.5 0-.9.4-.9.9s.4.9.9.9.9-.4.9-.9c.1-.5-.3-.9-.9-.9z" />
				<path d="m8 5.2c-.5 0-.9.4-.9.9s.4.9.9.9.9-.4.9-.9-.4-.9-.9-.9z" />
				<path d="m11.8 5.2c-.5 0-.9.4-.9.9s.4.9.9.9.9-.4.9-.9-.4-.9-.9-.9z" />
			</g>
		</g>
	</symbol>

	<symbol viewBox="0 0 16 16" id="spinner">
		<path d="M4.368 6.79c.466-1.49 1.862-2.514 3.538-2.514s2.98 1.024 3.538 2.514h1.955c-.559-2.514-2.793-4.376-5.401-4.376s-4.842 1.862-5.401 4.376h1.769zM11.166 9.862c-.652 1.117-1.862 1.862-3.259 1.862s-2.607-.745-3.259-1.862h-2.049c.745 2.142 2.793 3.725 5.308 3.725s4.47-1.583 5.308-3.725h-2.049z" />
	</symbol>

	<symbol viewBox="0 0 16 16" id="navigation-close">
		<path d="m9.5 8 6.5-6.5-1.5-1.5-6.5 6.5-6.5-6.5-1.5 1.5 6.5 6.5-6.5 6.5 1.5 1.5 6.5-6.5 6.5 6.5 1.5-1.5z" />
	</symbol>

	<symbol viewBox="0 0 16 16" id="navigation-collections">
		<path d="m4 0v2h10v10h2v-12z" />
		<path d="m0 4h12v12h-12z" />
	</symbol>

	<symbol viewBox="0 0 16 16" id="thread">
		<path d="m16 2v6h-2l-1.2 2.3-1.2-2.3h-5.6v-6z" />
		<path d="m5 9v-4h-5v6h2l1.2 2.3 1.2-2.3h5.6v-2z" />
	</symbol>

	<symbol viewBox="0 0 16 16" id="navigation-correspondents">
		<path d="m9.8 11.3c-.9-.1-2.8-.6-2.8-1.3v-.8s1.4-.5 1.4-4c-.2-2-1.5-3.2-2.9-3.2s-2.7 1.2-2.7 3.3c0 3.5 1.4 4 1.4 4v.7c-.1.7-1.9 1.2-2.8 1.3-1 .2-1.4 2.7-1.4 2.7h11s-.4-2.5-1.2-2.7z" />
		<path d="m14.9 11.8c-.8-.1-2.4-.5-2.5-1.2v-.6s1-.4 1-2.6c-.1-1.8-1-2.4-2.2-2.4-1.4 0-2.2.6-2.2 2.4 0 2.1 1 2.6 1 2.6v.4c1.1.5 1.5 2.3 1.8 3.6h4.2c-.1-.6-.4-2.1-1.1-2.2z" />
	</symbol>

	<symbol viewBox="0 0 16 16" id="navigation-favorite">
		<path d="m2.1 0v16l5.9-4 5.9 4v-16z" />
	</symbol>

	<symbol viewBox="0 0 16 16" id="navigation-favorited">
		<path d="m2.1 0v16l5.9-4 5.9 4v-16zm5.9 9-2.3-2.9 1-.7 1.4 1.6 2.7-3 .9.8z" />
	</symbol>

	<symbol viewBox="0 0 16 16" id="navigation-hamburger">
		<path d="m0 3.2h16v1.6h-16z" />
		<path d="m0 7.2h16v1.6h-16z" />
		<path d="m0 11.2h16v1.6h-16z" />
	</symbol>

	<symbol viewBox="0 0 16 16" id="navigation-podcasts">
		<path d="m7.6 0v9.4c-.5-.3-1.1-.5-1.8-.5-2 0-3.6 1.6-3.6 3.6s1.6 3.5 3.6 3.5 3.6-1.6 3.6-3.6v-8.8h5.4v-3.6z" />
	</symbol>

	<symbol viewBox="0 0 16 16" id="navigation-reminder">
		<path d="m14.1 3.3-2.8-1.9 1-1.4 2.8 1.9zm-13.2-1.4 2.9-1.9.9 1.4-2.8 1.9zm8 8.2-2.4 2.3-1.2-1.2 1.9-1.9v-4.2h1.7zm-.9-7.5c-3.8 0-6.9 3-6.9 6.7s3.1 6.7 6.9 6.7 6.9-3 6.9-6.7-3.1-6.7-6.9-6.7z" />
	</symbol>

	<symbol viewBox="0 0 16 16" id="navigation-search">
		<path d="m12.7 11.2c.8-1.2 1.3-2.6 1.3-4.1 0-3.8-3.1-7-7-7s-7 3.1-7 7c0 3.8 3.1 7 7 7 1.6 0 3-.5 4.1-1.3l3.3 3.3 1.5-1.5zm-5.7.7c-2.7 0-4.9-2.2-4.9-4.8 0-2.7 2.2-4.8 4.9-4.8s4.9 2.2 4.9 4.8-2.2 4.8-4.9 4.8z" />
	</symbol>

	<symbol viewBox="0 0 16 16" id="navigation-share">
		<path d="m16 8-8-4.6v2.9c-1.7 0-7.3 1.1-8 6.4 3.7-3.3 7.1-2.9 8-2.9v2.9z" />
	</symbol>

	<symbol viewBox="0 0 16 16" id="navigation-stories">
		<path d="m0 .6h16v3.7h-16z" />
		<path d="m0 6.8h16v1.2h-16z" />
		<path d="m0 10.5h16v1.2h-16z" />
		<path d="m0 14.2h9.8v1.2h-9.8z" />
	</symbol>

	<symbol viewBox="0 0 16 16" id="navigation-themes">
		<path d="m0 0h16v16z" />
	</symbol>

	<symbol viewBox="0 0 16 16" id="navigation-videos">
		<path d="m6.6 10.4 3.8-2.4-3.8-2.4z" />
		<path d="m8 0c-4.4 0-8 3.6-8 8s3.6 8 8 8 8-3.6 8-8-3.6-8-8-8zm0 14.1c-3.4 0-6.1-2.7-6.1-6.1s2.7-6.1 6.1-6.1 6.1 2.7 6.1 6.1-2.7 6.1-6.1 6.1z" />
	</symbol>

	<symbol viewBox="0 0 16 16" id="arrow-down">
		<path d="M8 11.043l4.058-4.565-1.42-1.522L8 7.898 5.362 4.956l-1.42 1.522z" />
	</symbol>
	<symbol viewBox="0 0 1024 1024" id="arrow-left">
		<path d="M317.248 512l292.16-259.712 97.408 90.88L518.528 512l188.288 168.832-97.408 90.88z" />
	</symbol>
	<symbol viewBox="0 0 16 16" id="arrow-right">
		<path d="M11.043 8L6.478 3.942l-1.522 1.42L7.898 8l-2.942 2.638 1.522 1.42z" />
	</symbol>
	<symbol viewBox="0 0 16 16" id="arrow-up">
		<path d="M8 4.957L3.942 9.522l1.42 1.522L8 8.102l2.638 2.942 1.42-1.522z" />
	</symbol>
	<symbol viewBox="0 0 16 16" id="arrow2-left">
		<path d="M10.277 2.974L5.722 7.136h8.167v1.728H5.722l4.555 4.162-1.335 1.257L2.11 8l6.832-6.283z" />
	</symbol>
	<symbol viewBox="0 0 16 16" id="arrow2-right">
		<path d="M5.723 2.974l4.555 4.162H2.111v1.728h8.167l-4.555 4.162 1.335 1.257L13.89 8 7.058 1.717z" />
	</symbol>
	<symbol viewBox="0 0 16 16" id="check">
		<path d="M6.533 13.239l-4.82-6.077L3.704 5.59l2.934 3.667 5.763-6.497 1.886 1.677-7.754 8.802z" />
	</symbol>
	<symbol viewBox="0 0 16 16" id="chevron-down">
		<path d="M8 12.043l7.413-8.087H.587z" />
	</symbol>
	<symbol viewBox="0 0 16 16" id="close">
		<path d="M13.239 4.542l-1.781-1.781L8 6.219 4.542 2.761 2.761 4.542 6.219 8l-3.458 3.458 1.781 1.781L8 9.781l3.458 3.458 1.781-1.781L9.781 8z" />
	</symbol>
	<symbol viewBox="-4976.5 5326 46 46" id="close-light">
		<path d="M-4948.5 5343.8l-.7-.8-4.8 5.2-4.8-5.2-.7.8 4.8 5.2-4.8 5.2.7.8 4.8-5.2 4.8 5.2.7-.8-4.8-5.2z" />
	</symbol>
	<symbol viewBox="0 0 16 16" id="comments">
		<path d="M1.484 1.891v8.959h4.887l4.072 3.258V10.85h4.072V1.891H1.483z" />
	</symbol>
	<symbol viewBox="0 0 16 16" id="preference-daymode">
		<path d="M8.907 4.72c-1.814-.488-3.629.558-4.117 2.373s.558 3.629 2.373 4.117a3.33 3.33 0 0 0 4.117-2.373c.488-1.745-.628-3.629-2.373-4.117zm1.326-3.489l-.698-.209-.558 2.163.698.209.558-2.163zM5.767 14.769l.698.209.558-2.163-.698-.209-.558 2.163zm6.839-5.164l2.163.558.209-.698-2.163-.558-.209.698zm-9.212-3.21l-2.163-.558-.209.698 2.163.558.209-.698zm9.909-3.14l-.558-.558-1.605 1.605.558.558 1.605-1.605zm-10.606 9.49l.558.558 1.605-1.605-.558-.558-1.605 1.605zm8.513-1.047l1.605 1.605.558-.558-1.605-1.605-.558.558zM4.86 4.302L3.255 2.697l-.558.558L4.302 4.86l.558-.558zm7.955 2.791l2.163-.558-.209-.698-2.163.558.209.698zm-9.63 1.814l-2.163.558.209.698 2.163-.558-.209-.698zm5.722 3.908l.558 2.163.698-.209-.558-2.163-.698.209zm-1.814-9.63l-.558-2.163-.698.209.558 2.163.698-.209z" />
	</symbol>
	<symbol viewBox="0 0 1024 1024" id="download">
		<path d="M48.002 790.397h928v185.601h-928V790.397zM883.197 47.998L512 326.399 140.803 47.998l-92.8 185.601 463.998 371.197 463.998-371.197z" />
	</symbol>
	<symbol viewBox="0 0 16 16" id="edit">
		<path d="M13.505 8.847L13.599 8s0-.565-.094-.847l-1.317-.282-.376-1.035.753-1.129c-.376-.471-.753-.941-1.223-1.223l-1.129.753c-.282-.188-.659-.282-1.035-.376l-.282-1.317c-.282 0-.565-.094-.941-.094-.282 0-.565 0-.847.094l-.282 1.317-1.035.376-1.129-.753c-.471.376-.941.753-1.223 1.223l.753 1.129c-.188.282-.282.659-.376 1.035l-1.317.282L2.405 8s0 .565.094.847l1.317.282.376 1.035-.753 1.129c.376.471.753.941 1.223 1.223l1.129-.753c.282.188.659.282 1.035.376l.282 1.317.847.094s.565 0 .941-.094l.282-1.317 1.035-.376 1.129.753c.471-.376.941-.753 1.223-1.223l-.753-1.129c.188-.282.282-.659.376-1.035l1.317-.282zM7.859 9.882c-1.035 0-1.882-.847-1.882-1.882s.847-1.882 1.882-1.882S9.741 6.965 9.741 8s-.753 1.882-1.882 1.882z" />
	</symbol>
	<symbol viewBox="0 0 16 16" id="email">
		<path d="M1 5v8.75h14V5H1zm12.17 7.485L9.938 9.57l-1.992 1.604L5.954 9.57l-3.23 2.916-.377-.34 3.177-2.868L2.347 6.7l.377-.34 5.223 4.229 5.222-4.23.378.34-3.178 2.578 3.178 2.868-.378.34z" />
	</symbol>
	<symbol viewBox="0 0 1024 1024" id="email-2">
		<path d="M196.468 720.932L392.61 524.79 512 635.652 631.39 524.79l196.142 196.142 21.318-21.318-196.142-196.142L844.586 328.65l-21.318-25.584-315.53 285.684-315.53-285.684-21.318 25.584 191.878 174.822-196.142 196.142 29.848 21.318zM21.648 149.564v724.87h980.706v-724.87H21.648zm895.426 639.59h-810.15V234.842h810.15v554.312z" />
	</symbol>
	<symbol viewBox="0 0 16 16" id="email_old">
		<path d="M0 2.462v11.077h16V2.462H0zm13.908 9.476l-3.692-3.692-2.277 2.031-2.277-2.031-3.692 3.692-.431-.431L5.17 7.876 1.539 4.614l.431-.431 5.969 5.354 5.969-5.354.431.431-3.631 3.262 3.631 3.631-.431.431z" />
	</symbol>
	<symbol viewBox="0 0 441 222" id="eye">
		<path d="M220.5 43.7c64.5 0 123.4 39.2 157.7 67.6C343.9 139.8 285 179 220.5 179c-64.5 0-123.4-39.2-157.7-67.6C97.1 83 156 43.7 220.5 43.7zm0-43C98.7.7 0 111.4 0 111.4S98.7 222 220.5 222L441 111.4S342.3.7 220.5.7zm0 191.3c-43.907 0-79.5-35.593-79.5-79.5S176.593 33 220.5 33 300 68.593 300 112.5 264.407 192 220.5 192zM193 105.5c11.874 0 21.5-9.626 21.5-21.5s-9.626-21.5-21.5-21.5-21.5 9.626-21.5 21.5 9.626 21.5 21.5 21.5z" />
	</symbol>
	<symbol viewBox="0 0 16 16" id="facebook">
		<path d="M9.375.326h2.494v2.622c-.959.064-2.238-.256-2.494.512v1.918h2.366s-.128 1.727-.32 2.558h-2.11v7.738H6.177V7.936c-.703 0-1.407.064-2.046 0V5.378h2.046c.064-.895-.064-1.727 0-2.43C6.369 1.221 7.52.326 9.374.326z" />
	</symbol>
	<symbol viewBox="0 0 16 16" id="flag">
		<path d="M12.712 2.413H3.289v11.174h1.862V8h7.561L9.919 5.207l2.793-2.793z" />
	</symbol>
	<symbol viewBox="-297 389 16 16" id="follow-off">
		<path d="M-295.5 390.9v9h4.9l4.1 3.3v-3.3h4.1v-9h-13.1z" />
		<path fill="#fff" d="M-285.7 394.5h-2.4v-2.3h-1.8v2.3h-2.4v1.9h2.4v2.4h1.8v-2.4h2.4z" />
	</symbol>
	<symbol viewBox="-297 389 16 16" id="follow-on">
		<path d="M-295.5 390.9v9h4.9l4.1 3.3v-3.3h4.1v-9h-13.1z" />
		<path fill="#fff" d="M-289.9 398.4l-2.9-3.6 1.2-.9 1.7 2.2 3.4-3.9 1.1 1c.1 0-4.5 5.2-4.5 5.2z" />
	</symbol>
	<symbol viewBox="0 0 16 16" id="heart">
		<path d="m8 2.748-.717-.737C5.6.281 2.514.878 1.4 3.053c-.523 1.023-.641 2.5.314 4.385.92 1.815 2.834 3.989 6.286 6.357 3.452-2.368 5.365-4.542 6.286-6.357.955-1.886.838-3.362.314-4.385C13.486.878 10.4.28 8.717 2.01L8 2.748zM8 15C-7.333 4.868 3.279-3.04 7.824 1.143c.06.055.119.112.176.171a3.12 3.12 0 0 1 .176-.17C12.72-3.042 23.333 4.867 8 15z" />
	</symbol>
	<symbol viewBox="0 0 16 16" id="heart-fill">
		<path fill-rule="evenodd" d="M8 1.314C12.438-3.248 23.534 4.735 8 15-7.534 4.736 3.562-3.248 8 1.314z" />
	</symbol>
	<symbol viewBox="0 0 16 16" id="preference-fontfamily-sansserif">
		<path d="M3.678 10.18c0 1.33.369 2.438 1.108 3.251s1.847 1.182 3.177 1.182c1.182 0 2.143-.296 3.029-.887s1.33-1.626 1.33-2.956c0-1.108-.369-1.995-1.034-2.586-.369-.369-.961-.591-1.699-.813l-1.552-.369c-1.034-.296-1.699-.517-1.995-.665-.443-.296-.665-.739-.665-1.33s.222-1.034.591-1.478c.369-.443.961-.665 1.847-.665 1.034 0 1.773.296 2.217.961.222.369.369.887.443 1.552h1.404c0-1.404-.369-2.438-1.182-3.029-.813-.665-1.773-.961-2.882-.961-1.256 0-2.217.369-2.882 1.108S3.899 4.121 3.899 5.303c0 1.034.369 1.847 1.034 2.364.369.296 1.108.591 1.995.813l1.478.369c.813.222 1.404.443 1.773.739s.517.813.517 1.478c0 .887-.443 1.552-1.33 1.921-.443.148-.961.296-1.478.296-1.256 0-2.069-.443-2.586-1.256-.222-.443-.369-1.034-.443-1.699H3.677z" />
	</symbol>
	<symbol viewBox="0 0 16 16" id="preference-fontfamily-serif">
		<path d="M10.578 7.779c-.295-.221-.663-.368-1.031-.516s-.81-.368-1.179-.516l-1.252-.516c-.516-.221-.81-.516-1.105-.884s-.368-.81-.368-1.326.221-.958.589-1.326.884-.516 1.4-.516c.516 0 .958.074 1.326.295s.663.516.958.81c.221.368.442.737.663 1.179s.295.884.442 1.4h.737l-.074-4.199h-.737l-.368.589c-.368-.221-.81-.442-1.252-.589s-.958-.295-1.547-.295c-.516 0-.958.074-1.473.295a3.204 3.204 0 0 0-1.179.737 2.863 2.863 0 0 0-.81 1.105 2.89 2.89 0 0 0-.295 1.326c0 .81.221 1.547.589 2.063s.958.958 1.621 1.252c.368.147.81.368 1.252.516.516.221.958.368 1.326.516.589.221.958.589 1.252 1.031s.442.884.442 1.4c0 .368-.074.663-.147.884s-.221.516-.442.663-.442.368-.737.442a4.333 4.333 0 0 1-1.031.147c-.516 0-1.031-.074-1.4-.295-.442-.221-.737-.516-1.031-.81-.295-.368-.589-.81-.81-1.179s-.368-.884-.516-1.473h-.737l.147 4.347h.737l.368-.663c.368.221.884.442 1.473.663s1.105.295 1.694.295c1.179 0 2.21-.368 3.021-1.105s1.252-1.621 1.252-2.8c0-.442-.074-.884-.221-1.252s-.295-.663-.589-.958c-.368-.295-.663-.516-.958-.737z" />
	</symbol>
	<symbol viewBox="0 0 1024 1024" id="preference-fontsize-large">
		<path d="M669.231 1019.773c-16.975 0-25.495-8.521-25.495-25.495s8.521-25.495 21.235-29.755h12.781c29.755 0 42.47-12.781 42.47-42.47 0-8.521-4.26-21.235-8.521-34.016-25.495-67.965-50.99-135.996-76.485-199.701-4.26-16.975-12.781-21.235-25.495-21.235H363.29c-12.781 0-21.235 8.521-25.495 21.235-16.975 50.99-34.016 97.72-46.73 144.45-8.521 25.495-12.781 50.99-12.781 67.965 0 42.47 16.975 63.705 50.99 67.965 16.975 0 25.495 12.781 25.495 29.755s-8.521 25.495-29.755 25.495H91.297c-16.975 0-25.495-8.521-25.495-25.495s8.521-25.495 29.755-29.755c42.47-4.26 76.485-38.209 97.72-97.72L477.984 33.983C482.244 12.748 494.959 4.228 512-.033c16.975 0 29.755 8.521 38.209 25.495l305.942 871.029c16.975 42.47 38.209 63.705 72.225 63.705 21.235 0 29.755 8.521 29.755 29.755s-8.521 29.755-29.755 29.755H669.231zm-174.206-790.35c-4.26 0-4.26 4.26-8.521 16.975L384.523 569.314l-4.26 8.521c0 8.521 4.26 12.781 12.781 12.781h195.441c16.975 0 21.235-8.521 16.975-21.235l-97.72-318.656-12.781-21.235z" />
	</symbol>
	<symbol viewBox="0 0 1024 1024" id="preference-fontsize-small">
		<path d="M622.886 869.561c-13.602 0-18.096-4.551-18.096-18.096s4.551-18.096 18.096-18.096h9.048c22.652 0 31.7-9.048 31.7-31.7l-4.551-22.652c4.551-40.748-27.144-90.544-54.293-140.34-4.551-9.048-9.048-18.096-18.096-18.096H410.162c-9.048 0-13.602 4.551-18.096 13.602-13.602 36.192-22.652 67.892-31.7 99.592-4.551 18.096-9.048 36.192-9.048 49.796 0 31.7 13.602 45.241 36.192 49.796 13.602 0 18.096 9.048 18.096 22.652s-9.048 18.096-22.652 18.096H215.47c-13.602 0-18.096-4.551-18.096-18.096s4.551-18.096 18.096-18.096c31.7-4.551 54.293-27.144 67.892-72.445l203.676-592.937c4.551-13.602 13.602-22.652 22.652-22.652 13.602 0 22.652 4.551 27.144 18.096l217.28 620.081c9.048 31.7 27.144 45.241 49.796 45.241 13.602 0 22.652 4.551 22.652 18.096s-9.048 18.096-22.652 18.096H622.881zM496.15 308.324s-4.551 4.551-4.551 13.602l-72.445 226.328v9.048s4.551 9.048 9.048 9.048h140.34c13.602 0 13.602-4.551 9.048-18.096l-72.445-226.328c-4.551-9.048-4.551-13.602-9.048-13.602z" />
	</symbol>
	<symbol viewBox="0 0 8 8" id="infocard-external">
		<path d="M6 0H1v2h3.59L0 6.59 1.41 8 6 3.41V7h2V0H6z" />
	</symbol>
	<symbol viewBox="0 0 6.01 6" id="infocard-source">
		<path d="M.01 2.85l1.87.58L.64 5.2l1.13.8 1.24-1.66L4.24 6l1.13-.8-1.22-1.77 1.86-.58-.41-1.31-1.83.6V0H2.25v2.13L.42 1.54z" />
	</symbol>
	<symbol viewBox="0 0 16 16" id="link">
		<path d="M3.631 6.071L2.44 4.936c-.624-.624-.681-1.645-.057-2.27s1.645-.624 2.326 0L5.9 3.801l.567.567L8.51 6.297c.284-1.078 0-2.213-.908-3.064L5.843 1.531C4.538.283 2.496.283 1.247 1.531s-1.191 3.234.114 4.482L3.12 7.715c.851.851 2.043 1.078 3.121.794L4.198 6.58l-.567-.511zm11.007 3.858l-1.759-1.702c-.851-.851-2.043-1.078-3.121-.794l2.043 1.929.567.567 1.191 1.135c.624.624.681 1.645.057 2.27s-1.645.624-2.326 0l-1.191-1.135-.567-.567-2.043-1.929c-.284 1.078 0 2.213.908 3.064l1.759 1.702c1.305 1.248 3.347 1.248 4.596 0s1.191-3.291-.114-4.539zm-4.539 1.135c.34.284.851.284 1.135 0s.284-.794 0-1.135l-1.021-.965-1.248-1.191-.738-.738-1.248-1.191-1.021-.965c-.34-.284-.851-.284-1.135 0s-.284.794 0 1.135l1.021.965L7.092 8.17l.738.738 1.248 1.191 1.021.965z" />
	</symbol>
	<symbol viewBox="0 0 24 24" id="location">
		<path d="M12 1.1a8.426 8.426 0 0 0-8.478 8.478c0 1.817.606 3.633 1.696 4.966C6.671 17.572 12 22.901 12 22.901s5.329-5.329 6.903-8.357c.969-1.453 1.574-3.149 1.574-4.966A8.426 8.426 0 0 0 11.999 1.1zm4.966 12.111C15.876 15.391 12 19.267 12 19.267s-3.754-3.754-4.844-6.056a6.224 6.224 0 0 1-1.211-3.633c0-3.391 2.664-6.177 6.056-6.177s6.056 2.786 6.056 6.177c0 1.453-.484 2.664-1.09 3.633zm-1.333-3.633a3.632 3.632 0 1 1-7.266 0 3.632 3.632 0 1 1 7.266 0z" />
	</symbol>
	<symbol viewBox="0 0 1024 1024" id="lock">
		<path d="M780.803 305.919C780.803 171.52 664.323 64 512 64S243.197 171.52 243.197 305.919c0 107.52 71.682 197.121 170.242 232.96L305.919 960h412.162L619.52 538.879c89.601-35.839 161.283-125.439 161.283-232.96z" />
	</symbol>
	<symbol viewBox="0 0 14 14" id="navbar-collections">
		<path d="M10 10h1.5V.5H3V2h7z" />
		<path d="M.5 3H9v8.5H.5z" />
	</symbol>
	<symbol viewBox="0 0 16 16" id="navbar-dossiers">
		<path d="M2.587 2.587h10.826v10.826z" />
	</symbol>
	<symbol viewBox="0 0 16 16" id="navbar-home">
		<path d="M12.429 6.524L8 2.587 3.571 6.524v6.889h8.858V6.524z" />
	</symbol>
	<symbol viewBox="0 0 16 16" id="navbar-saved">
		<path d="M12.429 13.413L8 9.476l-4.429 3.937V2.587h8.858v10.826z" />
	</symbol>
	<symbol viewBox="0 0 16 16" id="preference-nightmode">
		<path d="M7.374 14.63c-2.21 0-4.126-1.105-5.378-2.726.737.295 1.547.516 2.431.516 3.242 0 5.894-2.652 5.894-5.894 0-2.21-1.252-4.126-3.021-5.157h.074c3.684 0 6.63 2.947 6.63 6.63s-3.021 6.63-6.63 6.63z" />
	</symbol>
	<symbol viewBox="0 0 20 25" id="notifications">
		<path d="m10.0002307 25c-1.65651999 0-3.0002307-1.3423765-3.0002307-3h6c.0003076 1.6576235-1.3432492 3-2.9997693 3z" />
		<path d="m20 19.8014973c-.0007589 1.1244151-.8875735 1.1985027-1.9811042 1.1985027h-16.03885406c-1.09398596 0-1.98004174-.0740876-1.98004174-1.1986586v-.1937195c0-.8087241.46215139-1.5012478 1.12616202-1.8297286l.62864731-5.5765311c0-4.08245818 2.8093341-7.48986173 6.54934548-8.29375068v-2.16491629c0-.96235833.75932461-1.74269523 1.69622459-1.74269523.9364447 0 1.6957693.7803369 1.6957693 1.74269523v2.16507227c3.7400114.80373297 6.5493455 4.21082458 6.5493455 8.2937506l.6286473 5.5773111c.6640107.3289487 1.1258585 1.0202246 1.1258585 1.8289487z" />
	</symbol>
	<symbol viewBox="0 0 512 512" id="pause">
		<path d="M64 64h160v384H64zm224 0h160v384H288z" />
	</symbol>
	<symbol viewBox="0 0 16 16" id="pdf">
		<path d="M10.664.674H2.672v14.652h10.656V3.338L10.664.674zm.666 10.656H4.67v-.666h6.66v.666zm0-1.998H4.67v-.666h6.66v.666zm0-1.998H4.67v-.666h6.66v.666zm0-1.998H4.67V4.67h6.66v.666z" />
	</symbol>
	<symbol viewBox="0 0 512 512" id="play">
		<path d="M117.335 48l346.669 208-346.669 208z" />
	</symbol>
	<symbol viewBox="0 0 16 16" id="plus">
		<path d="M13.935 6.304H9.696V2.065H6.305v4.239H2.066v3.391h4.239v4.239h3.391V9.695h4.239z" />
	</symbol>
	<symbol viewBox="0 0 24 24" id="plus-small">
		<path d="M10.5 3h3v18h-3V3zM21 10.498v3H3v-3h18z" />
	</symbol>
	<symbol viewBox="0 0 24 24" id="price">
		<path d="M12 .85C5.806.85.85 5.806.85 12S5.806 23.15 12 23.15 23.15 18.194 23.15 12 18.194.85 12 .85zm0 19.822c-4.832 0-8.672-3.841-8.672-8.672S7.169 3.328 12 3.328c4.832 0 8.672 3.841 8.672 8.672S16.831 20.672 12 20.672zm-4.956-7.681h1.734c-.496.372-.991 1.115-.991 2.106 0 1.611 1.115 2.973 3.841 2.973 1.487 0 2.849-.372 4.088-1.363l-.991-1.982c-.991.743-1.858.991-2.602.991-.991 0-1.611-.619-1.611-1.363 0-.867.619-1.363 1.611-1.363h2.106v-2.23h-2.23c-1.115 0-1.487-.743-1.487-1.239 0-.743.619-1.239 1.363-1.239s1.487.248 2.23.867l1.239-1.858c-.991-.991-2.478-1.487-3.593-1.487-2.602 0-3.841 1.239-3.841 3.097 0 .743.372 1.611.867 1.858H7.043v2.23z" />
	</symbol>
	<symbol viewBox="0 0 16 16" id="print">
		<path d="M13.328 4.67V2.672L11.33.674H2.672V4.67H.008v5.994h2.664v4.662h10.656v-4.662h2.664V4.67h-2.664zm-1.998 7.992H4.67v-.666h6.66v.666zm0-1.998H4.67v-.666h6.66v.666zm3.996-.666h-1.998V8.666H2.672v1.332H.674V5.336h14.652v4.662zm-.666-3.33a.666.666 0 1 1-1.332 0 .666.666 0 0 1 1.332 0z" />
	</symbol>
	<symbol viewBox="0 0 16 16" id="reading-settings">
		<path d="M13.039 12.925c-.171 0-.228-.114-.285-.285 0-.171.114-.228.228-.285h.114c.285 0 .456-.114.456-.399 0-.114 0-.228-.057-.342-.285-.683-.512-1.31-.74-1.936-.057-.171-.171-.228-.285-.228h-2.448a.313.313 0 0 0-.285.171 19.19 19.19 0 0 0-.456 1.367c-.057.228-.114.456-.114.683 0 .399.171.626.512.683.171 0 .285.114.285.285s-.114.228-.285.228H7.344c-.171 0-.228-.057-.228-.228s.114-.228.285-.285c.456-.057.74-.342.968-.968l2.847-8.085c.057-.171.171-.285.342-.285s.342.114.399.285l3.018 8.484c.171.399.399.626.74.626.228 0 .285.114.285.285s-.114.285-.285.285h-2.676zm-1.765-7.687l-.114.171-1.025 3.132v.114s.057.114.114.114h1.993c.171 0 .228-.057.171-.228l-.968-3.075c-.057-.114-.114-.228-.171-.228zm-7.231 7.687c-.114 0-.171-.057-.171-.171s.057-.171.171-.171h.114c.171 0 .285-.114.285-.285 0-.057 0-.114-.057-.228l-.512-1.31c-.057-.114-.114-.171-.171-.171H2.051c-.057 0-.171.057-.171.114-.114.342-.228.626-.342.911-.057.171-.057.342-.057.456 0 .285.114.399.342.456.114 0 .171.057.171.171s-.057.171-.228.171H.172c-.114 0-.171-.057-.171-.171s.057-.171.171-.171c.285 0 .512-.228.683-.626l1.936-5.466a.445.445 0 0 1 .228-.228c.114 0 .228.057.228.171l2.05 5.694c.114.285.285.399.456.399.114 0 .228.057.228.171s-.057.171-.228.171H4.045zM2.847 7.801l-.057.114-.683 2.107v.057c0 .057.057.057.114.057h1.31c.114 0 .171-.057.114-.171l-.683-2.05c-.057-.114-.057-.114-.114-.114z" />
	</symbol>
	<symbol viewBox="0 0 16 16" id="reading-time">
		<path d="M8 1.717C4.545 1.717 1.717 4.544 1.717 8S4.544 14.283 8 14.283c3.455 0 6.283-2.827 6.283-6.283S11.456 1.717 8 1.717zm.785 6.597L6.9 10.356 5.643 9.178l1.571-1.492V4.074h1.571v4.241z" />
	</symbol>
	<symbol viewBox="0 0 1024 1024" id="preference-readingtime-off">
		<path d="M512 246.856c145.831 0 265.144 119.317 265.144 265.144S657.827 777.144 512 777.144 246.856 657.827 246.856 512 366.173 246.856 512 246.856zM512 48C253.486 48 48 253.486 48 512s205.486 464 464 464 464-205.486 464-464S770.514 48 512 48z" />
	</symbol>
	<symbol viewBox="0 0 1024 1024" id="preference-readingtime-on">
		<path d="M512 48C256.8 48 48 256.799 48 512s208.799 464 464 464c255.2 0 464-208.799 464-464S767.201 48 512 48zm58 487.199L430.8 685.998l-92.799-86.999 116.001-110.201v-266.8h116.001v313.201z" />
	</symbol>
	<symbol viewBox="0 0 16 16" id="reload">
		<path d="M16 .791v6.084H9.916L16 .791zM8.213 16a7.33 7.33 0 0 1-5.293-2.251C0 10.768 0 5.962 2.92 2.981s7.605-2.981 10.525 0c.365.365.365.913 0 1.278s-.913.365-1.278 0c-2.19-2.251-5.779-2.251-8.03 0-2.129 2.312-2.129 5.962.061 8.213s5.779 2.251 8.03 0c.548-.487.548-.548.913-.913.243-.426.791-.608 1.217-.304.426.243.548.791.304 1.217-.304.548-.73.791-1.156 1.278-1.46 1.521-3.346 2.251-5.293 2.251z" />
	</symbol>
	<symbol viewBox="0 0 1024 1024" id="remind-me-later">
		<path d="M512.066 156.069c-222.023 0-402.001 179.978-402.001 402.001s179.978 402.001 402.001 402.001c222.023 0 402.001-179.978 402.001-402.001 0-222.023-179.978-402.001-402.001-402.001zm50.244 452.257L420.101 748.518l-70.851-70.851 112.56-112.56V306.825h100.5zM99.297 111.803l168.57-109.47 54.741 84.283-168.57 109.47-54.741-84.283zm767.752 85.886L702.397 82.399 760.038.073l164.652 115.29-57.641 82.326z" />
	</symbol>
	<symbol viewBox="0 0 16 16" id="respondens">
		<path d="M14.788 2.809c0-.128-.064-.19-.128-.319s-.128-.19-.255-.255l-.255-.128-.255-.064h-.445s-.255.064-.383.064l-.383.128c-.445.19-.892.383-1.275.637l-1.146.764c-.383.255-.701.509-1.02.764s-.637.509-.892.828c-.509.509-.956.956-1.337 1.401.319-.509.701-1.02 1.082-1.593.509-.701-.701-.255-1.02.128a89.881 89.881 0 0 0-1.91 2.611l-.319-.19-.637-.383s-.445-.19-.701-.255l-.701-.19h-.765a.855.855 0 0 0-.383.319l-.128.255v.575l.128.319c.064.19.19.383.319.509s.255.319.445.445c.319.255.701.445 1.082.637l.19.064c-.701 1.02-1.465 1.974-2.229 2.994-.319.445.573.319 1.082-.128.255-.19.764-.764 1.02-1.082.383-.509.701-.956 1.02-1.465h.128c.445.064.956.128 1.401.064l.637-.064.319.319.445.509.445.445.445.445.383.383.383.383s.255.19.383.319.445.383.573.509c.19.128.319.255.383.319l.128.128-.128-.128c-.064-.064-.19-.19-.319-.383s-.319-.383-.509-.573c-.19-.255-.383-.509-.637-.764s-.509-.573-.764-.892l-.383-.509s-.255-.319-.445-.509v-.064h.064c.956-.255 1.848-.764 2.676-1.337a5.708 5.708 0 0 0 1.21-.956c.383-.319.764-.701 1.146-1.082s.701-.764 1.02-1.21l.445-.637.383-.701c.064-.128.128-.255.128-.383l.128-.445c.19-.19.19-.383.128-.573zM4.15 9.307l-.383-.128c-.383-.128-.701-.255-.956-.445s-.509-.383-.701-.637c-.064-.128-.128-.255-.128-.319v-.064l.064-.064c0-.064.064-.064.128-.064h.192s.19 0 .255.064c.383.064.828.255 1.211.445l.573.319.255.19c-.128.19-.319.445-.509.701zm1.084.19l.255-.383.128.064.255.255.128.064h-.764zm8.726-6.241l-.064.255-.128.319c-.128.19-.19.383-.319.637-.128.19-.255.383-.445.573-.319.383-.637.764-.956 1.082-.701.701-1.465 1.337-2.229 1.848s-1.593.956-2.485 1.211c-.19.064-.319.128-.509.128l-.255-.255-.637-.637.19-.19c.255-.319.637-.701 1.082-1.146l.701-.701s.509-.445.828-.701c.573-.509 1.21-.956 1.91-1.401a6.741 6.741 0 0 1 1.146-.637c.19-.128.383-.19.573-.255s.383-.19.637-.255c.128-.064.19-.064.319-.064s.19-.064.319-.064h.255c.064 0 .128 0 .128.064-.064 0-.064.064-.064.19z" />
	</symbol>
	<symbol viewBox="0 0 16 16" id="save">
		<path d="M3.288 1.717v12.565L8 11.141l4.712 3.141V1.717z" />
	</symbol>
	<symbol viewBox="0 0 16 16" id="save-delete">
		<path d="M2.913 1.217v13.565L8 11.391l5.087 3.391V1.217H2.913zm7.291 7.037l-.763.763L8 7.576 6.559 9.017l-.763-.763 1.441-1.441-1.441-1.441.763-.763L8 6.05l1.441-1.441.763.763-1.441 1.441 1.441 1.441z" />
	</symbol>
	<symbol viewBox="0 0 16 16" id="save-saved">
		<path d="M3.288 1.717v12.565L8 11.141l4.712 3.141V1.717H3.288zM7.45 8.785L5.644 6.508l.785-.628 1.099 1.414 2.199-2.435.707.628L7.45 8.785z" />
	</symbol>
	<symbol viewBox="0 0 16 16" id="search">
		<path d="M15 13.349l-3.297-3.297c.61-.922.971-2.025.971-3.215a5.836 5.836 0 1 0-5.836 5.837c1.189 0 2.292-.36 3.215-.972l3.297 3.297 1.651-1.651zm-8.162-3.01a3.505 3.505 0 0 1-3.502-3.502 3.505 3.505 0 0 1 3.502-3.502 3.506 3.506 0 0 1 3.502 3.502 3.505 3.505 0 0 1-3.502 3.502z" />
	</symbol>
	<symbol viewBox="0 0 16 16" id="sharing">
		<path d="M16 8L8 3.273v2.909c-1.673 0-7.273 1.164-8 6.545 3.709-3.345 7.055-2.909 8-2.909v2.909L16 8z" />
	</symbol>
	<symbol viewBox="0 0 16 16" id="sidenote-audio">
		<path d="M5.2 3.5C2.737 3.5.7 5.537.7 8s2.037 4.5 4.5 4.5S9.7 10.463 9.7 8 7.663 3.5 5.2 3.5zm0 8.053c-1.942 0-3.553-1.611-3.553-3.553S3.258 4.447 5.2 4.447 8.753 6.058 8.753 8 7.142 11.553 5.2 11.553zm-.237-5.685v2.511a.798.798 0 0 0-.474-.142c-.521 0-.947.426-.947.947s.426.947.947.947.947-.426.947-.947V6.816h1.421v-.947H4.962z" />
	</symbol>
	<symbol viewBox="0 0 16 16" id="sidenote-author">
		<path d="M0 3.25v9.5h16v-9.5H0zm15 8.5H1v-7.5h14v7.5zM3 6.25h4.5v.5H3v-.5zm0 1.5h4.5v.5H3v-.5zm0 1.5h2.5v.5H3v-.5zm10.5 1.5s.05-1.3-.45-1.4-1.3-.5-1.4-.9v-.4c.3-.3.5-.7.5-1.2 0-.9-.6-1.6-1.4-1.6-.75 0-1.4.7-1.4 1.6 0 .5.2.9.5 1.2v.4c-.05.4-.9.8-1.4.9L8 10.75h5.5z" />
	</symbol>
	<symbol viewBox="0 0 16 16" id="sidenote-document">
		<path d="M2.5 5.75H6v.5H2.5v-.5zm0 3H6v.5H2.5v-.5zm7.5-3h3.5v.5H10v-.5zm-7.5 1.5H6v.5H2.5v-.5zm7.5 0h3.5v.5H10v-.5zm0 1.5h3.5v.5H10v-.5zm4-5.5h-2c-.9 0-2.95.1-3.95 1h-.1c-1-.9-3.05-1-3.95-1H0v8.5h4s3 0 3.5 1h1c.5-1 3.5-1 3.5-1h4v-8.5h-2zm-6.5 8.2c-1.1-.6-2.7-.7-3.5-.7H1v-6.5h3s3 0 3.5 1v6.2zm7.5-.7h-3c-.8 0-2.4.1-3.5.7v-6.2c.5-1 3.5-1 3.5-1h3v6.5z" />
	</symbol>
	<symbol viewBox="0 0 16 16" id="sidenote-download">
		<path d="M11 4.25v1h4v6.5H1v-6.5h4v-1H0v8.5h16v-8.5zm-3 5l4-3h-2v-3H6v3H4zm-2.5.5h5v1h-5v-1z" />
	</symbol>
	<symbol viewBox="0 0 16 16" id="sidenote-externalarticle">
		<path d="M12.5 3.25H0v9.5h16v-6l-3.5-3.5zm.5 1.2l1.8 1.8H13v-1.8zm2 7.3H1v-7.5h11.5v2.5H15v5zm-11-5h7.5v-.5H4v.5zm0 1.5h7.5v-.5H4v.5zm0 1.5h7.5v-.5H4v.5z" />
	</symbol>
	<symbol viewBox="0 0 16 16" id="sidenote-image">
		<path d="M0 3.25v9.5h16v-9.5H0zm15 8.5H1v-7.5h14v7.5zm-4.5-1H13l-3-3-1 1h-.75L6 6.75l-4 4h5zm2-4.25a.75.75 0 1 1-1.5 0 .75.75 0 0 1 1.5 0z" />
	</symbol>
	<symbol viewBox="0 0 16 16" id="sidenote-internalarticle">
		<path d="M1.574 4.029c.103-.206.258-.258.361-.413.155-.206.155-.361.052-.516-.155-.155-.516 0-.722.413-1.032 1.96.825 2.94.825 2.94-.98-.928-.877-1.754-.516-2.424zM8.33 9.547c-1.135 1.031-4.074 3.043-5.518 2.063-1.444-1.031-.155-3.352 1.857-5.364S8.795 3.409 9.723 3.77c.98.361.877 1.754-.825 2.785-2.166 1.289-4.487.928-4.487.928s1.186.361 2.63.103c1.702-.309 3.662-1.393 3.92-2.888.258-1.547-1.444-2.63-5.106-.309s-6.601 6.705-3.868 8.2c2.63 1.341 6.344-3.043 6.344-3.043z" />
	</symbol>
	<symbol viewBox="0 0 16 16" id="sidenote-mail">
		<path d="M0 1.92v12.16h16V1.92H0zM14.72 12.8H1.28V3.2h13.44v9.6zM2.944 10.624l.512.512 2.496-2.56L8 10.688l2.048-2.112 2.496 2.56.512-.512-2.624-2.56 2.624-2.752-.512-.384-2.56 2.688-.448.512L8 9.792 6.464 8.128l-.448-.512-2.56-2.688-.512.384 2.624 2.752z" />
	</symbol>
	<symbol viewBox="0 0 16 16" id="sidenote-quote">
		<path d="M0 3.154v8.615h3.077v3.077l3.077-3.077H16V3.154H0zm14.769 7.384H6.154l-1.846 1.846v-1.846H1.231V4.384h13.538v6.154zM3.692 6.231h8.615v.615H3.692v-.615zm0 1.846h8.615v.615H3.692v-.615z" />
	</symbol>
	<symbol viewBox="0 0 16 16" id="sidenote-video">
		<path d="M5.75 3c-2.737 0-5 2.263-5 5s2.263 5 5 5 5-2.263 5-5-2.263-5-5-5zm0 8.947c-2.158 0-3.947-1.789-3.947-3.947S3.592 4.053 5.75 4.053 9.697 5.842 9.697 8c0 2.158-1.789 3.947-3.947 3.947zM4.961 10l2.684-2-2.684-1.947z" />
	</symbol>
	<symbol viewBox="0 0 16 16" id="sidenote-website">
		<path d="M5.75 3c-2.737 0-5 2.263-5 5s2.263 5 5 5 5-2.263 5-5-2.263-5-5-5zm.263 2.632V4.053l.474.053c.263.316.526.842.684 1.526H6.013zm1.316.526c.105.474.158 1 .158 1.579H6.013V6.158h1.316zM5.487 4.053v1.579H4.329a4.577 4.577 0 0 1 .684-1.526l.474-.053zm0 2.105v1.579H4.013c0-.579.053-1.105.158-1.579h1.316zM3.382 7.737H1.803a5.01 5.01 0 0 1 .421-1.579h1.263c-.053.474-.105 1-.105 1.579zm-1.579.526h1.579c0 .579.053 1.105.158 1.579H2.277c-.263-.474-.421-1-.474-1.579zm2.21 0h1.474v1.579H4.171c-.053-.474-.158-1-.158-1.579zm1.474 2.105v1.579l-.474-.053c-.263-.316-.526-.842-.684-1.526h1.158zm.526 1.579v-1.579h1.158a4.577 4.577 0 0 1-.684 1.526l-.474.053zm0-2.105V8.263h1.474a7.31 7.31 0 0 1-.158 1.579H6.013zm2.105-1.579h1.579a4.983 4.983 0 0 1-.421 1.579H8.013c.053-.474.105-1 .105-1.579zm0-.526a7.31 7.31 0 0 0-.158-1.579h1.263c.263.474.421 1 .421 1.579H8.118zm.79-2.105H7.855c-.105-.474-.263-.842-.421-1.211.579.263 1.053.684 1.474 1.211zm-4.79-1.211c-.158.368-.316.737-.421 1.211H2.644a3.347 3.347 0 0 1 1.474-1.211zm-1.526 5.947h1.053c.105.474.263.842.421 1.211-.579-.263-1.053-.684-1.474-1.211zm4.79 1.211c.158-.368.316-.737.421-1.211h1.053a3.347 3.347 0 0 1-1.474 1.211z" />
	</symbol>
	<symbol viewBox="0 0 16 16" id="sidepanel-audio">
		<path d="M7.5 3.5v5.3c-.3-.2-.6-.3-1-.3-1.1 0-2 .9-2 2s.9 2 2 2 2-.9 2-2v-5h3v-2h-4z" />
	</symbol>
	<symbol viewBox="0 0 16 16" id="sidepanel-correspondents">
		<path d="M9.1 10.5c-.6-.1-2-.5-2-1v-.6s1-.4 1-3C8 4.4 7 3.5 6 3.5S4 4.4 4 6c0 2.6 1 3 1 3v.5c-.1.5-1.4.9-2 1-.7.1-1 2-1 2h8s-.3-1.9-.9-2zm4.9 2c-.1-.5-.3-1.6-.8-1.7-.6-.1-1.7-.4-1.8-.9v-.5s.7-.3.7-2c-.1-1.4-.7-1.9-1.6-1.9S9 6 9 7.4c0 1.6.7 2 .7 2v.3c.8.4 1.1 1.8 1.3 2.8h3z" />
	</symbol>
	<symbol viewBox="0 0 16 16" id="sidepanel-video">
		<path d="M8 2C4.7 2 2 4.7 2 8s2.7 6 6 6 6-2.7 6-6-2.7-6-6-6zm0 10.9c-2.7 0-4.9-2.2-4.9-4.9S5.3 3.1 8 3.1s4.9 2.2 4.9 4.9-2.2 4.9-4.9 4.9zM10.2 8L7 6v4z" />
	</symbol>
	<symbol viewBox="0 0 16 16" id="sort-down">
		<path d="M.507 12.428H8v-1.362H.507v1.362zm9.536-4.769H.507v1.362h9.536V7.659zM.507.848V2.21h14.986V.848H.507zm0 4.768h14.986V4.254H.507v1.362zm12.942 6.948V7.66h-1.362v4.904l-1.226-1.362-.817.886 2.725 3.065 2.725-3.065-.817-.886-1.226 1.362z" />
	</symbol>
	<symbol viewBox="0 0 16 16" id="sort-up">
		<path d="M.507 12.428H8v-1.362H.507v1.362zm0-4.769v1.362h8.174l1.362-1.362H.507zm0-2.043h14.985V4.254H.507v1.362zm0-4.768V2.21h14.985V.848H.507zm9.536 9.877l.817.886 1.226-1.362v4.904h1.362v-4.904l1.226 1.362.817-.886-2.725-3.065-2.725 3.065z" />
	</symbol>
	<symbol viewBox="0 0 16 16" id="spinner">
		<path d="M4.368 6.79C4.834 5.3 6.23 4.276 7.906 4.276s2.98 1.024 3.538 2.514h1.955c-.559-2.514-2.793-4.376-5.401-4.376S3.156 4.276 2.597 6.79h1.769zm6.798 3.072c-.652 1.117-1.862 1.862-3.259 1.862S5.3 10.979 4.648 9.862H2.599c.745 2.142 2.793 3.725 5.308 3.725s4.47-1.583 5.308-3.725h-2.049z" />
	</symbol>
	<symbol viewBox="0 0 512 512" id="square">
		<path d="M176 176h160v160H176z" />
	</symbol>
	<symbol viewBox="0 0 24 24" id="time">
		<path d="M12 1.1C5.944 1.1 1.1 5.944 1.1 12S5.944 22.9 12 22.9 22.9 18.056 22.9 12 18.056 1.1 12 1.1zm0 19.378c-4.723 0-8.478-3.754-8.478-8.478S7.276 3.522 12 3.522c4.723 0 8.478 3.754 8.478 8.478S16.724 20.478 12 20.478zM10.789 6.55V12l-3.633 2.059 1.09 2.059 4.966-2.907V6.55z" />
	</symbol>
	<symbol viewBox="0 0 16 16" id="user">
		<path d="M12.656 10.793c-1.024-.186-2.7-1.024-2.793-1.862l-.093-.838c.559-.559 1.024-1.49 1.024-2.421 0-1.769-1.21-3.259-2.793-3.259s-2.793 1.49-2.793 3.259c0 1.024.372 1.862 1.024 2.421 0 .279 0 .559-.093.838-.093.838-1.769 1.676-2.793 1.862l-.931 2.793h11.174s.093-2.607-.931-2.793z" />
	</symbol>

	<symbol viewBox="0 0 18 18" id="magic-wand">
		<path d="M8.66212615 10.6174426l-2.1940611-2.04599505 2.39791363-2.57144755 2.19406112 2.04599508zm-.81445091.8733917l-5.65361414 6.0627589-2.1940611-2.0459951 5.65361414-6.06275888zM9 1h1v1h-1v1h-1v-1h-1v-1h1v-1h1zM15 11h1v1h-1v1h-1v-1h-1v-1h1v-1h1zM16 3h2v1h-2v2h-1v-2h-2v-1h2v-2h1z" />
	</symbol>

	<!-- Logos -->
	<symbol viewBox="0 0 16 16" id="logo">
		<path d="M3.101 2.719c.135-.27.315-.36.494-.584.18-.27.225-.494.045-.674-.225-.18-.674.045-.944.539C1.303 4.607 3.82 5.955 3.82 5.955c-1.303-1.258-1.169-2.337-.719-3.236zm9.034 7.416c-1.528 1.348-5.438 4.09-7.371 2.742s-.18-4.494 2.517-7.191 5.483-3.82 6.787-3.326c1.303.449 1.169 2.337-1.079 3.73-2.921 1.708-6.022 1.169-6.022 1.169s1.618.494 3.506.135c2.247-.449 4.899-1.843 5.213-3.865.315-2.067-1.978-3.506-6.831-.405C3.956 6.225.001 12.068 3.686 14.045c3.551 1.933 8.449-3.91 8.449-3.91z" />
	</symbol>
	<symbol viewBox="-211 374 189 45" id="logo-white">
		<path fill="#fff" d="M-206.3 389.6c-3.9-3.7-3.6-6.9-2.2-9.4.4-.8 1-1 1.4-1.7.6-.8.6-1.5.2-1.9-.6-.5-2 .1-2.8 1.5-4.2 7.6 3.4 11.5 3.4 11.5zm55.2 2c1.9-.3 4.1-1 6.1-1.8v.1c.3.8.8 1.1 1.7 1.5 1.7.6 4.6-.1 6.4-1.5 0 0 .1-.1.2-.3l-.3.1c.2-.1.6-.5.6-.6l.1-.1c0-.1 0-.1-.1-.1-.4.2-1 .5-1.3.6 1.1-.5 1.7-1.2 1.9-1.5.1-.2.2-.4 0-.2-.4.4-1.4 1.1-3.1 1.7-1.6.6-3.1.4-3.3-1 1.3-.6 2.4-1.2 3.1-1.6 1.8-1.1 3.4-2.6 3.3-4.2 0-.5-.4-1-1.3-1.1-1.5-.3-3.3.8-5 2.3-1.3 1-2.4 2.8-2.7 4.4-.9.3-1.9.6-2.9.8.4-.5.7-1 1.1-1.6.3-.5 1.1-1.7 2-3.1l.9-1.5 3.6-5.9c.2-.4.3-.6.3-.9 0-.2-.2-1.7-.2-2 0-.3 0-.5-.5.2-.3.5-1.7 2.7-3.4 5.3 0 0-1.2 1.9-1.9 2.9-.1-.3-.3-.5-.6-.6-1.7-.5-4.4.9-5.6 2.1-1.5 1.4-3.6 4-2.9 6 .3 1.8 2.2 1.8 3.8 1.6zm11.8-7.6c.7-.4 1.2-.5 1.2-.2-.1.8-2.2 2.2-3.9 3.2.6-1.7 2.1-2.6 2.7-3zm-12.2 2.1c.5-.6 3.5-3.1 4.2-1.5 0 0-1.3 2.1-2.8 4.2-.4.5-.8 1-2 .8-.5-.1-.7-.4-.7-.9.1-.7.4-1.5 1.3-2.6zm42.2 13c-.5-3.4-5.1-2.2-7.2-.9h-.1c0-.3-.4-.9-1-.9-1.6 0-2.9.8-3.1 1.1-.2.3 0 .6.4.6h.7c-1.2 3.1-9.4 18.6-9.8 19.3-.2.3-.3.5-.3.7.2 0 .6-.1.9-.2l.1-.1c.1-.1.2-.1.2-.2.2-.3 1.3-1.9 1.6-2.3h.1c-.1.3-.3.9-.5 1.3-.1.1-.1.3-.1.4l.5-.7.1.2s0 .1.1 0c.3-.2.5-.4.7-.9.3-.5 2.9-5.2 5.1-9 .1.7.4 1.4 1.2 1.7 1.5.6 3.4-.3 4.7-1.1 1.6-1.1 2.9-2.6 4-4.2 1.2-1.4 2-3 1.7-4.8zm-4.1 2.8c-.6 1.6-2.5 4.2-4.1 4.8-2.4.8-1.5-2-.9-3 1-1.7 2.5-4.2 4.4-4.6 1.4-.3 1 1.8.6 2.8zm91.3-12h-10.8c2.9-5.3 5.7-10.2 5.9-10.6.3-.6.3-.5.2-1l-.5-1.7c-.2-.8-.3-.5-.7.2-.3.5-4.2 7-7.9 13.1-8.9.1-18.8.2-29.5.3.2-.3.8-1.5 1.2-2.4.5-1 1-2.1 1.1-2.4v-.1c-.1 0-.2.1-.3.3-.1.1-.7 1.1-1.3 2.1-.6.9-1.2 1.9-1.5 2.2l1.2-2.4c.4-.8.7-1.6.9-1.9l.2-.6s-.2.3-.4.7c.2-.4.4-1.2.4-1.2l-.1.1-.2.2c.3-1 .5-1.9.5-1.9s0-.1-.1-.1c0 0-.6 1.5-2.1 4.2-1 1.7-1.7 3-1.8 3.3-11 .1-22.6.2-34.6.3-3.9 0-6.7.1-7.5.2l6.2.3c-2.9.1-13.2.3-13.7.3h48.9c-.8 1.4-2.1 3.8-3.4 6.1-.2-.3-.4-.4-.7-.5-2.3-.7-5.7 1.2-7.2 2.8-.9.9-2 2.3-2.6 3.5-.4.6-1.2 2.1-2.5 2.8-1 .6-2.2.5-2.2-.9 0-1.1 2.2-3.8 3.2-5.7.5-1 .8-1.5.8-1.8 0-.4-.2-.6-.5-.8-.4-.3-1-.4-1.7-.2s-3.1 1.5-5.6 3.9c-1 .9-2 1.9-2.8 2.8.9-1.5 1.9-3.3 2.4-4.6.2-.6.4-.9.1-1.3-.2-.3-.8-.5-1.2-.7-.3-.1-.5 0-.7.1-.1.1-.3.3-.9 1-.8 1-2.2 2.3-3.4 3.3.6-1.6.6-3.1-.8-4.1-.9-.7-2.5-.5-3.5-.3-2 .5-3.7 1.9-5 3.3-1.7 1.9-5 6.6-1.6 8.6 2.6 1.5 6.1-.8 7.7-2.6.6-.7 1.5-1.8 2.3-3 1.3-.9 2.6-1.9 3.5-2.8-1.2 2.6-2.7 5.8-2.8 6.3-.2.5-.6 1.7-.6 2.2 0 .6.8.7 1.6.7s1-.3 1.3-.7c.4-.5.9-1.5 4.6-5.2.8-.8 1.5-1.5 2.3-2.1-.7.9-1.4 2-1.6 2.8-1.2 3.9.7 4.6 1.6 4.6.9 0 3-.9 5-3.4-.1.7 0 1.5.3 2.1 1 2.2 3.5 2.2 5.6 1.9 2.1-.3 4.6-1.2 6.8-2.2.1.2.1.3.2.4.7 1.2 1.5 1.8 3.4 1.8s3.7-.8 5.7-2.6c1.2-1 2.3-2.4 3.8-4 .6-.7 1.2-1.4 1.9-2.2-.9 1.6-2.1 3.8-2.7 5.1-.9 2.3-1.4 3.9.5 3.9.6 0 .9-.1 1.1-.3.7-.7 1.5-1.7 2.6-2.7l2.8-2.8c-.3.5-.5.9-.7 1.3-.6 1.8-.6 3-.3 3.6.3.5 1.1 1.1 2.5.4.9-.4 2.8-1.6 5-3.8-.8 1.8-1.2 3.2-1.2 4.9 0 3.3 1.9 3.8 3.8 3.8 3.5 0 6.5-2.6 7.2-3.3.5-.4 1.2-1.4 1.5-1.9.1-.2 0-.1-.1 0-1.2 1.4-2.5 2.2-2.8 2.4.1-.1.3-.3.6-.5.3-.3.5-.4.6-.5l-.4.2-.4.2c.2-.2 1.1-.9 1.8-1.8.4-.5.7-1 1-1.3h-.1c-2.1 2.3-4.9 4.9-7.7 4.9-1.6 0-1.9-1.9-1-4.9.9-2.8 2.9-6.7 5.5-11.4l2.7-4.8h9.4s.4.1 1-.3.9-.8 1.2-1c.4 0 .1-.2.1-.2zm-78.8 12.1c-.8 1.7-2.2 3.8-4 4.6-2.4 1-1.3-2.1-.8-3.2.8-1.6 2.3-3.2 4.3-4 1.6-.7 1 1.4.5 2.6zm21.1 5c-.8-.5-.4-2.8.8-4.4 1.5-2 3.5-3.4 4.5-3.3.8.1.8 1.1.8 1.1s-1.7 2.9-3 4.7c-1.3 1.6-2.3 2.4-3.1 1.9zm38.5-7.9l-.3.5c-2.6 4.1-6.5 7.8-7.3 7.4-.9-.5 0-2.6.4-3.3.4-.7 3.6-5.8 3.7-5.9.1-.2.5-.9.2-1.2 0 0-.1-.2-.8-.6-.7-.4-1.2-.4-1.5-.2-.3.2-1.1 1.1-2.7 2.7-1.3 1.3-2.8 2.7-4.2 4.1.9-1.4 2.2-3.4 2.6-4.1.5-.8.5-1.2.1-1.5s-1-.5-1.5-.5c-.3 0-.6 0-.8.2-.9.8-3 3.3-4.4 4.9-1.6 1.8-3.3 3.3-5.1 4.5-1 .7-2.2 1.2-3.2 1-.7-.1-1.1-.5-1.1-1.3 1.7-.9 3.1-1.7 3.9-2.3 1.5-1 4.1-2.9 3.8-5.1-.1-.5-.3-1.4-1.6-1.6-2-.4-4.3 1.1-6.4 3-1.5 1.3-2.9 3.7-3.3 5.7-1.2.5-2.4.9-3.9 1.1 1.7-2.2 3.3-5.4 4.5-7.7 1.6-3.1 3.4-6.4 4-7.5h29.3c-1.8 3.2-3.5 5.9-4.4 7.7zm-25.4 4.5c1-2.4 3-3.8 3.3-4 .3-.2 1-.4.9 0-.2 1-2.3 2.7-4.2 4zm-59.7 4.8c.8-.7 2.5-2.4 3.1-5.8.5-3-1.2-4.7-1.6-5.1-.4-.3-.9-.2-1.1 0-.4.6-2.3 3.7-7.3 7.6-2.7 2.1-4.8 2.4-5.5 2.4-1.2.1-1.8-1-2-1.6 1.1-.5 2.2-1.1 3.3-1.8 2.5-1.5 4-3 4.2-3.5.6-1.2.2-3.2-1.7-3.5-1.1-.2-2.6.2-4.1 1.2-1.5 1-3.4 3-4.2 4.1-.6.7-1.4 2.1-1.5 3.6-1.6.6-3 1-4 1s-.7-1.1.1-2.3c1.3-2.2 3.1-4.1 5.5-6.9.3-.4.1-.9-.3-1.2-.2-.2-.6-.2-1-.2-1.1 0-2.1.8-2.9 1.3-.8.5-.9.7-2.3.7 0 0 .3-.4.2-.9s-.5-1-1.7-1-2.7 1.5-2.7 2.3c0 .5 0 .8.6 1.3-1.4 1.9-3 3.6-4.8 5-.6.5-1.6 1.2-2.4 1.7-1 .6-2.5.9-3 .5s-.2-1.6 1.1-3.4c.9-1.2 2.8-2.8 3.6-3.5.8-.7 1.8-1.4 1.9-1.8.1-.3.2-.8 0-1.1-.4-.6-1.4-.4-1.9-.3-.9.2-1.3.6-1.8.9-.7.3-1.8.4-2.3.2.6-.4.6-1.5-.3-1.5-.9-.1-2.1.3-3.1 1-.6.4-1.1.9-1.1 1.8 0 .2.1.5.4.8-.3.3-.8.7-1.5 1.3-1.1 1-2.9 2.5-4.1 3.2 0 0 1.9-2.4 2.4-4.6.3-1.3.1-3.6-2.6-3.9-3-.3-4.9 1.7-9.7 5.7-4.6 3.9-15.4 11.4-21.2 7.5-5.8-4-.6-13.1 7.5-20.9 8.1-7.8 16.6-11.1 20.5-9.7 3.9 1.4 3.6 6.9-3.2 10.8-8.7 5.1-18.1 3.6-18.1 3.6s4.9 1.5 10.6.4c6.8-1.3 14.7-5.3 15.7-11.3 1-6-5.9-10.2-20.7-1.2-14.7 9-26.4 25.7-15.5 31.8 7.6 4.3 19.2-4.4 24-8.2-.4 1.6-.2 3.2 1.4 4.1.6.4 1.3.5 2 .5 3.9-.1 7.4-2.9 9.3-4.4 2-1.5 5.1-4.1 5.1-4.1h.2c.3 0 1 0 1.6-.1-1.2 1.2-2.5 2.6-3.4 3.7-2 2.5-2.2 4-.2 4.8.5.2.9.3 2.1.3 2.5 0 5.2-1.5 7.1-2.9 2.3-1.7 4.4-3.9 6.1-6.2l.9.1h1c-.6.7-1.6 1.8-2.2 2.7-1 1.3-1.8 2.4-1.8 3.5s.4 2.6 2.7 2.6c1.3 0 3.4-.8 4.8-1.4.4-.2.9-.4 1.5-.6.2.6.9 1.6 2.8 2.2 2.7.8 6.6-.9 9.4-3.2 2.2-1.8 4.2-4.3 5.1-5.4.4 1 .8 3.1-1 5.4-1.4 1.9-2 1.1-2.2.9-.2-.2-.8-.2-1.1.3-.4.8.2 2.1 1.8 2.1s2.9-.9 3.5-1.4zm-14.1-4.8c.8-1.7 2.1-2.8 3.1-3.5.9-.6 1.2-.5 1.3-.3.1.4.4 1.3-2 2.7l-2.6 1.5c.1-.1.1-.2.2-.4zm-33.7 0c-.8 1.3-1.8 2.4-2.8 3.1-1.1.6-2 .4-2.3-.6-.4-1.3.5-3 1.1-3.9.6-.9 1.5-2.3 3-3 1.6-.7 2.3 0 2.4.5.1 1-.7 2.7-1.4 3.9z" />
	</symbol>
	<symbol viewBox="-211 374 189 45" id="logo-full">
		<path d="M-206.3 389.6c-3.9-3.7-3.6-6.9-2.2-9.4.4-.8 1-1 1.4-1.7.6-.8.6-1.5.2-1.9-.6-.5-2 .1-2.8 1.5-4.2 7.6 3.4 11.5 3.4 11.5zm55.2 2c1.9-.3 4.1-1 6.1-1.8v.1c.3.8.8 1.1 1.7 1.5 1.7.6 4.6-.1 6.4-1.5 0 0 .1-.1.2-.3l-.3.1c.2-.1.6-.5.6-.6l.1-.1c0-.1 0-.1-.1-.1-.4.2-1 .5-1.3.6 1.1-.5 1.7-1.2 1.9-1.5.1-.2.2-.4 0-.2-.4.4-1.4 1.1-3.1 1.7-1.6.6-3.1.4-3.3-1 1.3-.6 2.4-1.2 3.1-1.6 1.8-1.1 3.4-2.6 3.3-4.2 0-.5-.4-1-1.3-1.1-1.5-.3-3.3.8-5 2.3-1.3 1-2.4 2.8-2.7 4.4-.9.3-1.9.6-2.9.8.4-.5.7-1 1.1-1.6.3-.5 1.1-1.7 2-3.1l.9-1.5 3.6-5.9c.2-.4.3-.6.3-.9 0-.2-.2-1.7-.2-2 0-.3 0-.5-.5.2-.3.5-1.7 2.7-3.4 5.3 0 0-1.2 1.9-1.9 2.9-.1-.3-.3-.5-.6-.6-1.7-.5-4.4.9-5.6 2.1-1.5 1.4-3.6 4-2.9 6 .3 1.8 2.2 1.8 3.8 1.6zm11.8-7.6c.7-.4 1.2-.5 1.2-.2-.1.8-2.2 2.2-3.9 3.2.6-1.7 2.1-2.6 2.7-3zm-12.2 2.1c.5-.6 3.5-3.1 4.2-1.5 0 0-1.3 2.1-2.8 4.2-.4.5-.8 1-2 .8-.5-.1-.7-.4-.7-.9.1-.7.4-1.5 1.3-2.6zm42.2 13c-.5-3.4-5.1-2.2-7.2-.9h-.1c0-.3-.4-.9-1-.9-1.6 0-2.9.8-3.1 1.1-.2.3 0 .6.4.6h.7c-1.2 3.1-9.4 18.6-9.8 19.3-.2.3-.3.5-.3.7.2 0 .6-.1.9-.2l.1-.1c.1-.1.2-.1.2-.2.2-.3 1.3-1.9 1.6-2.3h.1c-.1.3-.3.9-.5 1.3-.1.1-.1.3-.1.4l.5-.7.1.2s0 .1.1 0c.3-.2.5-.4.7-.9.3-.5 2.9-5.2 5.1-9 .1.7.4 1.4 1.2 1.7 1.5.6 3.4-.3 4.7-1.1 1.6-1.1 2.9-2.6 4-4.2 1.2-1.4 2-3 1.7-4.8zm-4.1 2.8c-.6 1.6-2.5 4.2-4.1 4.8-2.4.8-1.5-2-.9-3 1-1.7 2.5-4.2 4.4-4.6 1.4-.3 1 1.8.6 2.8zm91.3-12h-10.8c2.9-5.3 5.7-10.2 5.9-10.6.3-.6.3-.5.2-1l-.5-1.7c-.2-.8-.3-.5-.7.2-.3.5-4.2 7-7.9 13.1-8.9.1-18.8.2-29.5.3.2-.3.8-1.5 1.2-2.4.5-1 1-2.1 1.1-2.4v-.1c-.1 0-.2.1-.3.3-.1.1-.7 1.1-1.3 2.1-.6.9-1.2 1.9-1.5 2.2l1.2-2.4c.4-.8.7-1.6.9-1.9l.2-.6s-.2.3-.4.7c.2-.4.4-1.2.4-1.2l-.1.1-.2.2c.3-1 .5-1.9.5-1.9s0-.1-.1-.1c0 0-.6 1.5-2.1 4.2-1 1.7-1.7 3-1.8 3.3-11 .1-22.6.2-34.6.3-3.9 0-6.7.1-7.5.2l6.2.3c-2.9.1-13.2.3-13.7.3h48.9c-.8 1.4-2.1 3.8-3.4 6.1-.2-.3-.4-.4-.7-.5-2.3-.7-5.7 1.2-7.2 2.8-.9.9-2 2.3-2.6 3.5-.4.6-1.2 2.1-2.5 2.8-1 .6-2.2.5-2.2-.9 0-1.1 2.2-3.8 3.2-5.7.5-1 .8-1.5.8-1.8 0-.4-.2-.6-.5-.8-.4-.3-1-.4-1.7-.2s-3.1 1.5-5.6 3.9c-1 .9-2 1.9-2.8 2.8.9-1.5 1.9-3.3 2.4-4.6.2-.6.4-.9.1-1.3-.2-.3-.8-.5-1.2-.7-.3-.1-.5 0-.7.1-.1.1-.3.3-.9 1-.8 1-2.2 2.3-3.4 3.3.6-1.6.6-3.1-.8-4.1-.9-.7-2.5-.5-3.5-.3-2 .5-3.7 1.9-5 3.3-1.7 1.9-5 6.6-1.6 8.6 2.6 1.5 6.1-.8 7.7-2.6.6-.7 1.5-1.8 2.3-3 1.3-.9 2.6-1.9 3.5-2.8-1.2 2.6-2.7 5.8-2.8 6.3-.2.5-.6 1.7-.6 2.2 0 .6.8.7 1.6.7s1-.3 1.3-.7c.4-.5.9-1.5 4.6-5.2.8-.8 1.5-1.5 2.3-2.1-.7.9-1.4 2-1.6 2.8-1.2 3.9.7 4.6 1.6 4.6.9 0 3-.9 5-3.4-.1.7 0 1.5.3 2.1 1 2.2 3.5 2.2 5.6 1.9 2.1-.3 4.6-1.2 6.8-2.2.1.2.1.3.2.4.7 1.2 1.5 1.8 3.4 1.8s3.7-.8 5.7-2.6c1.2-1 2.3-2.4 3.8-4 .6-.7 1.2-1.4 1.9-2.2-.9 1.6-2.1 3.8-2.7 5.1-.9 2.3-1.4 3.9.5 3.9.6 0 .9-.1 1.1-.3.7-.7 1.5-1.7 2.6-2.7l2.8-2.8c-.3.5-.5.9-.7 1.3-.6 1.8-.6 3-.3 3.6.3.5 1.1 1.1 2.5.4.9-.4 2.8-1.6 5-3.8-.8 1.8-1.2 3.2-1.2 4.9 0 3.3 1.9 3.8 3.8 3.8 3.5 0 6.5-2.6 7.2-3.3.5-.4 1.2-1.4 1.5-1.9.1-.2 0-.1-.1 0-1.2 1.4-2.5 2.2-2.8 2.4.1-.1.3-.3.6-.5.3-.3.5-.4.6-.5l-.4.2-.4.2c.2-.2 1.1-.9 1.8-1.8.4-.5.7-1 1-1.3h-.1c-2.1 2.3-4.9 4.9-7.7 4.9-1.6 0-1.9-1.9-1-4.9.9-2.8 2.9-6.7 5.5-11.4l2.7-4.8h9.4s.4.1 1-.3.9-.8 1.2-1c.4 0 .1-.2.1-.2zm-78.8 12.1c-.8 1.7-2.2 3.8-4 4.6-2.4 1-1.3-2.1-.8-3.2.8-1.6 2.3-3.2 4.3-4 1.6-.7 1 1.4.5 2.6zm21.1 5c-.8-.5-.4-2.8.8-4.4 1.5-2 3.5-3.4 4.5-3.3.8.1.8 1.1.8 1.1s-1.7 2.9-3 4.7c-1.3 1.6-2.3 2.4-3.1 1.9zm38.5-7.9l-.3.5c-2.6 4.1-6.5 7.8-7.3 7.4-.9-.5 0-2.6.4-3.3.4-.7 3.6-5.8 3.7-5.9.1-.2.5-.9.2-1.2 0 0-.1-.2-.8-.6-.7-.4-1.2-.4-1.5-.2-.3.2-1.1 1.1-2.7 2.7-1.3 1.3-2.8 2.7-4.2 4.1.9-1.4 2.2-3.4 2.6-4.1.5-.8.5-1.2.1-1.5s-1-.5-1.5-.5c-.3 0-.6 0-.8.2-.9.8-3 3.3-4.4 4.9-1.6 1.8-3.3 3.3-5.1 4.5-1 .7-2.2 1.2-3.2 1-.7-.1-1.1-.5-1.1-1.3 1.7-.9 3.1-1.7 3.9-2.3 1.5-1 4.1-2.9 3.8-5.1-.1-.5-.3-1.4-1.6-1.6-2-.4-4.3 1.1-6.4 3-1.5 1.3-2.9 3.7-3.3 5.7-1.2.5-2.4.9-3.9 1.1 1.7-2.2 3.3-5.4 4.5-7.7 1.6-3.1 3.4-6.4 4-7.5h29.3c-1.8 3.2-3.5 5.9-4.4 7.7zm-25.4 4.5c1-2.4 3-3.8 3.3-4 .3-.2 1-.4.9 0-.2 1-2.3 2.7-4.2 4zm-59.7 4.8c.8-.7 2.5-2.4 3.1-5.8.5-3-1.2-4.7-1.6-5.1-.4-.3-.9-.2-1.1 0-.4.6-2.3 3.7-7.3 7.6-2.7 2.1-4.8 2.4-5.5 2.4-1.2.1-1.8-1-2-1.6 1.1-.5 2.2-1.1 3.3-1.8 2.5-1.5 4-3 4.2-3.5.6-1.2.2-3.2-1.7-3.5-1.1-.2-2.6.2-4.1 1.2-1.5 1-3.4 3-4.2 4.1-.6.7-1.4 2.1-1.5 3.6-1.6.6-3 1-4 1s-.7-1.1.1-2.3c1.3-2.2 3.1-4.1 5.5-6.9.3-.4.1-.9-.3-1.2-.2-.2-.6-.2-1-.2-1.1 0-2.1.8-2.9 1.3-.8.5-.9.7-2.3.7 0 0 .3-.4.2-.9s-.5-1-1.7-1-2.7 1.5-2.7 2.3c0 .5 0 .8.6 1.3-1.4 1.9-3 3.6-4.8 5-.6.5-1.6 1.2-2.4 1.7-1 .6-2.5.9-3 .5s-.2-1.6 1.1-3.4c.9-1.2 2.8-2.8 3.6-3.5.8-.7 1.8-1.4 1.9-1.8.1-.3.2-.8 0-1.1-.4-.6-1.4-.4-1.9-.3-.9.2-1.3.6-1.8.9-.7.3-1.8.4-2.3.2.6-.4.6-1.5-.3-1.5-.9-.1-2.1.3-3.1 1-.6.4-1.1.9-1.1 1.8 0 .2.1.5.4.8-.3.3-.8.7-1.5 1.3-1.1 1-2.9 2.5-4.1 3.2 0 0 1.9-2.4 2.4-4.6.3-1.3.1-3.6-2.6-3.9-3-.3-4.9 1.7-9.7 5.7-4.6 3.9-15.4 11.4-21.2 7.5-5.8-4-.6-13.1 7.5-20.9 8.1-7.8 16.6-11.1 20.5-9.7 3.9 1.4 3.6 6.9-3.2 10.8-8.7 5.1-18.1 3.6-18.1 3.6s4.9 1.5 10.6.4c6.8-1.3 14.7-5.3 15.7-11.3 1-6-5.9-10.2-20.7-1.2-14.7 9-26.4 25.7-15.5 31.8 7.6 4.3 19.2-4.4 24-8.2-.4 1.6-.2 3.2 1.4 4.1.6.4 1.3.5 2 .5 3.9-.1 7.4-2.9 9.3-4.4 2-1.5 5.1-4.1 5.1-4.1h.2c.3 0 1 0 1.6-.1-1.2 1.2-2.5 2.6-3.4 3.7-2 2.5-2.2 4-.2 4.8.5.2.9.3 2.1.3 2.5 0 5.2-1.5 7.1-2.9 2.3-1.7 4.4-3.9 6.1-6.2l.9.1h1c-.6.7-1.6 1.8-2.2 2.7-1 1.3-1.8 2.4-1.8 3.5s.4 2.6 2.7 2.6c1.3 0 3.4-.8 4.8-1.4.4-.2.9-.4 1.5-.6.2.6.9 1.6 2.8 2.2 2.7.8 6.6-.9 9.4-3.2 2.2-1.8 4.2-4.3 5.1-5.4.4 1 .8 3.1-1 5.4-1.4 1.9-2 1.1-2.2.9-.2-.2-.8-.2-1.1.3-.4.8.2 2.1 1.8 2.1s2.9-.9 3.5-1.4zm-14.1-4.8c.8-1.7 2.1-2.8 3.1-3.5.9-.6 1.2-.5 1.3-.3.1.4.4 1.3-2 2.7l-2.6 1.5c.1-.1.1-.2.2-.4zm-33.7 0c-.8 1.3-1.8 2.4-2.8 3.1-1.1.6-2 .4-2.3-.6-.4-1.3.5-3 1.1-3.9.6-.9 1.5-2.3 3-3 1.6-.7 2.3 0 2.4.5.1 1-.7 2.7-1.4 3.9z" />
	</symbol>
	<symbol viewBox="0 -3 189 48" id="logo-full-en">
		<path fill-rule="evenodd" clip-rule="evenodd" d="M56.9 8.2c-1.1 1.5-2.3 3.2-3.2 4.9-.4.7-.7 1.8-.4 2.7.4.8 1.3.9 1.6.9.4 0 1-.1 1.6-.3.5-.2 1.1-.4 2-1.2.6-.4 2.8-2.3 5.5-4.5-1.1 2-2.7 4.7-2.8 5.2-.1.3 0 .5.2.6.3.1.7.3 1 .3.3 0 .7-.4.9-.7 1.6-2.1 5.3-4.6 5.3-4.6s0 .1-.4.8c-.3.7-1.2 3.3.1 4.2 1.2.9 3.1-.3 4.6-1.2.3.6.8.9 1.6 1.3 1.7.6 4.6-.1 6.4-1.5 0 0 .1-.1.2-.3v-.1l-.2.1c-.5.2-1.1.5-1.1.5s.9-.4 1.3-.9c.2-.2.2-.3.3-.4 0-.1 0-.1-.2 0-.3.2-.5.4-2 .9s-3.2.3-3.6-1c1.3-.7 2.3-1.4 3-1.9 1.8-1.2 3.4-2.7 3.3-4.4 0-.6-.4-1-1.3-1.2-1.5-.3-3.3.9-5 2.4-1.4 1.2-2.6 3.2-2.8 4.9l-.3.1c-.5.3-1.4.6-1.9.7-1.5.2 0-2.8.5-3.6.5-.8.9-1.6 1-1.9.1-.3.2-.7-.1-1.1-.3-.3-.7-.3-1-.2-.2.1-1.9 1-3.3 2-.5.4-1.2.9-1.9 1.4.5-1 1.3-2.3 2-3.7 2.9-2.5 5.6-4.8 6.3-5.6.7-.8 1.5-1.7 1.8-2.3.1-.2.3-.6.3-1s0-.7-.2-.9c-.1-.2-.4-.4-.9-.4-2-.2-4 2-5.1 3.4-1 1.3-3.4 5.7-4.5 7.5-1.6 1.3-3.5 2.8-5.2 3.9-1 .7-1.9 1.5-3.2 2-.6.2-1.1.1-.8-.5.2-.5.8-1.4 1.6-2.7.3-.6 1-1.6 1.6-2.6.9 0 1.7 0 2.7-.1.4 0 .5-.2.8-.6.3-.5.2-.6 0-.6h-2.6c.8-1.2 1.4-2.3 1.4-2.4.1-.1.1-.1.1-.3-.1-.5-.4-1.5-.6-2 0-.1-.1-.1-.2 0-.1.2-1.5 2.2-2.6 3.9-.3.3-.5.6-.7.9-1.9.2-5.1.7-4.9.8.3.1 2.2.3 4 .4zm22 .5c.7-.4 1.3-.5 1.2-.2v.1c-.2.8-2.1 2.4-3.8 3.4l-.3.1c.7-1.9 2.3-3 2.9-3.4zM72.7.2c1.2-1.4 2.1-1.6 2.5-1.4.3.2.1.6-.8 1.6-1 1.1-3.2 3.1-5.1 4.7 1-1.9 2.1-3.4 3.4-4.9zm116.2 14.7h-10.8c2.9-5.4 5.7-10.5 5.9-11 .3-.6.3-.6.2-1-.1-.4-.4-1.3-.5-1.8-.2-.8-.3-.6-.7.2-.3.5-4.2 7.2-7.9 13.6-8.9.1-18.8.2-29.5.3.2-.4.8-1.5 1.2-2.5.5-1 1-2.2 1.1-2.5v-.1c-.1 0-.2.1-.3.3-.1.1-.7 1.1-1.3 2.2-.6 1-1.2 2-1.5 2.3.2-.4.7-1.5 1.2-2.5.4-.8.7-1.6.8-2l.2-.6s-.2.3-.4.7c.2-.4.4-1.2.4-1.2s-.1 0-.1.1l-.2.2c.3-1.1.5-1.9.5-2 0 0 0-.1-.1-.1 0 0-.6 1.6-2.1 4.3-1 1.8-1.7 3.1-1.8 3.4-11 .1-22.6.3-34.6.3-3.9 0-6.7.1-7.5.2l6.2.3s.5 0 0 .1c-2.9.1-13.2.3-13.7.3h48.9c-.8 1.4-2.1 3.9-3.4 6.4-.2-.3-.4-.5-.7-.6-2.3-.7-5.7 1.3-7.2 2.9-.9.9-2 2.4-2.6 3.6-.4.7-1.2 2.2-2.5 2.9-1 .6-2.2.5-2.2-.9 0-1.1 2.2-3.9 3.2-5.9.5-1 .8-1.6.8-1.9 0-.4-.2-.6-.5-.9-.4-.3-1-.4-1.7-.2s-3.1 1.6-5.6 4.1c-1 .9-2 2-2.8 2.9.9-1.6 1.9-3.4 2.4-4.7.2-.7.4-.9.1-1.3-.2-.3-.8-.6-1.2-.7-.3-.1-.5 0-.7.1-.1.1-.3.3-.9 1.1-.8 1-2.2 2.3-3.4 3.4.6-1.6.6-3.2-.8-4.3-.9-.7-2.5-.6-3.5-.3-2 .6-3.7 1.9-5 3.5-1.7 2-5 6.8-1.6 8.9 2.5 1.6 6.1-.8 7.7-2.7.6-.7 1.5-1.9 2.3-3.2 1.3-.9 2.6-2 3.5-2.9-1.2 2.7-2.7 6-2.8 6.5-.2.5-.6 1.7-.6 2.3 0 .6.8.8 1.6.8s1-.3 1.3-.8c.4-.5.9-1.6 4.6-5.4.8-.8 1.5-1.5 2.3-2.1-.7.9-1.4 2-1.6 2.9-1.2 4 .7 4.7 1.6 4.7.9 0 3-.9 5.1-3.5-.1.8 0 1.5.3 2.2 1 2.2 3.5 2.3 5.6 2 2.1-.3 4.6-1.2 6.8-2.3l.2.5c.7 1.3 1.5 1.9 3.4 1.9s3.7-.9 5.7-2.7c1.2-1.1 2.3-2.5 3.8-4.2.6-.7 1.2-1.5 1.9-2.2-.9 1.6-2.1 3.9-2.7 5.3-.9 2.3-1.4 4.1.5 4.1.6 0 .9-.1 1.1-.3.7-.7 1.5-1.7 2.6-2.8.6-.6 1.6-1.7 2.8-2.9-.3.5-.5 1-.7 1.4-.7 1.9-.6 3.1-.3 3.7.3.5 1.1 1.1 2.5.4.9-.4 2.8-1.7 5-3.9-.8 1.9-1.2 3.3-1.2 5.1 0 3.4 1.9 3.9 3.8 3.9 3.5 0 6.5-2.7 7.3-3.5.5-.5 1.2-1.5 1.5-2 .1-.2 0-.1-.1 0-1.2 1.4-2.5 2.3-2.8 2.5l.6-.6c.3-.3.5-.4.6-.5.1-.1 0-.1 0 0-.1.1-.2.1-.4.2s-.3.1-.4.2c.2-.2 1.1-.9 1.8-1.8.4-.5.7-1 1-1.3 0-.1-.1 0-.1 0-2.1 2.4-4.9 5.1-7.7 5.1-1.6 0-1.9-1.9-1-5.1.9-2.9 2.9-6.9 5.5-11.8.8-1.6 1.7-3.3 2.7-5h9.5s.4.1 1-.3.9-.8 1.2-1l-.1-.5zm-78.8 12.5c-.8 1.8-2.2 3.9-4 4.7-2.4 1-1.3-2.2-.8-3.3.8-1.7 2.3-3.3 4.3-4.1 1.6-.7 1 1.5.5 2.7zm21.1 5.1c-.8-.5-.4-2.9.8-4.6 1.5-2.1 3.5-3.5 4.5-3.4.8.1.8 1.2.8 1.2s-1.7 3-3 4.8c-1.3 1.8-2.3 2.6-3.1 2zm38.4-8.1c-.1.2-.2.4-.3.5-2.6 4.2-6.5 8.1-7.3 7.6-.9-.5 0-2.7.4-3.4l3.7-6.2c.1-.2.5-.9.2-1.2 0 0-.1-.2-.8-.6-.7-.5-1.2-.4-1.5-.2-.3.2-1.1 1.2-2.7 2.8-1.3 1.4-2.8 2.8-4.2 4.2.9-1.5 2.2-3.6 2.6-4.3.5-.9.5-1.2.1-1.6-.4-.4-1-.5-1.5-.5-.3 0-.6 0-.8.2-.9.8-3 3.5-4.4 5.1-1.6 1.8-3.3 3.4-5.1 4.7-1 .7-2.2 1.2-3.2 1-.7-.1-1.1-.6-1.1-1.3 1.7-.9 3.1-1.8 3.9-2.4 1.5-1 4.1-3 3.8-5.2-.1-.6-.3-1.4-1.6-1.7-2-.4-4.3 1.2-6.4 3.1-1.5 1.4-2.9 3.8-3.3 5.9-1.2.5-2.4.9-3.9 1.2 1.7-2.3 3.3-5.6 4.5-8 1.6-3.2 3.4-6.6 4-7.8H174c-1.7 3.4-3.4 6.3-4.4 8.1zM144.3 29c1-2.5 3-3.9 3.3-4.1.3-.2 1-.4.9 0-.2 1.1-2.3 2.8-4.2 4.1zm-42.6-4.6c-.5-3.5-5.1-2.3-7.2-.9h-.1c0-.3-.4-.9-1-.9-1.6 0-2.9.9-3.1 1.2-.2.3 0 .6.4.6h.7c-1.2 3.2-9.4 19.3-9.8 20-.2.3-.3.6-.3.7.2 0 .6-.1.9-.2 0 0 .1 0 .1-.1.1-.1.2-.1.2-.2.2-.3 1.3-1.9 1.6-2.4.1-.1.1-.1.1 0-.1.3-.3.9-.5 1.3-.1.1-.1.3-.1.5 0-.1.4-.6.5-.7 0 .1.1.2.1.2s0 .1.1 0c.3-.2.5-.5.7-.9.3-.6 2.9-5.4 5.1-9.3.1.8.4 1.5 1.2 1.8 1.5.6 3.4-.3 4.7-1.2 1.6-1.1 2.9-2.7 4-4.3 1.2-1.7 2-3.3 1.7-5.2zm-4.1 2.9c-.6 1.6-2.5 4.4-4.1 5-2.4.8-1.5-2.1-.9-3.1 1-1.8 2.5-4.3 4.4-4.7 1.3-.5 1 1.8.6 2.8zM2.5 4.8c.5-.8 1-1.1 1.4-1.7.6-.8.6-1.6.2-2-.6-.6-2 .1-2.8 1.6-4.2 7.9 3.4 11.9 3.4 11.9-3.9-3.8-3.6-7.1-2.2-9.8zm83.6 17.9c-.4-.3-.9-.3-1.1 0-.4.6-2.3 3.8-7.3 7.9-2.7 2.2-4.8 2.5-5.5 2.5-1.2.1-1.8-1.1-2-1.7l3.3-1.8c2.5-1.6 4-3.1 4.2-3.6.6-1.3.2-3.4-1.7-3.6-1.1-.2-2.6.2-4.1 1.2-1.5 1-3.4 3.1-4.2 4.2-.6.7-1.4 2.2-1.5 3.7-1.6.6-3 1-4 1.1-1 0-.7-1.2.1-2.4 1.3-2.3 3.1-4.2 5.5-7.1.3-.4.1-.9-.3-1.2-.2-.2-.6-.2-1-.2-1.1 0-2.1.9-2.9 1.3-.8.5-.9.7-2.3.7 0 0 .3-.4.2-.9-.1-.6-.5-1-1.7-1s-2.7 1.6-2.7 2.3c0 .5 0 .9.6 1.3-1.4 2-3 3.7-4.8 5.2-.6.5-1.6 1.2-2.4 1.7-1 .6-2.5 1-3 .6s-.2-1.6 1.1-3.5c.9-1.3 2.8-2.9 3.6-3.7.8-.8 1.8-1.4 1.9-1.9.1-.3.2-.8 0-1.1-.4-.6-1.4-.4-1.9-.3-.9.2-1.3.7-1.8.9-.7.3-1.8.4-2.3.3.6-.4.6-1.5-.3-1.6-.9-.1-2.1.3-3.1 1-.6.4-1.1.9-1.1 1.8 0 .2.1.5.4.8-.3.3-.8.7-1.5 1.4-1.1 1-2.9 2.6-4.1 3.3 0 0 1.9-2.5 2.4-4.7.3-1.4.1-3.8-2.6-4-3-.3-4.9 1.8-9.7 6-4.5 4.1-15.2 11.9-21.1 7.8-5.8-4.1-.6-13.6 7.6-21.7s16.5-11.5 20.4-10c3.9 1.4 3.6 7.1-3.2 11.2-8.7 5.3-18.1 3.7-18.1 3.7s4.9 1.5 10.7.4c6.8-1.3 14.7-5.5 15.7-11.7 1-6.2-5.9-10.5-20.7-1.2C5.1 15.4-6.6 32.6 4.3 39c7.6 4.5 19.2-4.5 24-8.5-.4 1.7-.2 3.3 1.4 4.2.6.4 1.3.5 2 .5 3.9-.1 7.4-3 9.3-4.5 2-1.6 5.1-4.3 5.1-4.3h.2c.3 0 1-.1 1.6-.1-1.2 1.2-2.5 2.7-3.4 3.9-2 2.5-2.2 4.2-.2 5 .5.2.9.3 2.1.3 2.5 0 5.2-1.6 7.1-3 2.3-1.7 4.4-4 6.1-6.4l.9.1s.5 0 1-.1c-.6.7-1.6 1.9-2.2 2.8-1 1.4-1.8 2.5-1.8 3.6s.4 2.7 2.7 2.7c1.3 0 3.4-.8 4.8-1.4.4-.2.9-.4 1.5-.6.2.6.9 1.6 2.8 2.2 2.7.9 6.6-.9 9.4-3.4 2.2-1.8 4.2-4.5 5.1-5.6.4 1.1.8 3.2-1 5.6-1.4 1.9-2 1.2-2.2.9-.2-.3-.8-.2-1.1.3-.4.8.2 2.1 1.8 2.1 1.3 0 2.6-.9 3.2-1.5.8-.7 2.5-2.5 3.1-6.1.7-2.9-1-4.7-1.5-5zm-15.6 6.4c.8-1.7 2.1-2.9 3.1-3.6.9-.6 1.2-.5 1.3-.3.1.4.4 1.3-2 2.8l-2.6 1.6c.1-.2.1-.4.2-.5zm-33.7 0c-.8 1.3-1.8 2.5-2.8 3.2-1.1.7-2 .4-2.3-.6-.4-1.3.5-3.1 1.1-4.1.6-.9 1.5-2.3 3-3.1 1.5-.8 2.3 0 2.4.5.1 1.1-.7 2.8-1.4 4.1z" />
	</symbol>
	<symbol viewBox="0 0 190 46" id="logo-full-red">
		<path d="M5.7 16.6c-3.9-3.7-3.6-6.9-2.2-9.4.4-.8 1-1 1.4-1.7.6-.8.6-1.5.2-1.9-.6-.5-2 .1-2.8 1.5-4.2 7.6 3.4 11.5 3.4 11.5zm55.2 2c1.9-.3 4.1-1 6.1-1.8v.1c.3.8.8 1.1 1.7 1.5 1.7.6 4.6-.1 6.4-1.5 0 0 .1-.1.2-.3l-.3.1c.2-.1.6-.5.6-.6l.1-.1c0-.1 0-.1-.1-.1-.4.2-1 .5-1.3.6 1.1-.5 1.7-1.2 1.9-1.5.1-.2.2-.4 0-.2-.4.4-1.4 1.1-3.1 1.7-1.6.6-3.1.4-3.3-1 1.3-.6 2.4-1.2 3.1-1.6 1.8-1.1 3.4-2.6 3.3-4.2 0-.5-.4-1-1.3-1.1-1.5-.3-3.3.8-5 2.3-1.3 1-2.4 2.8-2.7 4.4-.9.3-1.9.6-2.9.8.4-.5.7-1 1.1-1.6.3-.5 1.1-1.7 2-3.1l.9-1.5L71.9 4c.2-.4.3-.6.3-.9 0-.2-.2-1.7-.2-2 0-.3 0-.5-.5.2-.3.5-1.7 2.7-3.4 5.3 0 0-1.2 1.9-1.9 2.9-.1-.3-.3-.5-.6-.6-1.7-.5-4.4.9-5.6 2.1-1.5 1.4-3.6 4-2.9 6 .3 1.8 2.2 1.8 3.8 1.6zM72.7 11c.7-.4 1.2-.5 1.2-.2-.1.8-2.2 2.2-3.9 3.2.6-1.7 2.1-2.6 2.7-3zm-12.2 2.1c.5-.6 3.5-3.1 4.2-1.5 0 0-1.3 2.1-2.8 4.2-.4.5-.8 1-2 .8-.5-.1-.7-.4-.7-.9.1-.7.4-1.5 1.3-2.6zm42.2 13c-.5-3.4-5.1-2.2-7.2-.9h-.1c0-.3-.4-.9-1-.9-1.6 0-2.9.8-3.1 1.1-.2.3 0 .6.4.6h.7c-1.2 3.1-9.4 18.6-9.8 19.3-.2.3-.3.5-.3.7.2 0 .6-.1.9-.2l.1-.1c.1-.1.2-.1.2-.2.2-.3 1.3-1.9 1.6-2.3h.1c-.1.3-.3.9-.5 1.3-.1.1-.1.3-.1.4l.5-.7.1.2s0 .1.1 0c.3-.2.5-.4.7-.9.3-.5 2.9-5.2 5.1-9 .1.7.4 1.4 1.2 1.7 1.5.6 3.4-.3 4.7-1.1 1.6-1.1 2.9-2.6 4-4.2 1.2-1.4 2-3 1.7-4.8zm-4.1 2.8c-.6 1.6-2.5 4.2-4.1 4.8-2.4.8-1.5-2-.9-3 1-1.7 2.5-4.2 4.4-4.6 1.4-.3 1 1.8.6 2.8zm91.3-12h-10.8c2.9-5.3 5.7-10.2 5.9-10.6.3-.6.3-.5.2-1l-.5-1.7c-.2-.8-.3-.5-.7.2-.3.5-4.2 7-7.9 13.1-8.9.1-18.8.2-29.5.3.2-.3.8-1.5 1.2-2.4.5-1 1-2.1 1.1-2.4v-.1c-.1 0-.2.1-.3.3-.1.1-.7 1.1-1.3 2.1-.6.9-1.2 1.9-1.5 2.2l1.2-2.4c.4-.8.7-1.6.9-1.9l.2-.6s-.2.3-.4.7c.2-.4.4-1.2.4-1.2l-.1.1-.2.2c.3-1 .5-1.9.5-1.9s0-.1-.1-.1c0 0-.6 1.5-2.1 4.2-1 1.7-1.7 3-1.8 3.3-11 .1-22.6.2-34.6.3-3.9 0-6.7.1-7.5.2l6.2.3c-2.9.1-13.2.3-13.7.3h48.9c-.8 1.4-2.1 3.8-3.4 6.1-.2-.3-.4-.4-.7-.5-2.3-.7-5.7 1.2-7.2 2.8-.9.9-2 2.3-2.6 3.5-.4.6-1.2 2.1-2.5 2.8-1 .6-2.2.5-2.2-.9 0-1.1 2.2-3.8 3.2-5.7.5-1 .8-1.5.8-1.8 0-.4-.2-.6-.5-.8-.4-.3-1-.4-1.7-.2s-3.1 1.5-5.6 3.9c-1 .9-2 1.9-2.8 2.8.9-1.5 1.9-3.3 2.4-4.6.2-.6.4-.9.1-1.3-.2-.3-.8-.5-1.2-.7-.3-.1-.5 0-.7.1-.1.1-.3.3-.9 1-.8 1-2.2 2.3-3.4 3.3.6-1.6.6-3.1-.8-4.1-.9-.7-2.5-.5-3.5-.3-2 .5-3.7 1.9-5 3.3-1.7 1.9-5 6.6-1.6 8.6 2.6 1.5 6.1-.8 7.7-2.6.6-.7 1.5-1.8 2.3-3 1.3-.9 2.6-1.9 3.5-2.8-1.2 2.6-2.7 5.8-2.8 6.3-.2.5-.6 1.7-.6 2.2 0 .6.8.7 1.6.7s1-.3 1.3-.7c.4-.5.9-1.5 4.6-5.2.8-.8 1.5-1.5 2.3-2.1-.7.9-1.4 2-1.6 2.8-1.2 3.9.7 4.6 1.6 4.6.9 0 3-.9 5-3.4-.1.7 0 1.5.3 2.1 1 2.2 3.5 2.2 5.6 1.9 2.1-.3 4.6-1.2 6.8-2.2.1.2.1.3.2.4.7 1.2 1.5 1.8 3.4 1.8s3.7-.8 5.7-2.6c1.2-1 2.3-2.4 3.8-4 .6-.7 1.2-1.4 1.9-2.2-.9 1.6-2.1 3.8-2.7 5.1-.9 2.3-1.4 3.9.5 3.9.6 0 .9-.1 1.1-.3.7-.7 1.5-1.7 2.6-2.7l2.8-2.8c-.3.5-.5.9-.7 1.3-.6 1.8-.6 3-.3 3.6.3.5 1.1 1.1 2.5.4.9-.4 2.8-1.6 5-3.8-.8 1.8-1.2 3.2-1.2 4.9 0 3.3 1.9 3.8 3.8 3.8 3.5 0 6.5-2.6 7.2-3.3.5-.4 1.2-1.4 1.5-1.9.1-.2 0-.1-.1 0-1.2 1.4-2.5 2.2-2.8 2.4.1-.1.3-.3.6-.5.3-.3.5-.4.6-.5l-.4.2-.4.2c.2-.2 1.1-.9 1.8-1.8.4-.5.7-1 1-1.3h-.1c-2.1 2.3-4.9 4.9-7.7 4.9-1.6 0-1.9-1.9-1-4.9.9-2.8 2.9-6.7 5.5-11.4l2.7-4.8h9.4s.4.1 1-.3.9-.8 1.2-1c.4 0 .1-.2.1-.2zM111.1 29c-.8 1.7-2.2 3.8-4 4.6-2.4 1-1.3-2.1-.8-3.2.8-1.6 2.3-3.2 4.3-4 1.6-.7 1 1.4.5 2.6zm21.1 5c-.8-.5-.4-2.8.8-4.4 1.5-2 3.5-3.4 4.5-3.3.8.1.8 1.1.8 1.1s-1.7 2.9-3 4.7c-1.3 1.6-2.3 2.4-3.1 1.9zm38.5-7.9l-.3.5c-2.6 4.1-6.5 7.8-7.3 7.4-.9-.5 0-2.6.4-3.3.4-.7 3.6-5.8 3.7-5.9.1-.2.5-.9.2-1.2 0 0-.1-.2-.8-.6-.7-.4-1.2-.4-1.5-.2-.3.2-1.1 1.1-2.7 2.7-1.3 1.3-2.8 2.7-4.2 4.1.9-1.4 2.2-3.4 2.6-4.1.5-.8.5-1.2.1-1.5-.4-.3-1-.5-1.5-.5-.3 0-.6 0-.8.2-.9.8-3 3.3-4.4 4.9-1.6 1.8-3.3 3.3-5.1 4.5-1 .7-2.2 1.2-3.2 1-.7-.1-1.1-.5-1.1-1.3 1.7-.9 3.1-1.7 3.9-2.3 1.5-1 4.1-2.9 3.8-5.1-.1-.5-.3-1.4-1.6-1.6-2-.4-4.3 1.1-6.4 3-1.5 1.3-2.9 3.7-3.3 5.7-1.2.5-2.4.9-3.9 1.1 1.7-2.2 3.3-5.4 4.5-7.7 1.6-3.1 3.4-6.4 4-7.5h29.3c-1.8 3.2-3.5 5.9-4.4 7.7zm-25.4 4.5c1-2.4 3-3.8 3.3-4 .3-.2 1-.4.9 0-.2 1-2.3 2.7-4.2 4zm-59.7 4.8c.8-.7 2.5-2.4 3.1-5.8.5-3-1.2-4.7-1.6-5.1-.4-.3-.9-.2-1.1 0-.4.6-2.3 3.7-7.3 7.6-2.7 2.1-4.8 2.4-5.5 2.4-1.2.1-1.8-1-2-1.6 1.1-.5 2.2-1.1 3.3-1.8 2.5-1.5 4-3 4.2-3.5.6-1.2.2-3.2-1.7-3.5-1.1-.2-2.6.2-4.1 1.2-1.5 1-3.4 3-4.2 4.1-.6.7-1.4 2.1-1.5 3.6-1.6.6-3 1-4 1s-.7-1.1.1-2.3c1.3-2.2 3.1-4.1 5.5-6.9.3-.4.1-.9-.3-1.2-.2-.2-.6-.2-1-.2-1.1 0-2.1.8-2.9 1.3-.8.5-.9.7-2.3.7 0 0 .3-.4.2-.9-.1-.5-.5-1-1.7-1s-2.7 1.5-2.7 2.3c0 .5 0 .8.6 1.3-1.4 1.9-3 3.6-4.8 5-.6.5-1.6 1.2-2.4 1.7-1 .6-2.5.9-3 .5s-.2-1.6 1.1-3.4c.9-1.2 2.8-2.8 3.6-3.5.8-.7 1.8-1.4 1.9-1.8.1-.3.2-.8 0-1.1-.4-.6-1.4-.4-1.9-.3-.9.2-1.3.6-1.8.9-.7.3-1.8.4-2.3.2.6-.4.6-1.5-.3-1.5-.9-.1-2.1.3-3.1 1-.6.4-1.1.9-1.1 1.8 0 .2.1.5.4.8-.3.3-.8.7-1.5 1.3-1.1 1-2.9 2.5-4.1 3.2 0 0 1.9-2.4 2.4-4.6.3-1.3.1-3.6-2.6-3.9-3-.3-4.9 1.7-9.7 5.7-4.6 3.9-15.4 11.4-21.2 7.5-5.8-4-.6-13.1 7.5-20.9C23.9 7.9 32.4 4.6 36.3 6c3.9 1.4 3.6 6.9-3.2 10.8-8.7 5.1-18.1 3.6-18.1 3.6s4.9 1.5 10.6.4c6.8-1.3 14.7-5.3 15.7-11.3 1-6-5.9-10.2-20.7-1.2C5.9 17.3-5.8 34 5.1 40.1c7.6 4.3 19.2-4.4 24-8.2-.4 1.6-.2 3.2 1.4 4.1.6.4 1.3.5 2 .5 3.9-.1 7.4-2.9 9.3-4.4 2-1.5 5.1-4.1 5.1-4.1h.2c.3 0 1 0 1.6-.1-1.2 1.2-2.5 2.6-3.4 3.7-2 2.5-2.2 4-.2 4.8.5.2.9.3 2.1.3 2.5 0 5.2-1.5 7.1-2.9 2.3-1.7 4.4-3.9 6.1-6.2l.9.1h1c-.6.7-1.6 1.8-2.2 2.7-1 1.3-1.8 2.4-1.8 3.5s.4 2.6 2.7 2.6c1.3 0 3.4-.8 4.8-1.4.4-.2.9-.4 1.5-.6.2.6.9 1.6 2.8 2.2 2.7.8 6.6-.9 9.4-3.2 2.2-1.8 4.2-4.3 5.1-5.4.4 1 .8 3.1-1 5.4-1.4 1.9-2 1.1-2.2.9-.2-.2-.8-.2-1.1.3-.4.8.2 2.1 1.8 2.1s2.9-.9 3.5-1.4zm-14.1-4.8c.8-1.7 2.1-2.8 3.1-3.5.9-.6 1.2-.5 1.3-.3.1.4.4 1.3-2 2.7L71.3 31c.1-.1.1-.2.2-.4zm-33.7 0C37 31.9 36 33 35 33.7c-1.1.6-2 .4-2.3-.6-.4-1.3.5-3 1.1-3.9.6-.9 1.5-2.3 3-3 1.6-.7 2.3 0 2.4.5.1 1-.7 2.7-1.4 3.9z" fill="#DF5B57" />
	</symbol>
	<symbol viewBox="0 0 78 75" id="logo-small">
		<path fill-rule="evenodd" clip-rule="evenodd" d="M9.201 26.442C1.672 19.219 2.376 12.938 5.044 7.899c.852-1.609 1.85-2.057 2.745-3.347 1.08-1.561 1.242-2.958.309-3.79C6.91-.295 4.182.929 2.656 3.794c-7.973 14.98 6.545 22.648 6.545 22.648zm28.987-16.228C9.908 27.872-12.946 61.421 8.372 72.812c20.427 10.916 48.851-22.558 48.851-22.558-8.916 7.742-31.555 23.448-42.751 15.628C3.275 58.06 13.328 40.087 28.91 24.749 44.492 9.413 60.708 2.991 68.186 5.667c7.478 2.677 6.87 13.469-6.188 21.253-16.752 9.985-34.647 7.073-34.647 7.073s9.345 2.894 20.355.772C60.678 32.27 75.93 24.303 77.822 12.534 79.716.762 66.473-7.442 38.188 10.214z" />
	</symbol>
	<symbol viewBox="0 0 78 75" id="logo-small-red">
		<path d="M9.201 26.442C1.672 19.219 2.376 12.938 5.044 7.899c.852-1.609 1.85-2.057 2.745-3.347 1.08-1.561 1.242-2.958.309-3.79C6.91-.295 4.182.929 2.656 3.794c-7.973 14.98 6.545 22.648 6.545 22.648zm28.987-16.228C9.908 27.872-12.946 61.421 8.372 72.812c20.427 10.916 48.851-22.558 48.851-22.558-8.916 7.742-31.555 23.448-42.751 15.628C3.275 58.06 13.328 40.087 28.91 24.749 44.492 9.413 60.708 2.991 68.186 5.667c7.478 2.677 6.87 13.469-6.188 21.253-16.752 9.985-34.647 7.073-34.647 7.073s9.345 2.894 20.355.772C60.678 32.27 75.93 24.303 77.822 12.534 79.716.762 66.473-7.442 38.188 10.214z" fill="#DF5B57" />
	</symbol>

	<!-- Services -->
	<symbol viewBox="0 0 24 24" id="instagram">
		<path d="M20.47 10.35H18.6c.11.55.22 1.1.22 1.65 0 3.74-3.08 6.82-6.82 6.82S5.18 15.74 5.18 12c0-.55.11-1.1.22-1.65H3.53v9.35c0 .44.33.88.88.88h15.18c.44 0 .88-.33.88-.88v-9.35zm0-5.94c0-.44-.33-.88-.88-.88h-2.53c-.44 0-.88.33-.88.88v2.53c0 .44.33.88.88.88h2.53c.44 0 .88-.33.88-.88V4.41zM12 7.82c-2.31 0-4.18 1.87-4.18 4.18s1.87 4.18 4.18 4.18 4.18-1.87 4.18-4.18c0-2.31-1.87-4.18-4.18-4.18zM20.47 23H3.53C2.1 23 1 21.9 1 20.47V3.53C1 2.1 2.1 1 3.53 1h16.94C21.9 1 23 2.1 23 3.53v16.94C23 21.9 21.9 23 20.47 23z" />
	</symbol>
	<symbol viewBox="0 0 24 24" id="linkedin">
		<path d="M3.508 1.011c1.398 0 2.497 1.099 2.497 2.497S4.906 6.005 3.507 6.005c-1.398 0-2.498-1.099-2.498-2.498s1.099-2.498 2.498-2.498zM1.011 8.004h4.995v14.985H1.011V8.004zm16.983 0c-1.599 0-3.097.8-3.996 1.998V8.004H9.003v14.985h4.995v-8.991c0-1.1.899-1.998 1.998-1.998s1.998.899 1.998 1.998v8.991h4.995v-9.99c0-2.798-2.198-4.995-4.995-4.995z" />
	</symbol>
	<symbol viewBox="0 0 438.549 438.549" id="github">
		<path d="M409.132 114.573c-19.608-33.596-46.205-60.194-79.798-79.8-33.598-19.607-70.277-29.408-110.063-29.408-39.781 0-76.472 9.804-110.063 29.408-33.596 19.605-60.192 46.204-79.8 79.8C9.803 148.168 0 184.854 0 224.63c0 47.78 13.94 90.745 41.827 128.906 27.884 38.164 63.906 64.572 108.063 79.227 5.14.954 8.945.283 11.419-1.996 2.475-2.282 3.711-5.14 3.711-8.562 0-.571-.049-5.708-.144-15.417a2549.81 2549.81 0 0 1-.144-25.406l-6.567 1.136c-4.187.767-9.469 1.092-15.846 1-6.374-.089-12.991-.757-19.842-1.999-6.854-1.231-13.229-4.086-19.13-8.559-5.898-4.473-10.085-10.328-12.56-17.556l-2.855-6.57c-1.903-4.374-4.899-9.233-8.992-14.559-4.093-5.331-8.232-8.945-12.419-10.848l-1.999-1.431c-1.332-.951-2.568-2.098-3.711-3.429-1.142-1.331-1.997-2.663-2.568-3.997-.572-1.335-.098-2.43 1.427-3.289 1.525-.859 4.281-1.276 8.28-1.276l5.708.853c3.807.763 8.516 3.042 14.133 6.851 5.614 3.806 10.229 8.754 13.846 14.842 4.38 7.806 9.657 13.754 15.846 17.847 6.184 4.093 12.419 6.136 18.699 6.136 6.28 0 11.704-.476 16.274-1.423 4.565-.952 8.848-2.383 12.847-4.285 1.713-12.758 6.377-22.559 13.988-29.41-10.848-1.14-20.601-2.857-29.264-5.14-8.658-2.286-17.605-5.996-26.835-11.14-9.235-5.137-16.896-11.516-22.985-19.126-6.09-7.614-11.088-17.61-14.987-29.979-3.901-12.374-5.852-26.648-5.852-42.826 0-23.035 7.52-42.637 22.557-58.817-7.044-17.318-6.379-36.732 1.997-58.24 5.52-1.715 13.706-.428 24.554 3.853 10.85 4.283 18.794 7.952 23.84 10.994 5.046 3.041 9.089 5.618 12.135 7.708 17.705-4.947 35.976-7.421 54.818-7.421s37.117 2.474 54.823 7.421l10.849-6.849c7.419-4.57 16.18-8.758 26.262-12.565 10.088-3.805 17.802-4.853 23.134-3.138 8.562 21.509 9.325 40.922 2.279 58.24 15.036 16.18 22.559 35.787 22.559 58.817 0 16.178-1.958 30.497-5.853 42.966-3.9 12.471-8.941 22.457-15.125 29.979-6.191 7.521-13.901 13.85-23.131 18.986-9.232 5.14-18.182 8.85-26.84 11.136-8.662 2.286-18.415 4.004-29.263 5.146 9.894 8.562 14.842 22.077 14.842 40.539v60.237c0 3.422 1.19 6.279 3.572 8.562 2.379 2.279 6.136 2.95 11.276 1.995 44.163-14.653 80.185-41.062 108.068-79.226 27.88-38.161 41.825-81.126 41.825-128.906-.01-39.771-9.818-76.454-29.414-110.049z" />
	</symbol>
	<symbol viewBox="0 0 1024 1024" id="googleplus">
		<path d="M841.098 449.39V320.961h-64.215V449.39H648.454v64.215h128.429v128.429h64.215V513.605h128.429V449.39zM529.661 64.108c28.895 32.108 89.9 80.266 89.9 176.59 0 93.11-54.58 141.27-105.953 183.011-16.051 16.051-35.316 35.316-35.316 64.215s19.265 44.95 32.108 54.58l44.95 35.316c54.58 48.159 105.953 89.9 105.953 176.59 0 118.795-115.587 237.591-333.914 237.591-183.011 0-272.909-86.688-272.909-179.798 0-44.95 22.474-109.166 96.323-154.112 77.058-48.159 186.219-54.58 240.805-57.794-19.265-22.474-38.529-48.159-38.529-86.688 0-22.474 6.421-35.316 12.842-48.159l-41.738 3.21c-134.85 0-208.697-99.532-208.697-199.062 0-57.794 25.686-122.008 80.266-170.168 77.058-57.794 163.746-67.424 231.169-67.424H686.99l-80.266 32.108h-77.058zm-89.9 574.713h-28.895c-12.842 0-80.266 3.21-131.639 19.265-28.895 9.63-109.166 41.738-109.166 131.639s86.688 154.112 221.54 154.112c122.008 0 186.219-57.794 186.219-138.061 0-64.215-41.738-99.532-138.061-166.956zm35.316-240.799c28.895-28.895 32.108-70.637 32.108-93.11 0-89.9-54.58-231.169-160.533-231.169-32.108 0-67.424 16.051-89.9 41.738s-28.895 61.003-28.895 93.11c0 83.479 48.159 224.748 157.324 224.748 35.316 0 70.637-16.051 89.9-35.316z" />
	</symbol>
	<symbol viewBox="0 0 448 512" id="rss">
		<path d="M128.081 415.959c0 35.369-28.672 64.041-64.041 64.041S0 451.328 0 415.959s28.672-64.041 64.041-64.041 64.04 28.673 64.04 64.041zm175.66 47.25c-8.354-154.6-132.185-278.587-286.95-286.95C7.656 175.765 0 183.105 0 192.253v48.069c0 8.415 6.49 15.472 14.887 16.018 111.832 7.284 201.473 96.702 208.772 208.772.547 8.397 7.604 14.887 16.018 14.887h48.069c9.149.001 16.489-7.655 15.995-16.79zm144.249.288C439.596 229.677 251.465 40.445 16.503 32.01 7.473 31.686 0 38.981 0 48.016v48.068c0 8.625 6.835 15.645 15.453 15.999 191.179 7.839 344.627 161.316 352.465 352.465.353 8.618 7.373 15.453 15.999 15.453h48.068c9.034-.001 16.329-7.474 16.005-16.504z"></path>
	</symbol>
	<symbol viewBox="0 0 16 16" id="twitter">
		<path d="M16 2.879c-.603.268-1.205.469-1.874.536.669-.402 1.205-1.071 1.473-1.874a6.07 6.07 0 0 1-2.075.803 3.243 3.243 0 0 0-2.41-1.071c-1.808 0-3.28 1.54-3.28 3.347 0 .268 0 .536.067.803-2.745-.134-5.155-1.473-6.828-3.548-.268.469-.469 1.071-.469 1.674 0 1.205.603 2.209 1.473 2.812-.536 0-1.071-.201-1.473-.402v.067c0 1.607 1.138 3.012 2.678 3.347-.268.067-.536.134-.87.134-.201 0-.402 0-.603-.067.402 1.339 1.607 2.343 3.079 2.343a6.363 6.363 0 0 1-4.084 1.473c-.268 0-.536 0-.803-.067 1.473.937 3.213 1.54 5.088 1.54 6.092 0 9.372-5.155 9.372-9.64V4.62a9.845 9.845 0 0 0 1.54-1.741z" />
	</symbol>
	<symbol viewBox="0 0 24 24" id="vimeo">
		<path d="M.244 8.423l.933 1.12s1.866-1.431 2.488-.684c.622.684 2.986 9.206 3.794 10.823.684 1.368 2.613 3.172 4.727 1.928 2.115-1.306 9.082-7.029 10.326-13.747s-8.397-5.349-9.455.56c2.55-1.493 3.919.622 2.613 2.924-1.306 2.364-2.488 3.857-3.11 3.857s-1.12-1.555-1.804-4.292c-.746-2.799-.746-7.9-3.794-7.34C4.038 4.07.244 8.424.244 8.424z" />
	</symbol>
	<symbol viewBox="0 0 16 16" id="whatsapp">
		<path d="M8.149 0C3.866 0 .357 3.509.357 7.792c0 1.487.416 2.855 1.13 4.045L.059 16.001l4.283-1.368c1.13.595 2.379.952 3.747.952 4.283 0 7.792-3.509 7.792-7.792C15.94 3.51 12.431.001 8.149.001zm0 14.275a6.622 6.622 0 0 1-3.569-1.071l-2.498.773.833-2.379a6.483 6.483 0 0 1-1.249-3.807c0-3.569 2.915-6.483 6.483-6.483s6.483 2.915 6.483 6.483c0 3.569-2.915 6.483-6.483 6.483zm3.628-4.699c-.178-.119-1.13-.654-1.309-.714s-.297-.119-.476.059c-.119.178-.535.654-.654.773s-.238.119-.416.059c-.178-.119-.833-.357-1.546-1.071a5.03 5.03 0 0 1-1.071-1.428c-.119-.178 0-.297.119-.416.119-.059.178-.238.297-.357s.119-.178.238-.297c.059-.119.059-.238 0-.357s-.416-1.071-.535-1.487-.297-.357-.416-.357-.238 0-.357-.059c-.119 0-.357.059-.535.238s-.714.654-.773 1.606c-.059.952.654 1.963.714 2.082.119.119 1.309 2.26 3.271 3.152s2.022.595 2.379.595c.357 0 1.19-.416 1.368-.892s.178-.833.178-.952c-.119-.059-.238-.119-.476-.178z" />
	</symbol>
	<symbol viewBox="0 0 24 24" id="youtube">
		<path d="M23.428 6.149s-.275-1.996-.964-2.891c-.964-1.17-1.996-1.17-2.478-1.239C16.544 1.675 12 1.675 12 1.675s-4.544 0-7.986.344c-.482.069-1.515.069-2.478 1.239-.757.895-.964 2.891-.964 2.891s-.275 2.409-.275 4.75v2.203c0 2.409.275 4.75.275 4.75s.275 1.996.964 2.891c.964 1.17 2.203 1.101 2.754 1.239 1.928.275 7.71.344 7.71.344s4.544 0 7.986-.275c.482-.069 1.515-.069 2.478-1.239.757-.895.964-2.891.964-2.891s.275-2.409.275-4.75v-2.203c0-2.409-.275-4.819-.275-4.819zM9.246 16.13V7.869l7.572 4.13-7.572 4.13z" />
	</symbol>
</svg>
