<svg viewBox="0 0 183 161" fill="none" xmlns="http://www.w3.org/2000/svg">
  <path d="M7.81199 8.17125H0.115234V0.474487H23.437V8.17125H15.7402V29.0046H7.81199V8.17125Z"
    fill="#F4ECDD" />
  <path
    d="M27.731 0.474487H49.0157V7.48838H35.6476V11.1111H47.8814V17.905H35.6476V21.9791H49.4671V29.0046H27.731V0.474487Z"
    fill="#F4ECDD" />
  <path
    d="M61.8166 18.5879L52.0713 0.474487H60.6824L65.6592 10.6597H65.8907L70.8676 0.474487H79.4787L69.7333 18.5879V29.0046H61.8166V18.5879Z"
    fill="#F4ECDD" />
  <path d="M82.4532 0.474487H90.3814V21.2962H102.835V29.0046H82.4532V0.474487Z" fill="#F4ECDD" />
  <path
    d="M106.678 0.474487H127.962V7.48838H114.606V11.1111H126.84V17.905H114.606V21.9791H128.414V29.0046H106.678V0.474487Z"
    fill="#F4ECDD" />
  <path
    d="M145.416 12.6967C146.319 12.6967 147.037 12.4537 147.569 11.9675C148.101 11.4814 148.368 10.8912 148.368 10.1967C148.368 9.50227 148.101 8.91199 147.569 8.42587C147.037 7.93976 146.319 7.69671 145.416 7.69671H141.342V12.6736H145.416V12.6967ZM133.414 0.474487H145.868C147.442 0.474487 148.877 0.729119 150.196 1.2268C151.504 1.72449 152.627 2.41893 153.564 3.31014C154.502 4.20134 155.231 5.23143 155.74 6.41199C156.25 7.59254 156.504 8.85412 156.504 10.2199C156.504 11.6666 156.238 12.8819 155.717 13.8657C155.196 14.8495 154.629 15.6597 154.016 16.2847C153.263 17.037 152.43 17.662 151.527 18.1365L157.87 29.0046H149.039C148.622 28.2523 148.136 27.3611 147.615 26.331C147.094 25.3009 146.562 24.3055 146.053 23.3449C145.474 22.2337 144.895 21.0995 144.282 19.9421H141.342V29.0046H133.414V0.474487Z"
    fill="#F4ECDD" />
  <path
    d="M171.226 29.456C169.479 29.456 167.893 29.2014 166.493 28.7037C165.092 28.206 163.9 27.5116 162.939 26.6204C161.979 25.7292 161.226 24.6991 160.694 23.5185C160.173 22.338 159.907 21.0764 159.907 19.7106L167.604 19.0278C167.604 19.9306 167.905 20.6944 168.506 21.2963C169.108 21.8981 169.861 22.1991 170.775 22.1991C171.805 22.1991 172.546 21.9676 173.02 21.5162C173.483 21.0648 173.726 20.6134 173.726 20.162C173.726 19.5833 173.391 19.1319 172.731 18.8079C172.071 18.4722 171.238 18.1481 170.266 17.8356C169.282 17.5231 168.217 17.1528 167.048 16.7477C165.891 16.3426 164.814 15.7986 163.831 15.1157C162.847 14.4329 162.025 13.5648 161.365 12.4884C160.706 11.412 160.37 10.0463 160.37 8.3912C160.37 7.26852 160.601 6.20371 161.076 5.17361C161.539 4.14352 162.222 3.25231 163.113 2.5C164.004 1.74769 165.104 1.14583 166.4 0.682871C167.696 0.231482 169.155 0 170.787 0C172.418 0 174.004 0.254631 175.381 0.752317C176.759 1.25 177.928 1.93287 178.888 2.78935C179.849 3.64583 180.59 4.66435 181.111 5.82176C181.62 6.97917 181.874 8.21759 181.874 9.51389L174.178 10.1968C174.178 9.29398 173.888 8.57639 173.298 8.04398C172.708 7.51157 172.025 7.25694 171.238 7.25694C170.543 7.25694 169.988 7.44213 169.583 7.82408C169.178 8.20602 168.969 8.62269 168.969 9.07407C168.969 9.65278 169.305 10.0926 169.965 10.4051C170.624 10.7176 171.446 11.0301 172.43 11.331C173.414 11.6319 174.479 11.9676 175.648 12.3495C176.805 12.7315 177.881 13.2523 178.865 13.9352C179.849 14.6181 180.671 15.4861 181.331 16.5394C181.99 17.5926 182.326 18.9583 182.326 20.6134C182.326 21.7593 182.071 22.8588 181.562 23.9236C181.041 24.9769 180.312 25.9144 179.34 26.7361C178.368 27.5463 177.199 28.206 175.833 28.7037C174.456 29.2014 172.928 29.456 171.238 29.456"
    fill="#F4ECDD" />
  <path
    d="M37.3837 59.074C37.1986 58.1018 37.106 57.0602 37.106 55.9491V47.6041C37.106 45.1273 36.4347 43.2407 35.1037 41.9328C33.7726 40.6366 32.0481 39.9884 29.9416 39.9884C28.0782 39.9884 26.481 40.4745 25.1268 41.4583C24.0504 42.2453 23.1013 43.2754 22.2912 44.5254C21.9555 43.4953 21.4462 42.6273 20.7287 41.9328C19.3976 40.6366 17.6731 39.9884 15.5666 39.9884C13.7032 39.9884 12.0944 40.4977 10.7287 41.5046C9.77958 42.2106 8.95782 43.0787 8.21708 44.1088V40.2662H0.311989V40.4514L0.450876 40.9953C0.763376 42.2685 1.01801 43.3796 1.21477 44.3287C1.41152 45.2778 1.51569 46.3194 1.51569 47.4305V55.9606C1.51569 57.0833 1.41152 58.125 1.21477 59.0856C1.01801 60.0578 0.751802 61.1574 0.450876 62.3958L0.311989 62.9398V63.125H9.42078V62.9398L9.2819 62.3958C8.94625 61.1574 8.68004 60.0578 8.49486 59.0856C8.30967 58.1134 8.21708 57.0717 8.21708 55.9606V45.4861C8.62217 45.2083 9.03884 44.9768 9.44393 44.7801C10.2078 44.4328 10.9717 44.2592 11.7472 44.2592C12.9509 44.2592 13.9694 44.618 14.7912 45.3241C15.6129 46.0301 16.018 47.1065 16.018 48.5185V55.9606C16.018 57.0833 15.9254 58.125 15.7402 59.0856C15.555 60.0578 15.2888 61.1574 14.9532 62.3958L14.8143 62.9398V63.125H23.9694V62.9398L23.7842 62.3958C23.4717 61.1574 23.2171 60.0578 23.0203 59.0856C22.8236 58.1134 22.7194 57.0717 22.7194 55.9606V47.6157C22.7194 46.8634 22.65 46.1805 22.5342 45.5324C23.0203 45.2199 23.4949 44.9537 23.9347 44.7569C24.6754 44.4213 25.4046 44.2592 26.1222 44.2592C27.3259 44.2592 28.3328 44.618 29.143 45.3241C29.9532 46.0301 30.3467 47.1065 30.3467 48.5185V55.9606C30.3467 57.0833 30.2541 58.125 30.0689 59.0856C29.8837 60.0578 29.6407 61.1574 29.3282 62.3958L29.143 62.9398V63.125H38.2981V62.9398L38.1592 62.3958C37.8236 61.1574 37.5574 60.0578 37.3722 59.0856L37.3837 59.074Z"
    fill="#F4ECDD" />
  <path
    d="M64.7101 59.0741C64.5018 58.1018 64.4092 57.0602 64.4092 55.9491V40.2546H56.4578V40.4398L56.5967 40.9838C56.9092 42.2569 57.1638 43.368 57.3606 44.3171C57.5574 45.2662 57.6615 46.3079 57.6615 47.419V56.5393C57.6615 57.0023 57.6962 57.4421 57.731 57.8819C56.1916 58.8194 54.7796 59.3055 53.518 59.3055C52.3375 59.3055 51.3768 58.9583 50.6361 58.2639C49.8953 57.5694 49.525 56.4815 49.525 55V40.2662H41.5273V40.4514L41.6662 40.9953C42.0018 42.2685 42.268 43.3796 42.4532 44.3287C42.6384 45.2778 42.731 46.3194 42.731 47.4305V55.9143C42.731 58.368 43.4601 60.243 44.9185 61.5625C46.3768 62.8819 48.2055 63.5301 50.4046 63.5301C52.268 63.5301 53.8421 63.0671 55.15 62.1296C56.2032 61.3657 57.1175 60.3588 57.9046 59.1319C57.9509 59.3634 57.974 59.618 58.0319 59.8379C58.275 60.8565 58.6222 61.8518 59.0504 62.8588L59.1893 63.1366H65.6476V62.9514L65.4625 62.4074C65.15 61.169 64.8953 60.0694 64.6986 59.0972L64.7101 59.0741Z"
    fill="#F4ECDD" />
  <path
    d="M81.3652 48.5069L80.8907 48.368C79.4671 47.8819 78.3675 47.4884 77.5921 47.1643C76.8166 46.8518 76.2032 46.4583 75.7402 46.0069C75.2773 45.5555 75.0574 45.0115 75.0574 44.375C75.0574 43.5532 75.393 42.9282 76.0759 42.4884C76.7588 42.0486 77.5689 41.8287 78.518 41.8287C79.9995 41.8287 81.4347 42.3264 82.812 43.3217C84.1893 44.3171 85.7287 45.7407 87.43 47.581L87.5689 47.7199H87.7541V41.6435C84.9763 40.5208 82.1175 39.9652 79.1777 39.9652C76.2379 39.9652 73.8074 40.5902 71.9902 41.8287C70.1731 43.0671 69.2587 44.7569 69.2587 46.9097C69.2587 48.0902 69.5481 49.1435 70.1384 50.0578C70.7287 50.9838 71.5736 51.7939 72.6731 52.4884C73.7842 53.1828 75.1963 53.831 76.9439 54.4328L77.1291 54.5254L77.8351 54.7569C79.8606 55.4514 81.2726 56.0648 82.0828 56.5972C82.893 57.1296 83.2865 57.8472 83.2865 58.75C83.2865 59.6527 82.9393 60.3472 82.2449 60.8333C81.5504 61.3194 80.6939 61.5625 79.687 61.5625C78.356 61.5625 77.0597 61.1342 75.7981 60.2893C74.5365 59.4444 73.1013 58.2176 71.481 56.6203C70.8444 55.9838 70.3699 55.5324 70.0574 55.2546H69.8722V61.6088C73.2518 62.8819 76.3884 63.5185 79.2588 63.5185C80.9601 63.5185 82.5458 63.2523 84.0041 62.7199C85.4625 62.1875 86.6314 61.3657 87.5111 60.243C88.3907 59.1203 88.8421 57.7199 88.8421 56.0301C88.8421 54.3402 88.2749 52.8472 87.1291 51.6551C85.9949 50.4629 84.062 49.4097 81.3421 48.5069H81.3652Z"
    fill="#F4ECDD" />
  <path
    d="M112.87 45.6481C112.141 43.9583 110.983 42.581 109.374 41.5393C107.766 40.4977 105.752 39.9768 103.31 39.9768C101.03 39.9768 98.9925 40.4514 97.2217 41.4004C95.4509 42.3495 94.062 43.7153 93.0782 45.4861C92.0944 47.2569 91.5967 49.3287 91.5967 51.7245C91.5967 54.2592 92.1407 56.4236 93.2402 58.206C94.3398 59.9884 95.7749 61.331 97.5689 62.2222C99.3629 63.1134 101.238 63.5648 103.217 63.5648C105.011 63.5648 106.608 63.2291 108.032 62.5694C109.455 61.9097 110.636 61.0417 111.597 59.9884C112.557 58.9352 113.252 57.8241 113.68 56.6782L113.495 56.5856C112.164 57.5231 110.937 58.1944 109.814 58.5995C108.692 59.0046 107.511 59.213 106.273 59.213C104.571 59.213 103.182 58.7963 102.106 57.9629C101.03 57.1296 100.231 55.9954 99.7217 54.537C99.3745 53.5417 99.143 52.419 99.0157 51.1805H113.958C113.958 49.1898 113.599 47.338 112.87 45.6481ZM98.9462 50.0926C98.9462 49.8727 98.9231 49.6528 98.9115 49.4213C98.8768 47.2801 99.2124 45.4629 99.9069 44.0046C100.601 42.5347 101.701 41.8055 103.217 41.8055C104.641 41.8055 105.659 42.4421 106.273 43.7153C106.886 44.9884 107.21 46.6667 107.245 48.75L98.9462 50.1042V50.0926Z"
    fill="#F4ECDD" />
  <path
    d="M139.432 59.0741C139.236 58.1018 139.131 57.0602 139.131 55.9491V40.2546H131.18V40.4398L131.319 40.9838C131.631 42.2569 131.886 43.368 132.083 44.3171C132.28 45.2662 132.384 46.3079 132.384 47.419V56.5393C132.384 57.0023 132.418 57.4421 132.453 57.8819C130.914 58.8194 129.502 59.3055 128.24 59.3055C127.06 59.3055 126.099 58.9583 125.358 58.2639C124.618 57.5694 124.247 56.4815 124.247 55V40.2662H116.249V40.4514L116.388 40.9953C116.724 42.2685 116.99 43.3796 117.175 44.3287C117.361 45.2778 117.453 46.3194 117.453 47.4305V55.9143C117.453 58.368 118.182 60.243 119.641 61.5625C121.099 62.8819 122.928 63.5301 125.127 63.5301C126.99 63.5301 128.564 63.0671 129.872 62.1296C130.925 61.3657 131.84 60.3588 132.627 59.1319C132.673 59.3634 132.696 59.618 132.754 59.8379C132.997 60.8565 133.344 61.8518 133.773 62.8588L133.912 63.1366H140.37V62.9514L140.185 62.4074C139.872 61.169 139.618 60.0694 139.421 59.0972L139.432 59.0741Z"
    fill="#F4ECDD" />
  <path
    d="M181.793 62.3842C181.458 61.1458 181.192 60.0463 181.006 59.074C180.821 58.1018 180.729 57.0602 180.729 55.9491V47.6041C180.729 45.1273 180.057 43.2407 178.726 41.9328C177.395 40.6366 175.671 39.9884 173.564 39.9884C171.701 39.9884 170.104 40.4745 168.749 41.4583C167.662 42.2453 166.724 43.2754 165.914 44.5254C165.578 43.4953 165.069 42.6273 164.351 41.9328C163.02 40.6366 161.296 39.9884 159.189 39.9884C157.326 39.9884 155.717 40.4977 154.351 41.5046C153.402 42.2106 152.58 43.0787 151.84 44.1088V40.2662H143.935V40.4514L144.074 40.9953C144.386 42.2685 144.641 43.3796 144.837 44.3287C145.034 45.2778 145.138 46.3194 145.138 47.4305V55.9606C145.138 57.0833 145.034 58.125 144.837 59.0856C144.641 60.0578 144.374 61.1574 144.074 62.3958L143.935 62.9398V63.125H153.043V62.9398L152.905 62.3958C152.569 61.1574 152.303 60.0578 152.118 59.0856C151.932 58.1134 151.84 57.0717 151.84 55.9606V45.4861C152.245 45.2083 152.662 44.9768 153.067 44.7801C153.83 44.4328 154.594 44.2592 155.37 44.2592C156.574 44.2592 157.592 44.618 158.414 45.3241C159.236 46.0301 159.641 47.1065 159.641 48.5185V55.9606C159.641 57.0833 159.548 58.125 159.363 59.0856C159.178 60.0578 158.912 61.1574 158.576 62.3958L158.437 62.9398V63.125H167.592V62.9398L167.407 62.3958C167.094 61.1574 166.84 60.0578 166.643 59.0856C166.446 58.1134 166.342 57.0717 166.342 55.9606V47.6157C166.342 46.8634 166.273 46.1805 166.157 45.5324C166.643 45.2199 167.118 44.9537 167.557 44.7569C168.298 44.4213 169.027 44.2592 169.745 44.2592C170.949 44.2592 171.955 44.618 172.766 45.3241C173.576 46.0301 173.969 47.1065 173.969 48.5185V55.9606C173.969 57.0833 173.877 58.125 173.692 59.0856C173.506 60.0578 173.263 61.1574 172.951 62.3958L172.766 62.9398V63.125H181.921V62.9398L181.782 62.3958L181.793 62.3842Z"
    fill="#F4ECDD" />
  <path d="M182.094 78.9585H0.277344V80.8566H182.094V78.9585Z" fill="#F4ECDD" />
  <path
    d="M9.61806 116.563C8.29861 116.563 7.04861 116.308 5.87963 115.799C4.71065 115.289 3.69213 114.595 2.82407 113.692C1.95602 112.789 1.27315 111.748 0.763889 110.544C0.254629 109.352 0 108.044 0 106.644C0 105.243 0.254629 103.97 0.763889 102.755C1.27315 101.551 1.95602 100.498 2.82407 99.595C3.69213 98.6922 4.71065 97.9978 5.87963 97.4885C7.04861 96.9792 8.28704 96.7246 9.61806 96.7246C10.9375 96.7246 12.1875 96.9792 13.3565 97.4885C14.5255 97.9978 15.544 98.6922 16.412 99.595C17.2801 100.498 17.963 101.551 18.4722 102.755C18.9815 103.958 19.2361 105.255 19.2361 106.644C19.2361 108.044 18.9815 109.352 18.4722 110.544C17.963 111.736 17.2801 112.789 16.412 113.692C15.544 114.595 14.5255 115.289 13.3565 115.799C12.1875 116.308 10.9491 116.563 9.61806 116.563ZM9.61806 112.222C10.3241 112.222 10.9838 112.083 11.5972 111.806C12.2222 111.528 12.7546 111.134 13.2292 110.648C13.7037 110.162 14.0625 109.56 14.3287 108.877C14.5949 108.195 14.7338 107.454 14.7338 106.644C14.7338 105.833 14.5949 105.093 14.3287 104.41C14.0625 103.727 13.6921 103.137 13.2292 102.639C12.7662 102.141 12.2222 101.759 11.5972 101.482C10.9722 101.204 10.3125 101.065 9.61806 101.065C8.92361 101.065 8.25231 101.204 7.63889 101.482C7.01389 101.759 6.48148 102.141 6.00694 102.639C5.54398 103.137 5.17361 103.727 4.9074 104.41C4.6412 105.093 4.50231 105.833 4.50231 106.644C4.50231 107.454 4.6412 108.195 4.9074 108.877C5.17361 109.56 5.54398 110.151 6.00694 110.648C6.46991 111.146 7.01389 111.528 7.63889 111.806C8.26389 112.083 8.92361 112.222 9.61806 112.222Z"
    fill="#F4ECDD" />
  <path
    d="M38.4259 116.563C37.2338 116.563 36.1343 116.366 35.1389 115.972C34.1435 115.579 33.2986 115.035 32.5926 114.329C31.8866 113.623 31.3426 112.778 30.9491 111.794C30.5556 110.799 30.3588 109.711 30.3588 108.507V96.8867H34.8495V108.507C34.8495 109.688 35.1736 110.602 35.8102 111.25C36.4468 111.898 37.3148 112.222 38.4143 112.222C39.5139 112.222 40.3819 111.898 41.0185 111.25C41.6551 110.602 41.9792 109.688 41.9792 108.507V96.8867H46.4699V108.507C46.4699 109.699 46.2731 110.799 45.8796 111.794C45.4861 112.789 44.9421 113.634 44.2361 114.329C43.5301 115.035 42.6852 115.579 41.6898 115.972C40.6944 116.366 39.6065 116.563 38.4028 116.563H38.4259Z"
    fill="#F4ECDD" />
  <path
    d="M59.1782 96.8867H65.8449C67.2106 96.8867 68.4838 97.1413 69.6528 97.6506C70.8333 98.1598 71.8634 98.8543 72.7546 99.7455C73.6458 100.637 74.3403 101.667 74.8495 102.847C75.3588 104.028 75.6134 105.289 75.6134 106.655C75.6134 108.021 75.3588 109.294 74.8495 110.463C74.3403 111.644 73.6458 112.674 72.7546 113.565C71.8634 114.456 70.8333 115.151 69.6528 115.66C68.4722 116.169 67.2106 116.424 65.8449 116.424H59.1782V96.9098V96.8867ZM65.8449 112.072C66.5856 112.072 67.2801 111.933 67.9167 111.655C68.5532 111.377 69.1088 110.995 69.5949 110.521C70.0694 110.046 70.4398 109.479 70.706 108.82C70.9722 108.16 71.1111 107.431 71.1111 106.655C71.1111 105.891 70.9722 105.174 70.706 104.502C70.4398 103.831 70.0694 103.252 69.5949 102.778C69.1204 102.303 68.5648 101.921 67.9167 101.644C67.2801 101.366 66.5856 101.227 65.8449 101.227H63.6806V112.072H65.8449Z"
    fill="#F4ECDD" />
  <path
    d="M93.4375 116.563C92.3264 116.563 91.3194 116.412 90.4282 116.1C89.537 115.787 88.7963 115.347 88.1829 114.78C87.5695 114.213 87.1065 113.542 86.794 112.766C86.4699 111.991 86.3195 111.134 86.3195 110.208L90.6597 109.896C90.6597 111.655 91.5856 112.535 93.4491 112.535C94.3171 112.535 94.9769 112.338 95.4167 111.933C95.8565 111.528 96.088 111.065 96.088 110.521C96.088 110.023 95.8449 109.641 95.3704 109.375C94.8958 109.109 94.3056 108.854 93.588 108.634C92.8704 108.414 92.1065 108.171 91.2847 107.917C90.463 107.674 89.6875 107.326 88.9815 106.875C88.2639 106.435 87.6736 105.845 87.1991 105.127C86.7245 104.41 86.4815 103.461 86.4815 102.303C86.4815 101.563 86.6435 100.857 86.956 100.185C87.2801 99.514 87.7315 98.9237 88.3333 98.4144C88.9352 97.9052 89.6644 97.5001 90.5208 97.1876C91.3773 96.8751 92.3495 96.7246 93.4491 96.7246C94.5023 96.7246 95.4514 96.8751 96.2847 97.1876C97.1181 97.5001 97.8357 97.9283 98.4259 98.4839C99.0162 99.0394 99.4676 99.6991 99.7917 100.451C100.116 101.204 100.266 102.026 100.266 102.917L95.9259 103.229C95.9259 102.442 95.706 101.829 95.2778 101.401C94.8495 100.961 94.2361 100.752 93.4491 100.752C92.7431 100.752 92.1875 100.938 91.7593 101.32C91.331 101.701 91.1227 102.13 91.1227 102.604C91.1227 103.079 91.3542 103.438 91.8403 103.692C92.3148 103.935 92.9051 104.167 93.6227 104.387C94.3403 104.607 95.1042 104.838 95.9259 105.081C96.7477 105.324 97.5232 105.683 98.2292 106.134C98.9468 106.586 99.537 107.188 100.012 107.928C100.486 108.669 100.729 109.63 100.729 110.81C100.729 111.597 100.567 112.338 100.255 113.021C99.9306 113.715 99.4676 114.317 98.8426 114.838C98.2176 115.359 97.4537 115.764 96.5509 116.076C95.6366 116.389 94.6065 116.539 93.4491 116.539L93.4375 116.563Z"
    fill="#F4ECDD" />
  <path d="M116.366 101.227H110.787V96.8867H126.435V101.227H120.856V116.412H116.366V101.227Z"
    fill="#F4ECDD" />
  <path
    d="M138.183 96.8867H152.13V101.227H142.685V104.329H151.366V108.669H142.685V112.083H152.442V116.424H138.194V96.9098L138.183 96.8867Z"
    fill="#F4ECDD" />
  <path
    d="M26.2847 124.56H30.2778L36.5856 138.241L42.8935 124.56H46.8866V143.935H42.4306V134.248L37.9745 143.935H35.2083L30.7523 134.248V143.935H26.2963V124.56H26.2847Z"
    fill="#F4ECDD" />
  <path
    d="M65.544 144.086C64.3518 144.086 63.2639 143.889 62.2801 143.495C61.2963 143.102 60.4514 142.558 59.7569 141.863C59.0625 141.169 58.5185 140.324 58.125 139.34C57.7315 138.357 57.5347 137.269 57.5347 136.076V124.549H61.9907V136.076C61.9907 137.245 62.3032 138.148 62.9398 138.796C63.5764 139.445 64.4329 139.769 65.5208 139.769C66.6088 139.769 67.4653 139.445 68.1018 138.796C68.7384 138.148 69.0509 137.245 69.0509 136.076V124.549H73.5069V136.076C73.5069 137.269 73.3102 138.357 72.9282 139.34C72.5347 140.324 71.9907 141.169 71.2963 141.863C70.6019 142.558 69.7569 143.102 68.7731 143.495C67.7893 143.889 66.7014 144.086 65.5093 144.086H65.544Z"
    fill="#F4ECDD" />
  <path
    d="M91.5972 144.086C90.4861 144.086 89.4907 143.935 88.6111 143.623C87.7315 143.31 86.9907 142.882 86.3773 142.315C85.7755 141.748 85.3125 141.088 84.9884 140.313C84.6759 139.537 84.5139 138.692 84.5139 137.778L88.8194 137.465C88.8194 139.213 89.7454 140.081 91.5856 140.081C92.4421 140.081 93.1019 139.884 93.5417 139.479C93.9815 139.074 94.2014 138.611 94.2014 138.079C94.2014 137.546 93.9699 137.211 93.4954 136.945C93.0208 136.678 92.4306 136.435 91.7245 136.204C91.0185 135.972 90.2546 135.741 89.4329 135.498C88.6111 135.255 87.8472 134.907 87.1412 134.468C86.4352 134.028 85.8449 133.449 85.3704 132.732C84.8958 132.014 84.6644 131.088 84.6644 129.931C84.6644 129.19 84.8264 128.495 85.1389 127.824C85.4514 127.164 85.9143 126.574 86.5046 126.076C87.0949 125.579 87.8241 125.174 88.669 124.861C89.5255 124.549 90.4861 124.398 91.5741 124.398C92.6157 124.398 93.5532 124.549 94.3866 124.861C95.2199 125.174 95.9259 125.602 96.5046 126.157C97.0833 126.713 97.5347 127.361 97.8588 128.113C98.1713 128.866 98.3333 129.676 98.3333 130.556L94.0278 130.868C94.0278 130.093 93.8079 129.479 93.3796 129.051C92.9514 128.623 92.3495 128.403 91.5625 128.403C90.8681 128.403 90.3009 128.588 89.8843 128.97C89.4676 129.352 89.2593 129.78 89.2593 130.243C89.2593 130.718 89.4907 131.076 89.9653 131.32C90.4398 131.563 91.0301 131.794 91.7361 132.014C92.4421 132.234 93.206 132.465 94.0278 132.708C94.8495 132.951 95.6134 133.299 96.3194 133.75C97.0255 134.201 97.6157 134.792 98.0903 135.532C98.5648 136.273 98.7963 137.222 98.7963 138.391C98.7963 139.167 98.6343 139.907 98.3218 140.59C97.9977 141.273 97.5347 141.875 96.9213 142.396C96.3079 142.917 95.544 143.322 94.6412 143.623C93.7384 143.935 92.7083 144.086 91.5625 144.086H91.5972Z"
    fill="#F4ECDD" />
  <path
    d="M109.699 124.56H123.542V128.866H114.167V131.945H122.778V136.25H114.167V139.63H123.854V143.935H109.711V124.56H109.699Z"
    fill="#F4ECDD" />
  <path
    d="M143.472 144.086C142.28 144.086 141.192 143.889 140.208 143.495C139.225 143.102 138.38 142.558 137.685 141.863C136.991 141.169 136.447 140.324 136.053 139.34C135.66 138.357 135.463 137.269 135.463 136.076V124.549H139.919V136.076C139.919 137.245 140.231 138.148 140.868 138.796C141.505 139.445 142.361 139.769 143.449 139.769C144.537 139.769 145.394 139.445 146.03 138.796C146.667 138.148 146.979 137.245 146.979 136.076V124.549H151.435V136.076C151.435 137.269 151.238 138.357 150.856 139.34C150.463 140.324 149.919 141.169 149.225 141.863C148.53 142.558 147.685 143.102 146.701 143.495C145.718 143.889 144.63 144.086 143.438 144.086H143.472Z"
    fill="#F4ECDD" />
  <path
    d="M161.493 124.56H165.486L171.794 138.241L178.102 124.56H182.095V143.935H177.639V134.248L173.183 143.935H170.417L165.961 134.248V143.935H161.505V124.56H161.493Z"
    fill="#F4ECDD" />
  <path
    d="M170.336 106.539L167.951 102.396H172.731L175.023 98.426L177.315 102.396H182.095L179.711 106.539L182.095 110.671H177.315L175.023 114.653L172.731 110.671H167.951L170.336 106.539Z"
    fill="#91B37E" />
  <path
    d="M2.66203 134.248L0.277775 130.104H5.04629L7.34953 126.134L9.6412 130.104H14.4213L12.0255 134.248L14.4213 138.38H9.6412L7.34953 142.35L5.04629 138.38H0.277775L2.66203 134.248Z"
    fill="#91B37E" />
  <path
    d="M0.277775 152.072H2.32639L4.24768 158.032L6.16898 152.072H8.21759L5.27778 160.695H3.22916L0.289349 152.072H0.277775Z"
    fill="#F4ECDD" />
  <path
    d="M16.9097 152.072H18.9583L22.037 160.695H19.9884L19.4444 159.051H16.4352L15.8912 160.695H13.8426L16.9213 152.072H16.9097ZM18.9005 157.338L17.9398 154.468L16.9792 157.338H18.9005Z"
    fill="#F4ECDD" />
  <path
    d="M29.0972 152.072H30.8796L34.375 157.141V152.072H36.3657V160.695H34.5833L31.088 155.625V160.695H29.0972V152.072Z"
    fill="#F4ECDD" />
  <path
    d="M60.4514 152.072H62.2338L65.7292 157.141V152.072H67.7199V160.695H65.9375L62.4421 155.625V160.695H60.4514V152.072Z"
    fill="#F4ECDD" />
  <path
    d="M75.6481 152.072H81.8056V153.993H77.6273V155.359H81.4583V157.28H77.6273V158.785H81.9444V160.706H75.6481V152.083V152.072Z"
    fill="#F4ECDD" />
  <path
    d="M89.6065 152.072H92.5463C93.1482 152.072 93.7153 152.188 94.2245 152.407C94.7454 152.627 95.1968 152.94 95.5903 153.333C95.9838 153.727 96.2963 154.178 96.5162 154.699C96.7361 155.22 96.8519 155.776 96.8519 156.377C96.8519 156.979 96.7361 157.546 96.5162 158.067C96.2963 158.588 95.9838 159.039 95.5903 159.433C95.1968 159.826 94.7454 160.139 94.2245 160.359C93.7037 160.579 93.1482 160.695 92.5463 160.695H89.6065V152.072ZM92.5463 158.785C92.8704 158.785 93.1829 158.727 93.4607 158.6C93.7384 158.472 93.9931 158.31 94.2014 158.102C94.4097 157.894 94.5718 157.639 94.6991 157.35C94.8264 157.06 94.8727 156.736 94.8727 156.389C94.8727 156.053 94.8148 155.729 94.6991 155.44C94.5833 155.139 94.4213 154.884 94.2014 154.676C93.9931 154.468 93.75 154.294 93.4607 154.178C93.1829 154.051 92.8704 153.993 92.5463 153.993H91.5856V158.785H92.5463Z"
    fill="#F4ECDD" />
  <path
    d="M104.398 152.072H110.556V153.993H106.377V155.359H110.208V157.28H106.377V158.785H110.694V160.706H104.398V152.083V152.072Z"
    fill="#F4ECDD" />
  <path
    d="M118.368 152.072H121.863C122.315 152.072 122.72 152.141 123.09 152.292C123.461 152.442 123.773 152.639 124.039 152.882C124.306 153.125 124.514 153.414 124.653 153.75C124.803 154.086 124.873 154.433 124.873 154.815C124.873 155.301 124.792 155.706 124.618 156.03C124.444 156.354 124.259 156.62 124.051 156.829C123.843 157.037 123.565 157.234 123.218 157.407L125.139 160.695H122.951L121.377 157.824H120.347V160.695H118.356V152.072H118.368ZM121.863 155.903C122.211 155.903 122.477 155.81 122.674 155.625C122.87 155.44 122.963 155.22 122.963 154.942C122.963 154.664 122.87 154.445 122.674 154.259C122.477 154.074 122.211 153.982 121.863 153.982H120.359V155.903H121.863Z"
    fill="#F4ECDD" />
  <path d="M132.465 152.072H134.456V158.785H138.356V160.706H132.465V152.083V152.072Z" fill="#F4ECDD" />
  <path
    d="M147.801 152.072H149.85L152.928 160.695H150.88L150.336 159.051H147.326L146.782 160.695H144.734L147.813 152.072H147.801ZM149.792 157.338L148.831 154.468L147.87 157.338H149.792Z"
    fill="#F4ECDD" />
  <path
    d="M159.988 152.072H161.771L165.266 157.141V152.072H167.257V160.695H165.475L161.979 155.625V160.695H159.988V152.072Z"
    fill="#F4ECDD" />
  <path
    d="M175.185 152.072H178.125C178.727 152.072 179.294 152.188 179.803 152.407C180.324 152.627 180.775 152.94 181.169 153.333C181.562 153.727 181.875 154.178 182.095 154.699C182.315 155.22 182.431 155.776 182.431 156.377C182.431 156.979 182.315 157.546 182.095 158.067C181.875 158.588 181.562 159.039 181.169 159.433C180.775 159.826 180.324 160.139 179.803 160.359C179.282 160.579 178.727 160.695 178.125 160.695H175.185V152.072ZM178.125 158.785C178.449 158.785 178.762 158.727 179.039 158.6C179.317 158.472 179.572 158.31 179.78 158.102C179.988 157.894 180.15 157.639 180.278 157.35C180.405 157.06 180.451 156.736 180.451 156.389C180.451 156.053 180.394 155.729 180.278 155.44C180.162 155.139 180 154.884 179.78 154.676C179.572 154.468 179.329 154.294 179.039 154.178C178.762 154.051 178.449 153.993 178.125 153.993H177.164V158.785H178.125Z"
    fill="#F4ECDD" />
  <path
    d="M47.0255 156.343L45.9606 154.514H48.0787L49.0856 152.755L50.1042 154.514H52.2106L51.1574 156.343L52.2106 158.16H50.1042L49.0856 159.919L48.0787 158.16H45.9606L47.0255 156.343Z"
    fill="#91B37E" />
</svg>