<svg xmlns="http://www.w3.org/2000/svg" fill="none" viewBox="0 0 85 85"><g fill="#1A3038" clip-path="url(#a)"><path d="M-9.01 35.828a9.712 9.712 0 0 0-6.43-2.422c-5.36 0-9.71 4.3-9.71 9.597 0 5.298 4.35 9.597 9.71 9.597 2.47 0 4.72-.919 6.43-2.421a11.37 11.37 0 0 0 1.84 1.818 9.473 9.473 0 0 0-2.45 6.356c0 5.297 4.35 9.597 9.71 9.597 5.36 0 9.71-4.3 9.71-9.597 0-2.442-.93-4.666-2.45-6.356a11.37 11.37 0 0 0 1.84-1.818 9.712 9.712 0 0 0 6.43 2.421c5.36 0 9.71-4.3 9.71-9.597s-4.35-9.597-9.71-9.597c-2.47 0-4.72.92-6.43 2.422a11.37 11.37 0 0 0-1.84-1.819 9.473 9.473 0 0 0 2.45-6.355c0-5.298-4.35-9.597-9.71-9.597-5.36 0-9.71 4.3-9.71 9.597 0 2.441.93 4.665 2.45 6.355a11.37 11.37 0 0 0-1.84 1.819ZM33.71-6.385a9.712 9.712 0 0 0-6.43-2.422c-5.36 0-9.71 4.3-9.71 9.597 0 5.298 4.35 9.588 9.71 9.588 2.47 0 4.72-.92 6.43-2.422.54.672 1.16 1.285 1.84 1.819a9.473 9.473 0 0 0-2.45 6.355c0 5.298 4.35 9.597 9.71 9.597 5.36 0 9.71-4.3 9.71-9.597 0-2.441-.93-4.665-2.45-6.355.68-.534 1.3-1.147 1.84-1.819a9.712 9.712 0 0 0 6.43 2.422c5.36 0 9.71-4.3 9.71-9.598 0-5.297-4.35-9.597-9.71-9.597-2.47 0-4.72.92-6.43 2.422a11.371 11.371 0 0 0-1.84-1.819 9.473 9.473 0 0 0 2.45-6.355c0-5.298-4.35-9.597-9.71-9.597-5.36 0-9.71 4.3-9.71 9.597 0 2.441.93 4.665 2.45 6.355-.68.534-1.3 1.147-1.84 1.819v.01ZM76.42 35.828a9.712 9.712 0 0 0-6.43-2.422c-5.36 0-9.71 4.3-9.71 9.597 0 5.298 4.35 9.597 9.71 9.597 2.47 0 4.72-.919 6.43-2.421a11.37 11.37 0 0 0 1.84 1.818 9.473 9.473 0 0 0-2.45 6.356c0 5.297 4.35 9.597 9.71 9.597 5.36 0 9.71-4.3 9.71-9.597 0-2.442-.93-4.666-2.45-6.356a11.37 11.37 0 0 0 1.84-1.818 9.712 9.712 0 0 0 6.43 2.421c5.36 0 9.71-4.3 9.71-9.597s-4.35-9.597-9.71-9.597c-2.47 0-4.72.92-6.43 2.422a11.37 11.37 0 0 0-1.84-1.819 9.473 9.473 0 0 0 2.45-6.355c0-5.298-4.35-9.597-9.71-9.597-5.36 0-9.71 4.3-9.71 9.597 0 2.441.93 4.665 2.45 6.355a11.37 11.37 0 0 0-1.84 1.819ZM33.71 78.052a9.712 9.712 0 0 0-6.43-2.421c-5.36 0-9.71 4.3-9.71 9.597s4.35 9.597 9.71 9.597c2.47 0 4.72-.92 6.43-2.422a11.37 11.37 0 0 0 1.84 1.819 9.473 9.473 0 0 0-2.45 6.355c0 5.298 4.35 9.597 9.71 9.597 5.36 0 9.71-4.299 9.71-9.597 0-2.441-.93-4.665-2.45-6.355a11.37 11.37 0 0 0 1.84-1.819 9.712 9.712 0 0 0 6.43 2.422c5.36 0 9.71-4.3 9.71-9.597 0-5.298-4.35-9.597-9.71-9.597-2.47 0-4.72.919-6.43 2.421a11.37 11.37 0 0 0-1.84-1.818 9.473 9.473 0 0 0 2.45-6.356c0-5.297-4.35-9.597-9.71-9.597-5.36 0-9.71 4.3-9.71 9.597 0 2.442.93 4.665 2.45 6.356a11.37 11.37 0 0 0-1.84 1.818Z"/></g><defs><clipPath id="a"><path fill="#fff" d="M0 0h85v85H0z"/></clipPath></defs></svg>
