<svg xmlns="http://www.w3.org/2000/svg" fill="none" viewBox="0 0 100 30" height="30" width="100">
<g clip-path="url(#clip0_2536_1450)">
<path fill="#F4ECDD" d="M2.91302 13.0531H10.6283V5.73047H13.3265V24.46H10.6283V15.7107H2.91302V24.456H0.214844V5.73047H2.91302V13.0531Z"/>
<path fill="#F4ECDD" d="M49.5743 16.4754L55.1121 24.456H51.8102L46.7025 16.7955H46.2157V24.4619H43.5156V5.73047H46.678C49.0415 5.73047 50.7485 6.19151 51.7988 7.11359C52.9574 8.14896 53.5366 9.51562 53.5366 11.2136C53.5642 12.4521 53.1792 13.662 52.4479 14.6358C51.7301 15.5882 50.7109 16.2406 49.5743 16.4754ZM46.2157 14.3276H47.0723C49.6283 14.3276 50.9064 13.3047 50.9064 11.259C50.9064 9.3424 49.6629 8.38409 47.1761 8.38409H46.2157V14.3276Z"/>
<path fill="#F4ECDD" d="M60.3583 5.73047V21.8044H65.6169V24.46H57.6602V5.73047H60.3583Z"/>
<path fill="#F4ECDD" d="M78.0771 8.38409H70.9071V12.8832H77.8676V15.5408H70.9071V21.8004H78.0771V24.456H68.207V5.73047H78.0771V8.38409Z"/>
<path fill="#F4ECDD" d="M80.3516 24.4566L84.1252 4.32031L90.2631 18.8767L96.6085 4.32031L100.005 24.4566H97.2293L95.5029 13.1526L90.2103 25.3181L85.0668 13.1387L83.1441 24.4566H80.3516Z"/>
<path fill="#F4ECDD" d="M20.783 0.179688L23.5453 4.49504L28.3115 4.49306L25.4699 8.65232L27.0095 13.6335L22.4925 11.8888L18.6773 14.9673L18.7263 9.73116L14.8281 6.65272L19.3773 5.16092L20.783 0.179688Z"/>
<path fill="#F4ECDD" d="M21.9226 7.9841L18.7263 9.73079L14.8281 6.65234L21.9226 7.9841Z"/>
<path fill="#F4ECDD" d="M21.9211 7.98438L22.491 11.8887L18.6758 14.9672L21.9211 7.98438Z"/>
<path fill="#F4ECDD" d="M25.4691 8.65223L27.0088 13.6335L21.9219 7.98438L25.4691 8.65223Z"/>
<path fill="#F4ECDD" d="M23.5446 4.49416L28.3107 4.49219L21.9219 7.98359L23.5446 4.49416Z"/>
<path fill="#F4ECDD" d="M20.7807 0.179688L21.9203 7.98447L19.375 5.16092L20.7807 0.179688Z"/>
<path fill="#F4ECDD" d="M36.1066 0.177734L37.5123 5.15896L42.0633 6.65076L38.1651 9.72921L38.2161 14.9653L34.4009 11.8869L29.8819 13.6336L31.4216 8.65234L28.5781 4.49309H33.3462L36.1066 0.177734Z"/>
<path fill="#F4ECDD" d="M34.9688 7.98359L31.4216 8.65144L28.5781 4.49219L34.9688 7.98359Z"/>
<path fill="#F4ECDD" d="M34.9697 7.98438L34.4018 11.8868L29.8828 13.6335L34.9697 7.98438Z"/>
<path fill="#F4ECDD" d="M38.165 9.72909L38.216 14.9652L34.9688 7.98438L38.165 9.72909Z"/>
<path fill="#F4ECDD" d="M37.5122 5.16016L42.0633 6.65196L34.9688 7.98568L37.5122 5.16016Z"/>
<path fill="#F4ECDD" d="M36.1081 0.177734L34.9703 7.98449L33.3477 4.49309L36.1081 0.177734Z"/>
<path fill="#F4ECDD" d="M36.1085 30.0005L33.3462 25.6851H28.5781L31.4216 21.5278L29.88 16.5466L34.399 18.2913L38.2142 15.2129L38.1633 20.449L42.0633 23.5275L37.5123 25.0173L36.1085 30.0005Z"/>
<path fill="#F4ECDD" d="M34.9688 22.1939L38.1632 20.4492L42.0633 23.5277L34.9688 22.1939Z"/>
<path fill="#F4ECDD" d="M34.9722 22.1937L34.4023 18.2913L38.2175 15.2129L34.9722 22.1937Z"/>
<path fill="#F4ECDD" d="M31.4244 21.5281L29.8828 16.5469L34.9716 22.194L31.4244 21.5281Z"/>
<path fill="#F4ECDD" d="M33.3462 25.6848H28.5781L34.9688 22.1934L33.3462 25.6848Z"/>
<path fill="#F4ECDD" d="M36.1084 30.0001L34.9688 22.1934L37.5122 25.0169L36.1084 30.0001Z"/>
<path fill="#F4ECDD" d="M20.783 30.0005L19.3773 25.0193L14.8281 23.5294L18.7263 20.449L18.6754 15.2129L22.4906 18.2913L27.0095 16.5466L25.468 21.5278L28.3115 25.6851H23.5434L20.783 30.0005Z"/>
<path fill="#F4ECDD" d="M21.9219 22.1952L25.4691 21.5273L28.3126 25.6846L21.9219 22.1952Z"/>
<path fill="#F4ECDD" d="M21.9219 22.196L22.4917 18.2916L27.0107 16.5469L21.9219 22.196Z"/>
<path fill="#F4ECDD" d="M18.7267 20.449L18.6758 15.2129L21.9211 22.1957L18.7267 20.449Z"/>
<path fill="#F4ECDD" d="M19.3773 25.0189L14.8281 23.529L21.9207 22.1953L19.3773 25.0189Z"/>
<path fill="#F4ECDD" d="M20.7852 30.0001L21.9229 22.1953L23.5456 25.6847L20.7852 30.0001Z"/>
</g>
<defs>
<clipPath id="clip0_2536_1450">
<rect fill="white" height="30" width="100"/>
</clipPath>
</defs>
</svg>