<svg xmlns="http://www.w3.org/2000/svg" fill="none" viewBox="0 0 157 63" height="63" width="157">
<g clip-path="url(#clip0_3216_12799)">
<path fill="white" d="M25 0H0V50H25V0Z"/>
<path fill="#BE1C1D" d="M12.9493 38.68H12.5143V37.475H12.9493V38.68ZM14.9143 33.36H14.4793V32.155H14.9143V33.36ZM6.85434 31.28C6.81934 31.28 6.59434 31.28 6.59434 31.325C6.59434 31.37 6.69934 31.35 6.85434 31.375C7.20434 31.435 7.33934 31.61 7.58434 31.61C7.80434 31.61 8.03434 31.46 7.94434 31.14C7.92934 31.085 7.89934 31.1 7.88934 31.135C7.85434 31.28 7.67934 31.36 7.49434 31.36C7.26434 31.36 7.21934 31.28 6.85434 31.28ZM4.45934 32.485C4.49934 32.54 4.90934 33.07 4.27934 33.275C4.24934 33.285 4.24434 33.31 4.28434 33.33C4.74934 33.525 4.97434 33.165 4.97434 33.165C5.20934 33.705 4.84934 34 4.84934 34C4.89934 34.095 5.12434 34.26 5.45934 34.335C5.58934 34.265 5.76934 34.135 5.84434 33.935C5.84434 33.935 5.93434 34.17 5.85434 34.395C6.80434 34.48 7.13934 33.72 7.87434 33.86C7.89434 33.865 7.90434 33.85 7.90434 33.83C7.90434 33.36 7.61934 32.505 6.70934 32.33C5.80434 32.155 6.04934 31.785 6.04934 31.785C6.42934 31.77 6.64934 31.935 6.64934 31.935C6.71934 31.82 6.61934 31.7 6.61934 31.7C6.65434 31.655 6.67434 31.5 6.67434 31.5C6.24434 31.5 6.13434 31.405 6.13434 31.405C6.06934 31.15 6.24434 30.79 6.88434 31.175C7.04434 31.035 7.02934 30.815 7.02934 30.815C7.07934 30.79 7.10934 30.715 7.10934 30.685C7.10934 30.58 6.59934 30.295 6.46934 30.26C6.43934 30.105 6.23934 29.885 5.63934 29.965C5.35434 30 5.14934 29.925 5.24434 29.76C5.25934 29.73 5.20934 29.725 5.18434 29.755C5.11934 29.82 5.02934 30.005 5.27434 30.13C5.54934 30.27 5.56434 30.545 5.56934 30.585C5.57434 30.645 5.50434 30.65 5.48934 30.59C5.36434 30.125 4.72434 30.025 4.34934 30.27C4.36934 30.52 4.63934 30.685 4.78434 30.685C4.86934 30.685 4.98434 30.6 4.98434 30.485C4.98434 30.43 5.01434 30.435 5.02934 30.48C5.08934 30.645 4.84434 30.99 4.48434 30.78C4.11434 31.15 4.26434 31.61 4.29934 31.775C4.36434 32.075 4.21934 32.37 3.94434 32.235C3.92934 32.23 3.91434 32.225 3.91434 32.255C3.91934 32.435 4.16434 32.65 4.45934 32.485ZM6.49934 30.62C6.32434 30.815 6.04434 30.77 5.97434 30.45C6.33434 30.43 6.48434 30.465 6.49934 30.62ZM17.5343 31.36C17.3493 31.36 17.1743 31.28 17.1393 31.135C17.1293 31.1 17.0993 31.085 17.0843 31.14C16.9943 31.46 17.2243 31.61 17.4443 31.61C17.6893 31.61 17.8243 31.435 18.1743 31.375C18.3293 31.35 18.4343 31.375 18.4343 31.325C18.4343 31.28 18.2093 31.28 18.1743 31.28C17.8143 31.28 17.7643 31.36 17.5343 31.36ZM21.1143 32.245C21.1143 32.215 21.0993 32.22 21.0843 32.225C20.8093 32.36 20.6643 32.07 20.7293 31.765C20.7643 31.595 20.9143 31.14 20.5443 30.77C20.1793 30.98 19.9343 30.635 19.9993 30.47C20.0143 30.425 20.0443 30.42 20.0443 30.475C20.0443 30.59 20.1593 30.675 20.2443 30.675C20.3893 30.675 20.6593 30.51 20.6793 30.26C20.3043 30.015 19.6643 30.115 19.5393 30.58C19.5243 30.64 19.4543 30.635 19.4593 30.575C19.4593 30.535 19.4793 30.26 19.7543 30.12C20.0043 29.995 19.9143 29.81 19.8443 29.745C19.8193 29.72 19.7643 29.725 19.7843 29.75C19.8793 29.915 19.6743 29.99 19.3943 29.955C18.7943 29.875 18.5993 30.1 18.5643 30.25C18.4343 30.285 17.9243 30.57 17.9243 30.675C17.9243 30.705 17.9543 30.785 18.0043 30.805C18.0043 30.805 17.9943 31.02 18.1493 31.165C18.7843 30.78 18.9643 31.14 18.8993 31.395C18.8993 31.395 18.7843 31.485 18.3543 31.49C18.3543 31.49 18.3743 31.645 18.4093 31.69C18.4093 31.69 18.3093 31.815 18.3793 31.925C18.3793 31.925 18.5993 31.76 18.9793 31.775C18.9793 31.775 19.2243 32.145 18.3193 32.32C17.4143 32.495 17.1243 33.35 17.1243 33.82C17.1243 33.845 17.1343 33.855 17.1543 33.85C17.8893 33.715 18.2243 34.475 19.1743 34.385C19.0893 34.16 19.1843 33.925 19.1843 33.925C19.2593 34.125 19.4393 34.26 19.5693 34.325C19.9093 34.25 20.1293 34.09 20.1793 33.99C20.1793 33.99 19.8193 33.695 20.0543 33.155C20.0543 33.155 20.2793 33.515 20.7443 33.32C20.7843 33.3 20.7743 33.275 20.7493 33.265C20.1193 33.06 20.5293 32.53 20.5693 32.475C20.8643 32.65 21.1143 32.435 21.1143 32.245ZM19.0543 30.45C18.9843 30.77 18.7043 30.815 18.5293 30.62C18.5443 30.465 18.6993 30.43 19.0543 30.45ZM12.3493 25.105C12.3493 25.185 12.3843 25.255 12.4093 25.295C12.4643 25.375 12.4543 25.42 12.4293 25.445C12.4043 25.47 12.3593 25.48 12.2793 25.425C12.2393 25.395 12.1693 25.365 12.0893 25.365C11.9543 25.365 11.8843 25.455 11.8843 25.53C11.8843 25.605 11.9543 25.695 12.0893 25.695C12.1693 25.695 12.2393 25.66 12.2793 25.635C12.3593 25.58 12.4043 25.59 12.4293 25.615C12.4543 25.64 12.4193 25.915 12.3843 26.135C12.1593 26.185 12.0493 26.365 12.0493 26.47C12.0493 26.745 12.3393 26.9 12.5143 26.995C12.6843 26.905 12.9793 26.745 12.9793 26.47C12.9793 26.365 12.8693 26.18 12.6443 26.135C12.6143 25.92 12.5743 25.64 12.5993 25.615C12.6243 25.59 12.6693 25.58 12.7493 25.635C12.7893 25.665 12.8593 25.695 12.9393 25.695C13.0743 25.695 13.1443 25.605 13.1443 25.53C13.1443 25.455 13.0743 25.365 12.9393 25.365C12.8593 25.365 12.7893 25.4 12.7493 25.425C12.6693 25.48 12.6243 25.47 12.5993 25.445C12.5743 25.42 12.5643 25.375 12.6193 25.295C12.6493 25.255 12.6793 25.185 12.6793 25.105C12.6793 24.97 12.5893 24.9 12.5143 24.9C12.4393 24.9 12.3493 24.97 12.3493 25.105ZM12.5143 27.135C12.3293 27.135 12.1793 27.285 12.1793 27.47C12.1793 27.655 12.3293 27.805 12.5143 27.805C12.6993 27.805 12.8493 27.655 12.8493 27.47C12.8493 27.285 12.6993 27.135 12.5143 27.135ZM12.5143 30.34C13.8493 30.34 14.5993 30.595 14.5993 30.595C14.6043 29.92 14.6043 29.545 14.9893 29.6C14.7793 29.035 15.6893 28.81 15.6893 28.075C15.6893 27.59 15.3443 27.535 15.2443 27.535C14.9443 27.535 14.9893 27.73 14.7343 27.73C14.7043 27.73 14.6693 27.72 14.6693 27.745C14.6693 27.83 14.7393 27.975 14.8593 27.975C15.0193 27.975 15.0193 27.815 15.1393 27.815C15.1893 27.815 15.2643 27.855 15.2643 28.02C15.2643 28.335 15.0593 28.68 14.8143 28.95C14.7593 28.875 14.6843 28.825 14.5893 28.825C14.4443 28.825 14.3193 28.975 14.3193 29.16C14.3193 29.23 14.3293 29.28 14.3543 29.335C14.2743 29.38 14.1993 29.405 14.1493 29.405C14.0393 29.405 13.8743 29.36 13.8743 29.12C13.8743 28.585 14.5893 28.115 14.5893 27.435C14.5893 27.11 14.3743 26.79 13.9193 26.79C13.4343 26.79 13.5243 27.23 13.1043 27.23C13.0843 27.23 13.0693 27.235 13.0693 27.255C13.0693 27.285 13.1443 27.53 13.3593 27.53C13.5893 27.53 13.6543 27.13 13.8643 27.13C13.9393 27.13 14.0543 27.175 14.0543 27.445C14.0543 27.655 13.9493 28 13.7993 28.325C13.7443 28.27 13.6693 28.23 13.5893 28.23C13.4093 28.23 13.2793 28.405 13.2793 28.61C13.2793 28.74 13.3293 28.87 13.4193 28.95C13.3143 29.085 13.2043 29.195 13.0593 29.195C12.7693 29.195 12.6443 29.03 12.6443 28.85C12.6443 28.655 12.9993 28.585 12.9993 28.285C12.9993 28.08 12.8643 27.965 12.7393 27.965C12.5993 27.965 12.5293 28.055 12.5143 28.055C12.4993 28.055 12.4293 27.965 12.2893 27.965C12.1593 27.965 12.0293 28.08 12.0293 28.285C12.0293 28.585 12.3843 28.66 12.3843 28.85C12.3843 29.03 12.2543 29.195 11.9693 29.195C11.8243 29.195 11.7143 29.085 11.6093 28.95C11.6993 28.865 11.7493 28.74 11.7493 28.61C11.7493 28.4 11.6193 28.23 11.4393 28.23C11.3543 28.23 11.2843 28.27 11.2293 28.325C11.0793 27.995 10.9743 27.655 10.9743 27.445C10.9743 27.175 11.0893 27.13 11.1643 27.13C11.3693 27.13 11.4343 27.53 11.6693 27.53C11.8843 27.53 11.9593 27.285 11.9593 27.255C11.9593 27.24 11.9443 27.23 11.9243 27.23C11.5043 27.23 11.5943 26.79 11.1093 26.79C10.6593 26.79 10.4393 27.11 10.4393 27.435C10.4393 28.115 11.1543 28.585 11.1543 29.12C11.1543 29.36 10.9893 29.405 10.8793 29.405C10.8243 29.405 10.7543 29.38 10.6743 29.335C10.6993 29.275 10.7093 29.23 10.7093 29.16C10.7093 28.975 10.5843 28.825 10.4393 28.825C10.3493 28.825 10.2743 28.875 10.2193 28.95C9.97434 28.68 9.76934 28.335 9.76934 28.02C9.76934 27.86 9.84434 27.815 9.89434 27.815C10.0093 27.815 10.0143 27.975 10.1743 27.975C10.2943 27.975 10.3643 27.83 10.3643 27.745C10.3643 27.72 10.3293 27.73 10.2993 27.73C10.0443 27.73 10.0893 27.535 9.78934 27.535C9.68934 27.535 9.34434 27.59 9.34434 28.075C9.34434 28.815 10.2543 29.035 10.0443 29.6C10.4293 29.545 10.4243 29.92 10.4343 30.595C10.4293 30.595 11.1793 30.34 12.5143 30.34ZM10.0693 31.335C9.70434 31.415 9.44434 31.49 9.32934 31.525C9.33434 31.365 9.39434 31.215 9.53934 31.185C9.55934 31.18 9.56434 31.155 9.54434 31.145C9.21934 30.93 9.04934 31.34 9.04434 31.355C8.92934 31.345 8.75434 31.38 8.75434 31.535C8.75434 32 7.69434 32.255 7.44934 32.295C7.88434 32.46 8.06433 33.01 8.06433 33.01C8.37933 32.695 8.74434 32.42 8.82934 32.42C8.91434 32.42 8.94434 32.525 8.94934 32.585C8.94934 32.605 8.96933 32.61 8.98433 32.595C9.14933 32.35 9.06934 32.295 9.05434 32.22C9.04434 32.165 9.05934 31.95 9.29934 31.975V35.07L9.17434 35.095C9.11934 35.105 8.66433 34.72 8.14933 34.36C7.62934 34 7.35434 34.215 6.76434 34.535C5.98934 34.955 5.20934 34.575 5.20934 34.575C4.54434 35.05 4.31434 36.43 4.31434 36.43C4.17934 36.485 3.95934 36.545 3.75434 36.545C3.24434 36.545 3.15434 36.235 3.15434 36.055C3.15434 35.27 4.13934 34.935 4.13934 34.16C4.13934 33.97 4.05434 33.21 3.10934 33.21C2.98934 33.21 2.26934 33.21 2.26434 33.21C1.90934 33.21 1.82434 32.955 1.77434 32.86C1.75434 32.82 1.71934 32.845 1.73434 32.875C1.75934 32.94 1.69434 33.04 1.69434 33.235C1.69434 33.55 1.87934 33.74 2.22434 33.74C2.37934 33.74 2.52934 33.695 2.57434 33.665C2.60434 33.645 2.62434 33.675 2.60934 33.695C2.45934 33.87 2.44934 34.2 2.50934 34.275C2.52434 34.295 2.54434 34.29 2.54434 34.275C2.62934 33.945 2.93934 33.63 3.35934 33.63C3.87434 33.63 3.86934 34.065 3.86934 34.17C3.86934 34.8 2.76434 35.26 2.76434 36.13C2.76434 37.01 3.69434 37.195 4.22934 37.06C4.19934 37.94 3.18934 38.24 3.15934 37.61C3.15934 37.58 3.13434 37.575 3.11934 37.615C2.99434 37.925 3.04434 38.2 3.43434 38.285C3.45934 38.29 3.44934 38.305 3.42434 38.325C3.03434 38.57 3.24434 39.54 3.26434 39.825C3.29434 40.235 2.88434 40.185 2.84934 40.175C2.83434 40.17 2.81434 40.175 2.84434 40.21C3.13434 40.565 3.49434 40.24 3.49434 40.24C3.76434 40.325 3.59934 40.555 3.41434 40.675C3.38434 40.695 3.38934 40.715 3.41934 40.715C3.45934 40.72 3.87934 40.755 3.95434 40.42C4.13934 40.64 4.41434 40.56 4.46934 40.53C4.54934 40.49 4.94434 40.345 4.97934 40.785C4.97934 40.815 4.99934 40.795 5.01434 40.78C5.30934 40.405 4.99434 40.175 4.81434 40.15C4.82934 40.13 5.06434 39.93 5.27934 40.205C5.29434 40.225 5.30934 40.23 5.30934 40.19C5.33434 39.715 4.94934 39.675 4.69934 39.88C4.68934 39.83 4.60434 39.565 4.97934 39.575C4.98934 39.575 5.00434 39.56 4.98934 39.545C4.69934 39.235 4.45934 39.515 4.39934 39.585C4.26934 39.74 3.94434 39.675 3.91434 39.675C4.01434 38.03 5.46434 38.615 5.66434 37.815C5.67434 37.775 5.69434 37.79 5.69434 37.805C5.74934 38 6.23934 38.025 6.32934 37.645C6.33434 37.62 6.32934 37.605 6.31434 37.62C5.89434 38.04 4.94934 36.73 6.23934 35.665C7.33934 34.76 8.32434 35.265 8.69934 35.56C8.71934 35.69 8.63934 35.735 8.58934 35.75C8.56934 35.755 8.56434 35.77 8.59434 35.785C8.69934 35.825 8.84434 35.81 8.91434 35.715C9.14934 35.88 8.94933 36.09 8.85433 36.145C8.82933 36.16 8.83933 36.175 8.85933 36.18C9.07433 36.22 9.25434 36 9.26434 35.87L9.29934 35.89V36.825C9.29934 38.155 10.8343 38.34 12.5193 39.465C14.2043 38.335 15.7343 38.155 15.7343 36.825V35.89L15.7693 35.87C15.7793 35.995 15.9543 36.22 16.1743 36.18C16.1943 36.175 16.2043 36.16 16.1793 36.145C16.0843 36.085 15.8793 35.88 16.1193 35.715C16.1893 35.815 16.3343 35.825 16.4393 35.785C16.4693 35.775 16.4643 35.755 16.4443 35.75C16.3943 35.735 16.3143 35.69 16.3343 35.56C16.7093 35.26 17.6943 34.755 18.7943 35.665C20.0843 36.73 19.1393 38.035 18.7193 37.62C18.6993 37.6 18.6993 37.62 18.7043 37.645C18.7943 38.03 19.2843 38 19.3393 37.805C19.3443 37.79 19.3643 37.775 19.3693 37.815C19.5693 38.615 21.0143 38.03 21.1193 39.675C21.0893 39.68 20.7643 39.74 20.6343 39.585C20.5793 39.52 20.3393 39.235 20.0443 39.545C20.0243 39.565 20.0443 39.575 20.0543 39.575C20.4293 39.565 20.3493 39.83 20.3343 39.88C20.0843 39.675 19.6993 39.715 19.7243 40.19C19.7243 40.225 19.7393 40.225 19.7543 40.205C19.9693 39.93 20.2043 40.13 20.2193 40.15C20.0443 40.175 19.7243 40.405 20.0193 40.78C20.0343 40.795 20.0493 40.815 20.0543 40.785C20.0943 40.345 20.4843 40.485 20.5643 40.53C20.6193 40.56 20.8943 40.64 21.0793 40.42C21.1543 40.755 21.5743 40.72 21.6143 40.715C21.6443 40.715 21.6443 40.695 21.6193 40.675C21.4393 40.555 21.2693 40.325 21.5393 40.24C21.5393 40.24 21.8993 40.565 22.1893 40.21C22.2143 40.18 22.1993 40.17 22.1843 40.175C22.1493 40.185 21.7393 40.235 21.7693 39.825C21.7893 39.54 21.9993 38.57 21.6093 38.325C21.5843 38.31 21.5743 38.295 21.5993 38.285C21.9893 38.2 22.0393 37.925 21.9143 37.615C21.8993 37.575 21.8743 37.585 21.8743 37.61C21.8443 38.24 20.8393 37.94 20.8043 37.06C21.3443 37.2 22.2693 37.01 22.2693 36.13C22.2693 35.265 21.1643 34.8 21.1643 34.17C21.1643 34.065 21.1593 33.63 21.6743 33.63C22.0943 33.63 22.4043 33.945 22.4893 34.275C22.4943 34.29 22.5093 34.295 22.5243 34.275C22.5843 34.195 22.5743 33.87 22.4243 33.695C22.4093 33.68 22.4243 33.645 22.4593 33.665C22.5043 33.695 22.6543 33.74 22.8093 33.74C23.1543 33.74 23.3393 33.55 23.3393 33.235C23.3393 33.04 23.2693 32.94 23.2993 32.875C23.3143 32.845 23.2743 32.825 23.2593 32.86C23.2093 32.96 23.1193 33.21 22.7693 33.21C22.7643 33.21 22.0443 33.21 21.9243 33.21C20.9793 33.21 20.8943 33.975 20.8943 34.16C20.8943 34.935 21.8793 35.27 21.8793 36.055C21.8793 36.24 21.7843 36.545 21.2793 36.545C21.0693 36.545 20.8493 36.485 20.7193 36.43C20.7193 36.43 20.4943 35.055 19.8243 34.575C19.8243 34.575 19.0443 34.955 18.2693 34.535C17.6793 34.215 17.3993 34 16.8793 34.36C16.3593 34.72 15.9093 35.105 15.8543 35.095L15.7293 35.07V31.975C15.9693 31.95 15.9843 32.165 15.9743 32.22C15.9593 32.29 15.8843 32.35 16.0443 32.595C16.0593 32.615 16.0743 32.605 16.0793 32.585C16.0843 32.525 16.1193 32.42 16.1993 32.42C16.2793 32.42 16.6493 32.695 16.9643 33.01C16.9643 33.01 17.1443 32.465 17.5793 32.295C17.3343 32.255 16.2743 32 16.2743 31.535C16.2743 31.38 16.0993 31.345 15.9843 31.355C15.9793 31.34 15.8043 30.93 15.4843 31.145C15.4693 31.155 15.4693 31.18 15.4893 31.185C15.6343 31.22 15.6943 31.365 15.6993 31.525C15.3893 31.43 14.0743 31.06 12.5143 31.06C11.7543 31.06 11.0593 31.15 10.5043 31.25V32.32H10.0693V31.335ZM7.18934 42.325C7.07434 42.28 6.99934 42.205 6.99934 42.05V41.385C6.80934 41.32 6.28934 41.12 5.24434 41.12C4.37934 41.12 4.10934 41.315 4.09434 41.385L3.86434 42.65C3.86434 42.65 4.21434 42.33 5.46934 42.41C6.97934 42.505 8.54434 43.4 8.54434 42.445V41.885C7.36434 41.89 7.18934 42.27 7.18934 42.325ZM16.4843 41.89V42.45C16.4843 43.4 18.0493 42.51 19.5593 42.415C20.8143 42.335 21.1643 42.655 21.1643 42.655L20.9343 41.385C20.9243 41.315 20.6493 41.12 19.7843 41.12C18.7443 41.12 18.2243 41.32 18.0293 41.385V42.05C18.0293 42.2 17.9543 42.275 17.8393 42.325C17.8443 42.27 17.6693 41.89 16.4843 41.89ZM12.5143 41.315C14.9493 41.315 17.4193 41.44 17.7393 41.81C17.7643 41.84 17.7743 41.81 17.7743 41.785V40.495C17.7743 40.12 15.2243 39.9 12.5093 39.9C9.79434 39.9 7.24434 40.12 7.24434 40.495V41.785C7.24434 41.805 7.25434 41.835 7.27934 41.81C7.61434 41.445 10.0843 41.315 12.5143 41.315ZM10.3443 35.235L10.0993 35.17L10.0793 35.2L9.79434 35.075C9.79434 35.075 10.0043 35.075 10.0493 35.075C10.0743 35.075 10.0743 35.06 10.0643 35.05C9.94934 34.935 9.84434 34.835 9.84434 34.835C9.84434 34.835 9.95934 34.88 10.1243 34.94C10.1443 34.945 10.1493 34.935 10.1393 34.92C10.0593 34.805 9.94934 34.645 9.94934 34.645C9.94934 34.645 10.1793 34.8 10.2243 34.83C10.2393 34.84 10.2493 34.83 10.2443 34.815C10.1843 34.665 10.1143 34.49 10.1143 34.49L10.3643 34.73C10.3743 34.74 10.3893 34.735 10.3843 34.72C10.3593 34.605 10.3143 34.395 10.3143 34.395L10.4993 34.665C10.5093 34.68 10.5243 34.675 10.5243 34.66C10.5243 34.605 10.5293 34.365 10.5293 34.365C10.5293 34.365 10.6093 34.545 10.6443 34.635C10.6543 34.655 10.6643 34.655 10.6743 34.63C10.6843 34.6 10.7693 34.4 10.7693 34.4L10.7793 34.71L10.7393 34.72L10.6893 35.09C11.0543 35.005 11.5143 34.375 11.8643 34.375C12.2843 34.375 12.4343 34.865 13.2043 34.615C13.3993 34.905 13.4693 35.155 13.5443 35.5C13.8443 35.78 14.2593 35.685 14.2593 35.39C14.2593 34.99 13.8243 34.915 13.8243 34.495C13.8243 34.31 13.9543 34.04 14.3093 34.04C14.4993 34.04 14.7743 34.12 14.9343 34.12C15.1243 34.12 15.1643 33.985 15.1843 33.925C15.1993 33.885 15.2543 33.895 15.2493 33.93C15.2443 33.97 15.2693 34.025 15.2693 34.115C15.2693 34.38 14.8843 34.415 14.8393 34.38C14.8193 34.365 14.8043 34.385 14.8193 34.4C14.8793 34.445 14.8643 34.605 14.7943 34.705C14.7843 34.715 14.7743 34.715 14.7743 34.705C14.7343 34.515 14.5093 34.28 14.3143 34.28C14.2443 34.28 14.0993 34.32 14.0993 34.49C14.0993 34.725 14.5743 34.945 14.5743 35.435C14.5743 35.945 14.0693 36.07 13.5593 35.94C13.5743 36.425 14.2993 36.71 14.3143 36.365C14.3143 36.34 14.3293 36.355 14.3343 36.365C14.4393 36.515 14.3943 36.625 14.2543 36.685C14.3793 36.74 14.4043 36.995 14.4393 37.15C14.4943 37.38 14.7343 37.25 14.7493 37.245C14.7643 37.235 14.7693 37.245 14.7593 37.26C14.6693 37.495 14.4243 37.405 14.4243 37.405C14.2993 37.495 14.4493 37.575 14.5643 37.61C14.5793 37.615 14.5793 37.625 14.5693 37.635C14.4843 37.665 14.3043 37.725 14.2143 37.57C14.1493 37.73 14.0143 37.725 13.9643 37.725C13.8693 37.725 13.8093 37.82 13.8293 37.95C13.8293 37.96 13.8243 37.965 13.8143 37.96C13.5943 37.815 13.7193 37.64 13.8093 37.595C13.7943 37.585 13.6393 37.52 13.5743 37.7C13.5693 37.715 13.5593 37.715 13.5543 37.7C13.4593 37.44 13.6693 37.365 13.8193 37.43C13.8093 37.395 13.7293 37.265 13.5293 37.31C13.5193 37.315 13.5143 37.31 13.5193 37.295C13.5543 37.215 13.6493 37.1 13.8343 37.215C13.9293 37.275 14.0893 37.19 14.1043 37.18C13.7793 36.535 13.1543 37.075 13.0093 36.57C13.0043 36.56 12.9943 36.55 12.9843 36.58C12.9493 36.685 12.6743 36.695 12.6243 36.485C12.6193 36.47 12.6243 36.465 12.6393 36.475C12.6793 36.515 12.7643 36.55 12.8793 36.39C12.9543 36.28 12.9643 36.135 12.9643 36.04C12.9643 35.65 12.5743 34.99 11.9643 34.99C11.5793 34.99 11.1643 35.14 10.8543 35.365L11.1393 35.43C11.1143 35.72 10.8343 35.89 10.5793 35.815L10.6243 35.485C10.5793 35.5 10.4693 35.54 10.4093 35.625C10.4043 35.63 10.3943 35.63 10.3943 35.62C10.3443 35.43 10.4993 35.335 10.5443 35.315C10.5493 35.31 10.5493 35.31 10.5393 35.31C10.3993 35.305 10.3243 35.405 10.2993 35.44C10.2943 35.445 10.2893 35.445 10.2893 35.44C10.3043 35.4 10.2793 35.305 10.3443 35.235ZM11.1993 37.475C11.0893 37.61 10.9943 37.48 10.8493 37.48C10.7143 37.48 10.6893 37.595 10.6893 37.64C10.6893 37.65 10.6843 37.65 10.6793 37.645C10.5243 37.435 10.6993 37.32 10.7993 37.305C10.7843 37.29 10.6343 37.19 10.5393 37.33C10.5343 37.34 10.5243 37.335 10.5243 37.325C10.5193 37.065 10.7243 37.045 10.8643 37.16C10.8893 37.06 10.8243 36.995 10.7143 36.99C10.6993 36.99 10.6993 36.98 10.7043 36.975C10.7493 36.925 10.7943 36.905 10.8393 36.905C10.9843 36.905 11.0043 37.09 11.0993 37.09C11.2393 37.09 11.4443 36.9 11.4593 36.88C11.4543 36.87 11.3193 36.5 11.3443 36.28C11.3443 36.27 11.3393 36.27 11.3343 36.275C11.2643 36.315 11.0943 36.31 11.0943 36.1C11.0943 36.085 11.0993 36.08 11.1093 36.095C11.1843 36.2 11.3093 36.08 11.3693 36.01C11.4343 35.935 11.7943 35.415 12.2693 35.415C12.3743 35.415 12.5093 35.475 12.6193 35.55C12.4543 35.75 12.6193 35.94 12.7393 35.915C12.7543 35.91 12.7543 35.925 12.7443 35.93C12.1143 36.165 11.8343 36.26 11.8343 36.79C11.8343 37.065 11.9293 37.22 12.0893 37.18C12.0993 37.175 12.1043 37.18 12.0943 37.19C12.0343 37.26 11.9693 37.285 11.9143 37.285C11.7843 37.285 11.7593 37.215 11.6893 37.215C11.6193 37.215 11.3843 37.355 11.3843 37.47C11.3843 37.515 11.4143 37.575 11.4943 37.625C11.4993 37.63 11.4943 37.635 11.4943 37.635C11.4243 37.635 11.2393 37.65 11.1993 37.475ZM12.8543 32.35C12.6593 32.34 12.5293 32.38 12.5393 32.445C12.6343 32.545 12.7593 32.535 12.8543 32.35ZM12.1293 32.835C12.2693 32.8 12.4193 32.815 12.4393 32.82C12.4593 32.825 12.4593 32.86 12.4343 32.865C12.1443 32.9 12.1293 33.035 11.9443 33.035C11.8243 33.035 11.6893 32.91 11.7393 32.73C11.7443 32.705 11.7643 32.705 11.7693 32.73C11.7893 32.81 11.9043 32.895 12.1293 32.835ZM8.36434 39.265C8.55434 39.51 8.73934 39.28 8.99434 39.28C9.11934 39.28 9.26934 39.32 9.29434 39.57C9.29434 39.585 9.30434 39.585 9.31934 39.57C9.59433 39.195 9.27934 38.985 9.09934 38.955C9.13934 38.92 9.40434 38.755 9.57934 39C9.58934 39.015 9.60933 39.01 9.60933 38.99C9.60933 38.515 9.25434 38.48 8.99434 38.685C8.94434 38.5 9.08434 38.38 9.26434 38.38C9.28434 38.38 9.29434 38.365 9.28434 38.355C8.96434 38.015 8.72934 38.445 8.67434 38.51C8.54934 38.68 8.09434 38.36 7.90934 38.17C7.90934 38.17 8.30934 37.75 8.30934 37.365C8.30934 37.34 8.30434 37.31 8.30434 37.295C8.30434 37.285 8.30934 37.28 8.31934 37.285C8.35934 37.31 8.41434 37.325 8.46934 37.325C8.55934 37.325 8.73434 37.295 8.73434 36.97C8.73434 36.945 8.72434 36.945 8.71434 36.96C8.66434 37.03 8.61434 37.045 8.57434 37.045C8.24934 37.045 7.57434 35.965 6.77434 35.965C6.56434 35.965 6.16934 36.115 5.97434 36.33C6.06934 36.385 6.08934 36.505 6.07934 36.59C6.06434 36.725 5.95434 36.795 5.84434 36.825C5.82434 36.83 5.82434 36.845 5.84434 36.855C6.24934 37.01 6.97934 37.285 7.14934 37.43C7.34434 37.6 7.30934 37.92 7.19434 38.365C7.08434 38.79 6.84934 38.735 6.75934 38.72C6.74434 38.72 6.74434 38.725 6.74934 38.735C6.85434 38.865 6.97934 38.91 7.08934 38.91C7.29934 38.91 7.37934 38.78 7.48434 38.78C7.66434 38.78 8.04934 39.04 8.04934 39.24C8.04934 39.35 7.96434 39.455 7.84934 39.525C7.84434 39.53 7.84434 39.54 7.85434 39.54C7.93934 39.555 8.29434 39.585 8.36434 39.265ZM17.1793 39.54C17.1893 39.54 17.1943 39.53 17.1843 39.525C17.0743 39.45 16.9843 39.35 16.9843 39.24C16.9843 39.04 17.3643 38.78 17.5493 38.78C17.6593 38.78 17.7343 38.91 17.9443 38.91C18.0543 38.91 18.1793 38.865 18.2843 38.735C18.2943 38.725 18.2893 38.715 18.2743 38.72C18.1893 38.735 17.9493 38.79 17.8393 38.365C17.7243 37.92 17.6843 37.6 17.8843 37.43C18.0493 37.285 18.7843 37.01 19.1893 36.855C19.2093 36.845 19.2093 36.83 19.1893 36.825C19.0793 36.795 18.9693 36.725 18.9543 36.59C18.9443 36.505 18.9643 36.39 19.0593 36.33C18.8593 36.115 18.4643 35.965 18.2543 35.965C17.4543 35.965 16.7793 37.045 16.4543 37.045C16.4143 37.045 16.3593 37.03 16.3143 36.96C16.3043 36.945 16.2943 36.945 16.2943 36.97C16.2943 37.295 16.4693 37.325 16.5593 37.325C16.6093 37.325 16.6693 37.31 16.7093 37.285C16.7193 37.28 16.7243 37.285 16.7243 37.295C16.7243 37.31 16.7193 37.34 16.7193 37.365C16.7193 37.75 17.1193 38.17 17.1193 38.17C16.9393 38.36 16.4843 38.675 16.3543 38.51C16.2993 38.44 16.0643 38.015 15.7443 38.355C15.7343 38.37 15.7393 38.38 15.7643 38.38C15.9443 38.38 16.0843 38.5 16.0343 38.685C15.7743 38.48 15.4193 38.515 15.4193 38.99C15.4193 39.01 15.4393 39.015 15.4493 39C15.6193 38.755 15.8893 38.92 15.9243 38.955C15.7443 38.98 15.4343 39.195 15.7043 39.57C15.7143 39.585 15.7243 39.585 15.7293 39.57C15.7593 39.325 15.9093 39.28 16.0293 39.28C16.2793 39.28 16.4643 39.51 16.6593 39.265C16.7393 39.585 17.0943 39.555 17.1793 39.54ZM10.7243 33.305C10.6993 33.34 10.6143 33.305 10.5843 33.29C10.5793 33.285 10.5743 33.29 10.5793 33.295C10.5993 33.34 10.6793 33.475 10.7993 33.475C10.8543 33.475 10.9343 33.445 10.9543 33.405C10.9543 33.405 11.4243 33.56 11.6543 33.62C11.5643 33.74 11.5093 33.885 11.4943 34.04C11.3093 33.925 10.5593 33.525 10.5593 33.525L10.3293 33.845C10.2893 33.895 10.1043 33.76 10.1443 33.71L10.3193 33.465C10.2593 33.405 10.1193 33.44 10.0793 33.455C10.0743 33.455 10.0693 33.455 10.0743 33.445C10.0993 33.395 10.1843 33.25 10.4043 33.315C10.4043 33.18 10.2043 33.225 10.1493 33.24C10.1443 33.24 10.1393 33.24 10.1443 33.235C10.1993 33.175 10.3643 33.045 10.5443 33.155L10.6243 33.045L10.4643 32.875L10.5643 32.735L10.6793 32.885L11.5443 31.7C11.5643 31.67 11.7393 31.62 11.7993 31.605C11.8043 31.67 11.8143 31.85 11.7943 31.88L10.9443 33.075L11.1243 33.135L11.0243 33.275L10.8143 33.175L10.7243 33.305ZM13.7593 33.11C13.7593 33.22 13.8243 33.38 13.9693 33.33C13.9743 33.325 13.9843 33.33 13.9793 33.335C13.9593 33.455 13.7393 33.565 13.6443 33.425C13.5543 33.61 13.5793 33.785 13.7643 33.885C13.7743 33.89 13.7743 33.905 13.7643 33.915C13.6493 33.995 13.4743 33.98 13.3943 33.82C13.2393 33.935 13.2593 34.185 13.3543 34.27C13.3543 34.27 12.9243 34.525 12.5343 34.345C12.2743 34.22 12.0643 34.06 11.7293 34.09C11.7743 33.62 12.0093 33.5 12.4393 33.43C12.7843 33.375 12.8243 33.215 12.7793 33.095C12.6643 33.065 12.4493 33.17 12.4493 33.17C12.4093 33.105 12.4643 33.04 12.4643 33.04C12.4443 33.015 12.4343 32.93 12.4343 32.93C12.6743 32.93 12.7193 32.875 12.7193 32.875C12.7643 32.625 12.5093 32.6 12.3143 32.735C12.2243 32.655 12.2393 32.55 12.2393 32.55C12.2143 32.535 12.1943 32.495 12.1943 32.475C12.1943 32.415 12.4793 32.255 12.5543 32.235C12.5743 32.15 12.6743 32.035 12.9793 32.065C13.0143 31.985 12.9543 31.69 12.9193 31.615C12.9093 31.59 12.9243 31.58 12.9493 31.595C13.0543 31.66 13.1593 31.91 13.2343 31.915C13.2343 31.915 13.5743 31.735 13.5893 31.745C13.6043 31.755 13.6543 32.135 13.6543 32.135C13.6993 32.19 13.9643 32.135 14.0793 32.185C14.1093 32.2 14.1093 32.22 14.0793 32.225C13.9943 32.24 13.7193 32.36 13.6743 32.435C13.8343 32.67 13.7593 33.015 13.7593 33.11Z"/>
<path fill="white" d="M30.7148 32.2399C30.9998 32.1549 31.1498 32.0149 31.1698 31.7799L31.5098 27.8199L31.0598 27.6899V27.4649C31.4098 27.4199 31.8348 27.4099 32.1148 27.4099H32.3948L33.6098 31.1699H33.6198L34.7998 27.4099H35.1348C35.4148 27.4099 35.7648 27.4199 36.0748 27.4649V27.6899L35.5948 27.8049L35.9348 32.0699L36.3848 32.1549V32.3249C36.1998 32.4099 35.9348 32.4549 35.6348 32.4549C35.2798 32.4549 35.0548 32.4399 34.7798 32.3749V32.2299C35.1048 32.1499 35.2548 31.9599 35.2398 31.6399L35.0448 28.1199H35.0298L33.6498 32.4199L33.3498 32.4599L31.9548 28.1249L31.9448 28.1349L31.7048 32.0199L32.2098 32.1499V32.3199C31.8748 32.4199 31.6898 32.4499 31.3198 32.4499C31.1398 32.4499 30.9148 32.4199 30.7248 32.3699V32.2399H30.7148Z"/>
<path fill="white" d="M36.8799 32.25C37.0899 32.175 37.2899 32.02 37.2899 31.83V29.21L36.7949 29V28.835C37.1449 28.735 37.4999 28.69 37.7149 28.69H37.9649L37.9249 29.11V32.055L38.3599 32.17V32.315C38.0949 32.41 37.8549 32.445 37.4599 32.445C37.2799 32.445 37.0549 32.43 36.8799 32.375V32.25ZM37.2099 27.535C37.2099 27.295 37.3799 27.08 37.6499 27.08C37.8649 27.08 38.0549 27.245 38.0549 27.5C38.0549 27.77 37.8699 27.98 37.6199 27.98C37.3849 27.975 37.2099 27.79 37.2099 27.535Z"/>
<path fill="white" d="M38.9143 32.2499C39.1143 32.1749 39.3243 32.0199 39.3243 31.8299V29.2099L38.8193 28.9999V28.8299C39.1743 28.7299 39.5243 28.6899 39.7493 28.6899H39.9343V29.1099C40.1993 28.8449 40.6293 28.6749 41.0793 28.6749C41.7243 28.6749 42.1643 29.0849 42.1643 29.8849V32.0549L42.5693 32.1699V32.3149C42.3593 32.3999 42.0893 32.4449 41.7543 32.4449C41.5893 32.4449 41.4043 32.4299 41.2493 32.3749V32.2499C41.4443 32.1649 41.5293 32.0199 41.5293 31.7399V30.2599C41.5293 29.4999 41.2093 29.2149 40.7543 29.2149C40.4343 29.2149 40.1293 29.3249 39.9543 29.4549V32.0599L40.3893 32.1749V32.3199C40.1243 32.4149 39.8793 32.4499 39.4893 32.4499C39.3043 32.4499 39.0843 32.4349 38.9093 32.3799V32.2499H38.9143Z"/>
<path fill="white" d="M43.0996 32.25C43.3096 32.175 43.5096 32.02 43.5096 31.83V29.21L43.0146 29V28.835C43.3646 28.735 43.7197 28.69 43.9347 28.69H44.1847L44.1446 29.11V32.055L44.5797 32.17V32.315C44.3147 32.41 44.0746 32.445 43.6796 32.445C43.4996 32.445 43.2746 32.43 43.0996 32.375V32.25ZM43.4246 27.535C43.4246 27.295 43.5947 27.08 43.8647 27.08C44.0797 27.08 44.2696 27.245 44.2696 27.5C44.2696 27.77 44.0846 27.98 43.8346 27.98C43.5996 27.975 43.4246 27.79 43.4246 27.535Z"/>
<path fill="white" d="M45.0798 31.54C45.4298 31.865 45.7598 32.03 46.1748 32.03C46.6098 32.03 46.8348 31.82 46.8348 31.55C46.8348 31.28 46.6798 31.11 46.1698 30.89L45.7848 30.725C45.3348 30.53 45.0848 30.205 45.0848 29.765C45.0848 29.155 45.6248 28.625 46.4348 28.625C47.0548 28.625 47.3048 28.81 47.3048 29.105C47.3048 29.22 47.2898 29.32 47.2648 29.43C47.0148 29.26 46.6748 29.135 46.3798 29.135C45.8848 29.135 45.6498 29.35 45.6498 29.615C45.6498 29.895 45.7898 30.05 46.2548 30.225L46.6748 30.39C47.2348 30.605 47.4448 30.895 47.4448 31.35C47.4448 31.945 46.8698 32.49 46.0048 32.49C45.3248 32.49 45.0198 32.275 45.0198 31.855C45.0098 31.75 45.0348 31.625 45.0798 31.54Z"/>
<path fill="white" d="M48.2496 30.265L48.2746 29.235H47.8496V28.98L48.6846 28.15L48.9396 28.12L48.9096 28.82H49.9346L49.8796 29.24H48.8896L48.8746 30.215C48.8646 30.54 48.8646 30.835 48.8646 31.12C48.8646 31.75 49.0496 31.965 49.3396 31.965C49.5646 31.965 49.7596 31.885 49.9146 31.765L49.9946 31.795C49.9646 32.25 49.6946 32.485 49.1596 32.485C48.5396 32.485 48.2396 32.16 48.2396 31.405C48.2296 31.03 48.2446 30.62 48.2496 30.265Z"/>
<path fill="white" d="M51.7948 28.6349C52.6298 28.6349 53.1348 29.1949 53.1348 30.0849C53.1348 30.2299 53.1348 30.3849 53.1298 30.5799H50.8448C50.8448 31.4499 51.3498 31.9499 51.9898 31.9499C52.3698 31.9499 52.7898 31.8199 53.0848 31.6149C53.0998 31.6549 53.1148 31.7399 53.1148 31.8149C53.1148 32.1649 52.6048 32.4899 51.7798 32.4899C50.8948 32.4899 50.1748 31.7999 50.1748 30.7149C50.1748 29.3699 50.9848 28.6349 51.7948 28.6349ZM52.5148 30.1799C52.5148 29.4199 52.1898 29.0549 51.7298 29.0549C51.3048 29.0549 50.8548 29.5649 50.8548 30.1799H52.5148Z"/>
<path fill="white" d="M53.675 32.25C53.875 32.175 54.085 32.02 54.085 31.83V29.21L53.585 29V28.83C53.94 28.73 54.29 28.69 54.515 28.69H54.7V29.23H54.71L54.925 28.99C55.135 28.765 55.345 28.65 55.605 28.65C55.875 28.65 56.01 28.765 56.01 28.985C56.01 29.13 55.965 29.305 55.885 29.45C55.74 29.335 55.57 29.27 55.405 29.27C55.165 29.27 54.94 29.38 54.725 29.59V32.055L55.26 32.17V32.315C54.995 32.41 54.74 32.445 54.3 32.445C54.075 32.445 53.86 32.43 53.68 32.375V32.25H53.675Z"/>
<path fill="white" d="M56.3545 32.25C56.5645 32.175 56.7645 32.02 56.7645 31.83V29.21L56.2695 29V28.835C56.6195 28.735 56.9745 28.69 57.1895 28.69H57.4395L57.3995 29.11V32.055L57.8345 32.17V32.315C57.5695 32.41 57.3295 32.445 56.9345 32.445C56.7545 32.445 56.5295 32.43 56.3545 32.375V32.25ZM56.6845 27.535C56.6845 27.295 56.8545 27.08 57.1245 27.08C57.3395 27.08 57.5295 27.245 57.5295 27.5C57.5295 27.77 57.3445 27.98 57.0945 27.98C56.8595 27.975 56.6845 27.79 56.6845 27.535Z"/>
<path fill="white" d="M59.9395 28.635C60.7745 28.635 61.2795 29.195 61.2795 30.085C61.2795 30.23 61.2795 30.385 61.2695 30.58H58.9845C58.9845 31.45 59.4895 31.95 60.1295 31.95C60.5095 31.95 60.9295 31.82 61.2245 31.615C61.2395 31.655 61.2545 31.74 61.2545 31.815C61.2545 32.165 60.7445 32.49 59.9195 32.49C59.0345 32.49 58.3145 31.8 58.3145 30.715C58.3195 29.37 59.1295 28.635 59.9395 28.635ZM60.6595 30.18C60.6595 29.42 60.3345 29.055 59.8745 29.055C59.4495 29.055 58.9995 29.565 58.9995 30.18H60.6595Z"/>
<path fill="white" d="M63.0593 29.0999L62.7393 28.8749V28.6899H64.2193V28.8749L63.7793 29.0599L64.6143 31.5149H64.6243L65.4843 29.0799L65.0443 28.8699V28.6849H66.2393V28.8699L66.0243 29.0499L64.6443 32.4699L64.3793 32.4849L63.0593 29.0999Z"/>
<path fill="white" d="M68.2992 30.37V30.16C68.2992 29.325 68.0992 29.145 67.6092 29.145C67.1842 29.145 66.7742 29.325 66.4442 29.65C66.4292 29.575 66.4192 29.505 66.4192 29.415C66.4192 28.92 66.7842 28.63 67.6892 28.63C68.4742 28.63 68.9392 29.025 68.9392 29.67C68.9392 29.84 68.9142 30.23 68.9092 30.455L68.8842 31.71C68.9392 31.85 69.0542 31.995 69.1942 32.105C69.0792 32.245 68.8692 32.4 68.6692 32.5C68.5242 32.405 68.4042 32.285 68.3142 32.12C68.0992 32.33 67.6792 32.49 67.2692 32.49C66.6892 32.49 66.2842 32.125 66.2842 31.63C66.2842 30.955 67.0292 30.37 68.2992 30.37ZM67.5542 32.03C67.7942 32.03 68.1042 31.935 68.2992 31.82V30.735C67.4242 30.735 66.9492 31.1 66.9492 31.52C66.9492 31.83 67.1592 32.03 67.5542 32.03Z"/>
<path fill="white" d="M69.7893 32.2499C69.9893 32.1749 70.1993 32.0199 70.1993 31.8299V29.2099L69.6943 28.9999V28.8299C70.0493 28.7299 70.3993 28.6899 70.6243 28.6899H70.8093V29.1099C71.0743 28.8449 71.5043 28.6749 71.9543 28.6749C72.5993 28.6749 73.0393 29.0849 73.0393 29.8849V32.0549L73.4443 32.1699V32.3149C73.2343 32.3999 72.9643 32.4449 72.6293 32.4449C72.4643 32.4449 72.2793 32.4299 72.1243 32.3749V32.2499C72.3193 32.1649 72.4043 32.0199 72.4043 31.7399V30.2599C72.4043 29.4999 72.0843 29.2149 71.6293 29.2149C71.3143 29.2149 70.9993 29.3249 70.8293 29.4549V32.0599L71.2643 32.1749V32.3199C70.9993 32.4149 70.7543 32.4499 70.3643 32.4499C70.1793 32.4499 69.9593 32.4349 69.7843 32.3799V32.2499H69.7893Z"/>
<path fill="white" d="M77.7248 27.355C78.8648 27.355 79.7798 28.255 79.7798 29.69C79.7798 31.475 78.6848 32.51 77.4448 32.51C76.3048 32.51 75.3848 31.58 75.3848 30.045C75.3848 28.425 76.5148 27.355 77.7248 27.355ZM79.0198 29.83C79.0198 28.475 78.3598 27.855 77.6398 27.855C76.8948 27.855 76.1498 28.6 76.1498 29.955C76.1498 31.32 76.8148 32.015 77.5198 32.015C78.2648 32.015 79.0198 31.335 79.0198 29.83Z"/>
<path fill="white" d="M80.3947 32.2499C80.5947 32.1749 80.8047 32.0199 80.8047 31.8299V29.2099L80.3047 28.9999V28.8299C80.6597 28.7299 81.0097 28.6899 81.2347 28.6899H81.4197V29.1099C81.6847 28.8449 82.1147 28.6749 82.5647 28.6749C83.2097 28.6749 83.6497 29.0849 83.6497 29.8849V32.0549L84.0547 32.1699V32.3149C83.8447 32.3999 83.5747 32.4449 83.2397 32.4449C83.0747 32.4449 82.8897 32.4299 82.7347 32.3749V32.2499C82.9297 32.1649 83.0147 32.0199 83.0147 31.7399V30.2599C83.0147 29.4999 82.6947 29.2149 82.2397 29.2149C81.9247 29.2149 81.6097 29.3249 81.4397 29.4549V32.0599L81.8747 32.1749V32.3199C81.6097 32.4149 81.3647 32.4499 80.9747 32.4499C80.7897 32.4499 80.5697 32.4349 80.3947 32.3799V32.2499Z"/>
<path fill="white" d="M86.3645 28.6449C86.5495 28.6449 86.7745 28.6699 86.8995 28.6999V27.3349L86.3745 27.1249V26.9549C86.7295 26.8549 87.1095 26.8149 87.3345 26.8149H87.5845L87.5395 27.2499V31.6899C87.5945 31.8449 87.6845 32.0099 87.8345 32.1399C87.6795 32.2799 87.5095 32.3899 87.2945 32.5049C87.1395 32.3799 86.9995 32.2049 86.9245 32.0399C86.6745 32.2949 86.2495 32.4799 85.9345 32.4799C85.1495 32.4799 84.5245 31.8299 84.5245 30.7999C84.5145 29.4049 85.3595 28.6449 86.3645 28.6449ZM86.9095 31.7299V29.1649C86.7795 29.1199 86.5545 29.0799 86.3445 29.0799C85.6845 29.0799 85.1895 29.5999 85.1895 30.6749C85.1895 31.5199 85.6295 31.9749 86.1195 31.9749C86.4095 31.9749 86.7295 31.8749 86.9095 31.7299Z"/>
<path fill="white" d="M90.0097 28.6349C90.8447 28.6349 91.3496 29.1949 91.3496 30.0849C91.3496 30.2299 91.3497 30.3849 91.3447 30.5799H89.0596C89.0596 31.4499 89.5647 31.9499 90.2047 31.9499C90.5847 31.9499 91.0047 31.8199 91.2997 31.6149C91.3147 31.6549 91.3297 31.7399 91.3297 31.8149C91.3297 32.1649 90.8197 32.4899 89.9947 32.4899C89.1097 32.4899 88.3896 31.7999 88.3896 30.7149C88.3896 29.3699 89.1997 28.6349 90.0097 28.6349ZM90.7297 30.1799C90.7297 29.4199 90.4046 29.0549 89.9446 29.0549C89.5196 29.0549 89.0696 29.5649 89.0696 30.1799H90.7297Z"/>
<path fill="white" d="M91.8898 32.2499C92.0898 32.1749 92.2998 32.0199 92.2998 31.8299V29.2099L91.7998 28.9999V28.8299C92.1548 28.7299 92.5048 28.6899 92.7298 28.6899H92.9148V29.2299H92.9248L93.1398 28.9899C93.3498 28.7649 93.5598 28.6499 93.8198 28.6499C94.0898 28.6499 94.2248 28.7649 94.2248 28.9849C94.2248 29.1299 94.1798 29.3049 94.0998 29.4499C93.9548 29.3349 93.7848 29.2699 93.6198 29.2699C93.3798 29.2699 93.1548 29.3799 92.9398 29.5899V32.0549L93.4748 32.1699V32.3149C93.2098 32.4099 92.9548 32.4449 92.5148 32.4449C92.2898 32.4449 92.0748 32.4299 91.8948 32.3749V32.2499H91.8898Z"/>
<path fill="white" d="M94.6954 29.1099L94.3604 28.8799V28.6949H95.8653V28.8799L95.4154 29.0649L96.1054 31.5549H96.1153L96.8854 29.0799L96.4604 28.8799V28.6949H97.7803V28.8799L97.5554 29.0499L98.2553 31.5449H98.2654L99.0654 29.0849L98.6254 28.8749V28.6899H99.8204V28.8749L99.6104 29.0449L98.3103 32.4699L97.9854 32.4849L97.1254 29.6299H97.1153L96.2253 32.4649L95.8754 32.4799L94.6954 29.1099Z"/>
<path fill="white" d="M99.9746 32.25C100.185 32.175 100.385 32.02 100.385 31.83V29.21L99.8896 29V28.835C100.24 28.735 100.595 28.69 100.81 28.69H101.06L101.02 29.11V32.055L101.455 32.17V32.315C101.19 32.41 100.95 32.445 100.555 32.445C100.375 32.445 100.15 32.43 99.9746 32.375V32.25ZM100.3 27.535C100.3 27.295 100.47 27.08 100.74 27.08C100.955 27.08 101.145 27.245 101.145 27.5C101.145 27.77 100.96 27.98 100.71 27.98C100.48 27.975 100.3 27.79 100.3 27.535Z"/>
<path fill="white" d="M102.385 29.21L101.89 29V28.835C102.245 28.735 102.595 28.69 102.82 28.69H103.07L103.025 29.125V32.605C103.025 33.875 102.645 34.27 102.15 34.27C101.98 34.27 101.81 34.21 101.715 34.085V33.96C102.055 33.96 102.39 33.57 102.39 32.78V29.21H102.385ZM102.3 27.535C102.3 27.295 102.47 27.08 102.74 27.08C102.955 27.08 103.145 27.245 103.145 27.5C103.145 27.77 102.96 27.98 102.71 27.98C102.475 27.975 102.3 27.79 102.3 27.535Z"/>
<path fill="white" d="M103.88 31.5399C104.23 31.8649 104.56 32.0299 104.975 32.0299C105.41 32.0299 105.635 31.8199 105.635 31.5499C105.635 31.2799 105.48 31.1099 104.97 30.8899L104.585 30.7249C104.135 30.5299 103.885 30.2049 103.885 29.7649C103.885 29.1549 104.425 28.6249 105.235 28.6249C105.855 28.6249 106.105 28.8099 106.105 29.1049C106.105 29.2199 106.09 29.3199 106.065 29.4299C105.815 29.2599 105.475 29.1349 105.18 29.1349C104.685 29.1349 104.45 29.3499 104.45 29.6149C104.45 29.8949 104.59 30.0499 105.055 30.2249L105.475 30.3899C106.035 30.6049 106.245 30.8949 106.245 31.3499C106.245 31.9449 105.67 32.4899 104.805 32.4899C104.125 32.4899 103.82 32.2749 103.82 31.8549C103.81 31.7499 103.835 31.6249 103.88 31.5399Z"/>
<path fill="white" d="M107.43 31.5349C107.67 31.5349 107.85 31.7049 107.85 31.9749C107.85 32.6949 107.26 33.3099 106.935 33.3999L106.725 33.3449C107.045 33.0099 107.205 32.6649 107.205 32.2149L106.935 31.8749C107.055 31.6799 107.26 31.5349 107.43 31.5349Z"/>
<path fill="white" d="M112.515 27.3649C113.04 27.3649 113.39 27.4349 113.66 27.5749L113.595 28.6499H113.385L113.355 28.5099C113.23 28.0299 113.005 27.8349 112.45 27.8349C111.68 27.8349 110.94 28.6099 110.94 29.9599C110.94 31.3949 111.66 32.0299 112.38 32.0299C112.955 32.0299 113.24 31.8449 113.405 31.4349L113.48 31.2499H113.69L113.61 32.2749C113.325 32.4199 112.85 32.5149 112.26 32.5149C111.135 32.5149 110.175 31.6799 110.175 30.0649C110.18 28.4349 111.29 27.3649 112.515 27.3649Z"/>
<path fill="white" d="M114.65 29.2099L114.21 28.9949V28.8299C114.56 28.7299 114.86 28.6849 115.08 28.6849H115.335L115.29 29.1199V30.8699C115.29 31.6849 115.545 31.9449 116.04 31.9449C116.325 31.9449 116.62 31.8349 116.8 31.7199V29.2099L116.35 28.9949V28.8299C116.705 28.7299 117.01 28.6849 117.225 28.6849H117.48L117.435 29.1199V31.7399C117.49 31.8699 117.605 32.0099 117.73 32.1449C117.615 32.2699 117.395 32.4149 117.205 32.5099C117.05 32.3999 116.91 32.2399 116.84 32.0599C116.645 32.2399 116.205 32.4699 115.725 32.4699C115.065 32.4699 114.655 32.0899 114.655 31.1999V29.2099H114.65Z"/>
<path fill="white" d="M118.355 32.2499C118.555 32.1749 118.765 32.0199 118.765 31.8299V27.3349L118.26 27.1249V26.9549C118.61 26.8549 118.975 26.8149 119.19 26.8149H119.44L119.4 27.2499V32.0549L119.835 32.1699V32.3149C119.57 32.4099 119.325 32.4449 118.935 32.4449C118.75 32.4449 118.53 32.4299 118.355 32.3749V32.2499Z"/>
<path fill="white" d="M120.69 30.265L120.715 29.235H120.29V28.98L121.125 28.15L121.38 28.12L121.35 28.82H122.375L122.32 29.24H121.33L121.315 30.215C121.305 30.54 121.305 30.835 121.305 31.12C121.305 31.75 121.49 31.965 121.78 31.965C122.005 31.965 122.2 31.885 122.355 31.765L122.435 31.795C122.405 32.25 122.135 32.485 121.6 32.485C120.98 32.485 120.68 32.16 120.68 31.405C120.665 31.03 120.68 30.62 120.69 30.265Z"/>
<path fill="white" d="M123.015 29.2099L122.575 28.9949V28.8299C122.925 28.7299 123.225 28.6849 123.445 28.6849H123.7L123.655 29.1199V30.8699C123.655 31.6849 123.91 31.9449 124.405 31.9449C124.69 31.9449 124.985 31.8349 125.165 31.7199V29.2099L124.715 28.9949V28.8299C125.07 28.7299 125.375 28.6849 125.59 28.6849H125.845L125.8 29.1199V31.7399C125.855 31.8699 125.97 32.0099 126.095 32.1449C125.98 32.2699 125.76 32.4149 125.57 32.5099C125.415 32.3999 125.275 32.2399 125.205 32.0599C125.01 32.2399 124.57 32.4699 124.09 32.4699C123.43 32.4699 123.02 32.0899 123.02 31.1999V29.2099H123.015Z"/>
<path fill="white" d="M127.05 29.2099L126.61 28.9949V28.8299C126.96 28.7299 127.26 28.6849 127.48 28.6849H127.735L127.69 29.1199V30.8699C127.69 31.6849 127.945 31.9449 128.44 31.9449C128.725 31.9449 129.02 31.8349 129.2 31.7199V29.2099L128.75 28.9949V28.8299C129.105 28.7299 129.41 28.6849 129.625 28.6849H129.88L129.835 29.1199V31.7399C129.89 31.8699 130.005 32.0099 130.13 32.1449C130.015 32.2699 129.795 32.4149 129.605 32.5099C129.45 32.3999 129.31 32.2399 129.24 32.0599C129.045 32.2399 128.605 32.4699 128.125 32.4699C127.465 32.4699 127.055 32.0899 127.055 31.1999V29.2099H127.05Z"/>
<path fill="white" d="M130.755 32.25C130.955 32.175 131.165 32.02 131.165 31.83V29.21L130.665 29V28.83C131.02 28.73 131.37 28.69 131.595 28.69H131.78V29.23H131.79L132.005 28.99C132.215 28.765 132.425 28.65 132.685 28.65C132.955 28.65 133.09 28.765 133.09 28.985C133.09 29.13 133.045 29.305 132.965 29.45C132.82 29.335 132.65 29.27 132.485 29.27C132.245 29.27 132.02 29.38 131.805 29.59V32.055L132.34 32.17V32.315C132.075 32.41 131.82 32.445 131.38 32.445C131.155 32.445 130.94 32.43 130.76 32.375V32.25H130.755Z"/>
<path fill="white" d="M136.275 28.6349C137.11 28.6349 137.615 29.1949 137.615 30.0849C137.615 30.2299 137.615 30.3849 137.61 30.5799H135.325C135.325 31.4499 135.83 31.9499 136.47 31.9499C136.85 31.9499 137.27 31.8199 137.565 31.6149C137.58 31.6549 137.595 31.7399 137.595 31.8149C137.595 32.1649 137.085 32.4899 136.26 32.4899C135.375 32.4899 134.655 31.7999 134.655 30.7149C134.655 29.3699 135.47 28.6349 136.275 28.6349ZM136.995 30.1799C136.995 29.4199 136.67 29.0549 136.21 29.0549C135.785 29.0549 135.335 29.5649 135.335 30.1799H136.995Z"/>
<path fill="white" d="M138.154 32.2499C138.354 32.1749 138.564 32.0199 138.564 31.8299V29.2099L138.064 28.9999V28.8299C138.419 28.7299 138.769 28.6899 138.994 28.6899H139.179V29.1099C139.444 28.8449 139.874 28.6749 140.324 28.6749C140.969 28.6749 141.409 29.0849 141.409 29.8849V32.0549L141.814 32.1699V32.3149C141.604 32.3999 141.334 32.4449 140.999 32.4449C140.834 32.4449 140.649 32.4299 140.494 32.3749V32.2499C140.689 32.1649 140.774 32.0199 140.774 31.7399V30.2599C140.774 29.4999 140.454 29.2149 139.999 29.2149C139.684 29.2149 139.369 29.3249 139.199 29.4549V32.0599L139.634 32.1749V32.3199C139.369 32.4149 139.124 32.4499 138.734 32.4499C138.549 32.4499 138.329 32.4349 138.154 32.3799V32.2499Z"/>
<path fill="white" d="M30.8547 36.6199L30.4297 36.4899V36.3249C30.6847 36.2399 30.9747 36.1949 31.2197 36.1949C31.4647 36.1949 31.6697 36.2049 31.9097 36.2649V36.4099C31.6697 36.4649 31.5997 36.6049 31.6697 36.8499L32.5147 39.9749H32.5247L33.3447 36.6199L32.9297 36.4999V36.3299C33.2147 36.2449 33.4797 36.2049 33.7747 36.2049C33.9997 36.2049 34.2497 36.2299 34.4047 36.2849V36.4299C34.2497 36.4849 34.2047 36.6099 34.2597 36.8349L35.0097 39.9749H35.0197L35.8747 36.6349L35.3997 36.4899V36.3249C35.6847 36.2399 35.9497 36.1999 36.2147 36.1999C36.4247 36.1999 36.5647 36.2249 36.7197 36.2799V36.4199C36.5197 36.5499 36.4097 36.6899 36.3297 36.9599L35.0597 41.2249L34.7597 41.2549L33.6847 37.1599H33.6747L32.6047 41.2199L32.2997 41.2499L30.8547 36.6199Z"/>
<path fill="white" d="M38.3545 37.4349C39.1895 37.4349 39.6945 37.9949 39.6945 38.8849C39.6945 39.0299 39.6945 39.1849 39.6845 39.3799H37.3995C37.3995 40.2499 37.9045 40.7499 38.5445 40.7499C38.9245 40.7499 39.3445 40.6199 39.6395 40.4149C39.6545 40.4549 39.6695 40.5399 39.6695 40.6149C39.6695 40.9649 39.1595 41.2899 38.3345 41.2899C37.4495 41.2899 36.7295 40.5999 36.7295 39.5149C36.7345 38.1699 37.5495 37.4349 38.3545 37.4349ZM39.0745 38.9799C39.0745 38.2199 38.7495 37.8549 38.2895 37.8549C37.8645 37.8549 37.4145 38.3649 37.4145 38.9799H39.0745Z"/>
<path fill="white" d="M40.5699 39.0649L40.5949 38.0349H40.1699V37.7799L41.0049 36.9499L41.2599 36.9199L41.2299 37.6149H42.2549L42.1999 38.0349H41.2099L41.1949 39.0099C41.1849 39.3349 41.1849 39.6299 41.1849 39.9149C41.1849 40.5449 41.3699 40.7599 41.6599 40.7599C41.8849 40.7599 42.0799 40.6799 42.2349 40.5599L42.3149 40.5899C42.2849 41.0499 42.0149 41.2799 41.4799 41.2799C40.8599 41.2799 40.5599 40.9549 40.5599 40.2049C40.5499 39.8299 40.5649 39.4199 40.5699 39.0649Z"/>
<path fill="white" d="M44.1143 37.4349C44.9493 37.4349 45.4543 37.9949 45.4543 38.8849C45.4543 39.0299 45.4543 39.1849 45.4443 39.3799H43.1593C43.1593 40.2499 43.6643 40.7499 44.3043 40.7499C44.6843 40.7499 45.1043 40.6199 45.3993 40.4149C45.4143 40.4549 45.4293 40.5399 45.4293 40.6149C45.4293 40.9649 44.9193 41.2899 44.0943 41.2899C43.2093 41.2899 42.4893 40.5999 42.4893 39.5149C42.4943 38.1699 43.3043 37.4349 44.1143 37.4349ZM44.8343 38.9799C44.8343 38.2199 44.5093 37.8549 44.0493 37.8549C43.6243 37.8549 43.1743 38.3649 43.1743 38.9799H44.8343Z"/>
<path fill="white" d="M45.9944 41.05C46.1944 40.97 46.4044 40.82 46.4044 40.63V38.01L45.8994 37.8V37.63C46.2544 37.53 46.6044 37.49 46.8294 37.49H47.0144V37.91C47.2794 37.645 47.7094 37.475 48.1594 37.475C48.8044 37.475 49.2444 37.885 49.2444 38.685V40.855L49.6494 40.97V41.115C49.4394 41.2 49.1694 41.245 48.8344 41.245C48.6694 41.245 48.4844 41.23 48.3294 41.175V41.05C48.5244 40.965 48.6094 40.82 48.6094 40.54V39.06C48.6094 38.3 48.2894 38.015 47.8344 38.015C47.5194 38.015 47.2044 38.125 47.0344 38.255V40.86L47.4694 40.975V41.12C47.2044 41.215 46.9594 41.25 46.5694 41.25C46.3844 41.25 46.1644 41.235 45.9894 41.18V41.05H45.9944Z"/>
<path fill="white" d="M50.1345 40.3399C50.4845 40.6649 50.8145 40.8299 51.2295 40.8299C51.6645 40.8299 51.8895 40.6199 51.8895 40.3499C51.8895 40.0799 51.7345 39.9099 51.2245 39.6899L50.8395 39.5249C50.3895 39.3299 50.1395 39.0049 50.1395 38.5649C50.1395 37.9549 50.6795 37.4249 51.4895 37.4249C52.1095 37.4249 52.3595 37.6099 52.3595 37.9049C52.3595 38.0199 52.3445 38.1199 52.3195 38.2299C52.0695 38.0599 51.7295 37.9349 51.4345 37.9349C50.9395 37.9349 50.7045 38.1499 50.7045 38.4149C50.7045 38.6949 50.8445 38.8499 51.3095 39.0249L51.7295 39.1899C52.2895 39.4049 52.4995 39.6949 52.4995 40.1499C52.4995 40.7449 51.9245 41.2899 51.0595 41.2899C50.3795 41.2899 50.0745 41.0749 50.0745 40.6549C50.0645 40.5499 50.0895 40.4299 50.1345 40.3399Z"/>
<path fill="white" d="M54.7253 37.4449C55.3553 37.4449 55.5603 37.6449 55.5603 37.9049C55.5603 38.0499 55.5203 38.1849 55.4653 38.3099C55.1703 38.0799 54.8903 37.9549 54.5653 37.9549C54.0303 37.9549 53.5753 38.4799 53.5753 39.3799C53.5753 40.2999 54.0653 40.7699 54.6703 40.7699C54.9703 40.7699 55.3153 40.6399 55.5553 40.4599C55.5803 40.5049 55.5953 40.5849 55.5953 40.6549C55.5953 41.0199 55.2003 41.3049 54.4653 41.3049C53.6203 41.3049 52.9053 40.5999 52.9053 39.5199C52.9003 38.2399 53.7003 37.4449 54.7253 37.4449Z"/>
<path fill="white" d="M56.0149 41.05C56.2249 40.97 56.4249 40.82 56.4249 40.63V36.135L55.9199 35.925V35.755C56.2699 35.655 56.5849 35.615 56.8499 35.615H57.0999L57.0599 36.05V37.905C57.3399 37.635 57.6949 37.48 58.1849 37.48C58.8449 37.48 59.2699 37.89 59.2699 38.69V40.86L59.6749 40.975V41.12C59.4599 41.205 59.1849 41.25 58.8549 41.25C58.6999 41.25 58.5049 41.235 58.3599 41.18V41.05C58.5449 40.965 58.6399 40.82 58.6399 40.54V39.06C58.6399 38.3 58.3299 38.015 57.8499 38.015C57.5499 38.015 57.2449 38.125 57.0649 38.255V40.86L57.4999 40.975V41.12C57.2349 41.215 56.9949 41.25 56.5999 41.25C56.4199 41.25 56.1949 41.235 56.0199 41.18V41.05H56.0149Z"/>
<path fill="white" d="M62.1097 39.1699V38.9599C62.1097 38.1249 61.9097 37.9449 61.4197 37.9449C60.9947 37.9449 60.5847 38.1249 60.2547 38.4499C60.2397 38.3699 60.2297 38.3049 60.2297 38.2199C60.2297 37.7249 60.5947 37.4349 61.4997 37.4349C62.2847 37.4349 62.7497 37.8299 62.7497 38.4749C62.7497 38.6449 62.7247 39.0349 62.7197 39.2599L62.6947 40.5149C62.7497 40.6549 62.8647 40.7999 63.0047 40.9099C62.8897 41.0499 62.6797 41.2049 62.4797 41.3049C62.3347 41.2099 62.2147 41.0899 62.1247 40.9249C61.9097 41.1349 61.4897 41.2949 61.0797 41.2949C60.4997 41.2949 60.0947 40.9299 60.0947 40.4349C60.0947 39.7549 60.8347 39.1699 62.1097 39.1699ZM61.3647 40.8299C61.6047 40.8299 61.9147 40.7349 62.1097 40.6199V39.5349C61.2347 39.5349 60.7597 39.8999 60.7597 40.3199C60.7597 40.6299 60.9697 40.8299 61.3647 40.8299Z"/>
<path fill="white" d="M64.6048 42.6899L65.1148 42.7999V42.955C64.8498 43.04 64.5398 43.08 64.1398 43.08C63.9548 43.08 63.7348 43.0649 63.5598 43.0099V42.88C63.7598 42.81 63.9698 42.6549 63.9698 42.4599V38.0099L63.4648 37.7999V37.63C63.8198 37.53 64.1698 37.49 64.3948 37.49H64.5798V37.845C64.8298 37.61 65.2248 37.45 65.5798 37.45C66.3648 37.45 66.9898 38.025 66.9898 39.08C66.9898 40.52 66.0898 41.2649 65.0998 41.2649C64.9298 41.2649 64.7298 41.2249 64.6048 41.1699V42.6899ZM65.0898 40.83C65.7798 40.83 66.3198 40.355 66.3198 39.255C66.3198 38.4 65.8298 37.97 65.3048 37.97C65.0248 37.97 64.7848 38.03 64.5898 38.15V40.7799C64.7298 40.8149 64.9048 40.83 65.0898 40.83Z"/>
</g>
<defs>
<clipPath id="clip0_3216_12799">
<rect fill="white" height="62.5" width="157"/>
</clipPath>
</defs>
</svg>