<svg xmlns="http://www.w3.org/2000/svg" fill="none" viewBox="0 0 172 16" height="16" width="172">
<path fill="#F4ECDD" d="M28 14.0934V0.27124H31.8342V14.0934H28Z"/>
<path fill="#F4ECDD" d="M42.831 3.3496H37.5734V6.28166H41.4472V9.19239H37.5734V10.9937H42.831V14.0934H33.7422V0.27124H42.831V3.3496Z"/>
<path fill="#F4ECDD" d="M53.6366 0.27124H57.2392V14.0934H55.7122L48.1687 7.2265V14.0964H44.5234V0.27124H46.0504L53.6305 7.22345V0.27124H53.6366Z"/>
<path fill="#F4ECDD" d="M64.4997 0.27124C69.4434 0.27124 72.3541 2.51143 72.3541 6.97353C72.3541 11.268 69.9249 14.0934 64.521 14.0934H58.9922V0.27124H64.4997ZM64.5424 10.9937C67.2215 10.9937 68.4376 9.65261 68.4376 7.18383C68.4376 5.0686 67.2641 3.35265 64.4997 3.35265H62.8234V10.9967H64.5424V10.9937Z"/>
<path fill="#F4ECDD" d="M82.9247 3.3496H77.6671V6.28166H81.541V9.19239H77.6671V10.9937H82.9247V14.0934H73.8359V0.27124H82.9247V3.3496Z"/>
<path fill="#F4ECDD" d="M93.7664 0.27124H97.369V14.0934H95.842L88.3015 7.2265V14.0964H84.6562V0.27124H86.1832L93.7633 7.22345V0.27124H93.7664Z"/>
<path fill="#F4ECDD" d="M23.2939 9.73491C25.1622 9.03694 26.3143 7.57396 26.3143 5.1509C26.3143 2.02987 24.4307 0.27124 19.7797 0.27124H15.0859V14.0934H18.9202V10.2409H19.3255L22.2546 14.0934H26.8142L23.2939 9.73491ZM19.7157 7.24479H18.9202V3.37093H19.926C21.7486 3.37093 22.3765 4.10243 22.3765 5.33986C22.3734 6.76322 21.5596 7.24479 19.7157 7.24479Z"/>
<path fill="#F4ECDD" d="M10.3963 0.27124L7.16556 7.70197L3.83423 0.27124H0L6.42798 14.0111H7.86048L14.2519 0.27124H10.3963Z"/>
<path fill="#F4ECDD" d="M102.964 10.9937H107.435V14.0934H99.1328V0.27124H102.964V10.9937Z"/>
<path fill="#F4ECDD" d="M108.094 7.05584C108.094 2.32248 110.816 0 115.15 0C119.548 0 122.269 2.38649 122.269 6.97355C122.269 11.6642 119.444 14.3647 115.086 14.3647C110.898 14.3647 108.094 11.8715 108.094 7.05584ZM118.31 7.03451C118.31 4.37371 117.179 3.13932 115.171 3.13932C113.162 3.13932 112.032 4.37371 112.032 7.05584C112.032 9.82027 113.226 11.201 115.153 11.201C117.119 11.201 118.31 9.75626 118.31 7.03451Z"/>
<path fill="#F4ECDD" d="M134.771 0.271484V3.34984H130.73V14.0906H126.899V3.34984H122.836V0.271484H134.771Z"/>
<path fill="#F4ECDD" d="M145.506 3.34984H140.251V6.2819H144.122V9.19263H140.248V10.9939H145.503V14.0936H136.414V0.271484H145.503V3.34984H145.506Z"/>
<path fill="#F4ECDD" d="M155.4 9.73515C157.269 9.03719 158.421 7.5742 158.421 5.15114C158.421 2.03011 156.537 0.271484 151.886 0.271484H147.195V14.0936H151.03V10.2381H151.435L154.364 14.0906H158.924L155.4 9.73515ZM151.822 7.24503H151.026V3.36813H152.032C153.855 3.36813 154.483 4.09962 154.483 5.33706C154.483 6.76347 153.666 7.24503 151.822 7.24503Z"/>
<path fill="#F4ECDD" d="M160.062 14.0906V0.271484H163.894V14.0906H160.062Z"/>
<path fill="#F4ECDD" d="M167.729 0.271484H171.584V10.3783C171.584 14.4411 168.817 15.9254 164.961 15.9254L164.852 12.8135C166.933 12.8135 167.732 11.9083 167.732 9.69858V0.271484H167.729Z"/>
</svg>