<svg width="133" height="124" viewBox="0 0 133 124" fill="none" xmlns="http://www.w3.org/2000/svg">
<g clip-path="url(#clip0_136_87)">
<mask id="mask0_136_87" style="mask-type:luminance" maskUnits="userSpaceOnUse" x="0" y="0" width="133" height="124">
<path d="M133 0H0V124H133V0Z" fill="white"/>
</mask>
<g mask="url(#mask0_136_87)">
<path d="M26.439 8.58202H30.883V4.13401H26.44V8.58202H26.439ZM26.439 26.383H30.883V21.933H26.44V26.383H26.439ZM39.774 17.487H44.219V13.038H39.774V17.487ZM53.11 8.58002H57.555V4.13401H53.11V8.58102V8.58002ZM53.11 97.567H57.555V93.117H53.11V97.567ZM26.439 79.772H30.883V75.326H26.44V79.774V79.772H26.439ZM39.773 88.67H44.218V84.22H39.774L39.773 88.67ZM26.44 97.568H30.884V93.118H26.44V97.568ZM106.456 44.178H110.901V39.728H106.456V44.178ZM93.122 53.075H97.567V48.625H93.12L93.122 53.075ZM106.456 61.972H110.901V57.525H106.456V61.972ZM66.451 17.486H70.896V13.037H66.45V17.487L66.451 17.486ZM79.786 8.58002H84.231V4.13401H79.786V8.58102V8.58002ZM53.109 26.384H57.554V21.934H53.11L53.109 26.384ZM79.786 26.384H84.231V21.934H79.786V26.384ZM93.121 17.488H97.566V13.039H93.12V17.489L93.121 17.488ZM66.451 35.28H70.896V30.833H66.45L66.451 35.28ZM93.121 35.28H97.566V30.833H93.12L93.121 35.28ZM106.455 26.383H110.9V21.933H106.455V26.383ZM79.785 44.181H84.231V39.731H79.786L79.785 44.181ZM57.555 75.323H53.109V79.773H57.554L57.555 75.323ZM70.895 84.222H66.45V88.67H70.896V84.222H70.895ZM79.787 97.567H84.231V93.119H79.786L79.787 97.567ZM39.772 70.877H44.217V66.427H39.774V70.877H39.772ZM93.121 88.67H97.566V84.22H93.12L93.121 88.67ZM106.455 79.771H110.9V75.325H106.455V79.771ZM106.455 97.568H110.9V93.118H106.455V97.568ZM26.439 44.178H30.883V39.728H26.44V44.178H26.439ZM39.773 35.278H44.218V30.833H39.774V35.28L39.773 35.278ZM106.455 8.58102H110.9V4.13401H106.455V8.58102ZM39.773 53.075H44.218V48.627H39.774L39.773 53.075ZM53.11 44.18H57.555V39.73H53.11V44.18ZM26.44 61.974H30.884V57.526H26.44V61.974ZM93.122 70.878H97.567V66.428H93.12L93.122 70.878ZM79.787 79.773H84.232V75.327H79.787V79.773ZM75.34 53.074H70.897V44.177H62.006V53.074H57.561V57.523H48.671V66.42H57.562V70.869H62.006V79.766H70.896V70.87H75.34V66.42H84.231V57.523H75.341V53.074H75.34ZM70.898 66.42H62.007V57.523H70.897L70.898 66.42ZM119.798 35.282H124.242V30.834H119.798V35.282ZM119.798 53.076H124.242V48.627H119.798V53.076ZM119.798 70.878H124.242V66.428H119.798V70.878ZM119.798 88.672H124.242V84.222H119.798V88.672ZM124.242 13.039H119.798V17.489H124.242V13.039ZM142.024 -9.21099H137.579V-18.108H128.689V-9.21099H124.243V-4.76198H115.353V4.13601H124.243V8.58302H128.689V17.482H137.579V8.58202H142.024V4.13502H150.914V-4.76299H142.024V-9.21099ZM137.579 4.13401H128.689V-4.76398H137.579V4.13401ZM13.103 17.485H17.548V13.038H13.104V17.488V17.485H13.103ZM4.213 21.934H-0.237001V26.384H4.213V21.934ZM13.105 35.28H17.548V30.833H13.104L13.105 35.28ZM-0.238003 44.179H4.212V39.729H-0.238003V44.179ZM-0.238003 61.973H4.212V57.525H-0.238003V61.973ZM13.103 53.075H17.547V48.627H13.103V53.075ZM-0.236002 97.57H4.214V93.12H-0.236002V97.57ZM13.104 70.879H17.547V66.429H13.102L13.104 70.879ZM-0.236002 79.773H4.214V75.327H-0.236002V79.773ZM13.104 88.673H17.546V84.223H13.102L13.104 88.673ZM8.656 -9.21398H4.214V-18.11H-4.677V-9.21299H-9.121V-4.76398H-18.011V4.13401H-9.12V8.58002H-4.675V17.479H4.215V8.57902H8.661V4.13502H17.552V-4.76299H8.662V-9.21198H8.656V-9.21398ZM4.214 4.13401H-4.677V-4.76398H4.213V4.13401H4.214ZM39.774 106.466H44.219V102.016H39.774V106.466ZM53.11 115.362H57.555V110.913H53.11V115.362ZM66.451 106.466H70.897V102.016H66.45L66.451 106.466ZM66.451 124.266H70.897V119.819H66.45L66.451 124.266ZM39.774 124.266H44.219V119.819H39.774V124.266ZM26.44 115.362H30.884V110.913H26.44V115.362ZM93.122 106.466H97.567V102.016H93.12L93.122 106.466ZM79.787 115.362H84.232V110.913H79.787V115.362ZM106.456 115.362H110.901V110.913H106.456V115.362ZM93.122 124.266H97.567V119.819H93.12L93.122 124.266ZM119.799 106.466H124.243V102.016H119.799V106.466ZM142.025 115.363H137.58V106.467H128.69V115.363H124.244V119.812H115.354V128.708H124.244V133.158H128.69V142.055H137.58V133.158H142.025V128.708H150.915V119.812H142.025V115.363ZM137.58 128.708H128.69V119.812H137.58V128.708ZM13.103 106.466H17.548V102.016H13.104V106.466H13.103ZM8.659 115.363H4.214V106.467H-4.677V115.363H-9.121V119.812H-18.011V128.708H-9.12V133.158H-4.675V142.055H4.215V133.158H8.661V128.708H17.552V119.812H8.662V115.363H8.659ZM4.214 128.708H-4.677V119.812H4.213V128.708H4.214Z" fill="#17313A"/>
</g>
</g>
<defs>
<clipPath id="clip0_136_87">
<rect width="133" height="124" fill="white"/>
</clipPath>
</defs>
</svg>
