<svg width="85" height="85" viewBox="0 0 85 85" fill="none" xmlns="http://www.w3.org/2000/svg">
<g clip-path="url(#clip0_137_44)">
<mask id="mask0_137_44" style="mask-type:luminance" maskUnits="userSpaceOnUse" x="0" y="0" width="85" height="85">
<path d="M0 0H85V85H0V0Z" fill="white"/>
</mask>
<g mask="url(#mask0_137_44)">
<path d="M-9.00999 35.828C-10.7866 34.2641 -13.0731 33.4028 -15.44 33.406C-20.8 33.406 -25.15 37.706 -25.15 43.003C-25.15 48.301 -20.8 52.6 -15.44 52.6C-12.97 52.6 -10.72 51.681 -9.00999 50.179C-8.46781 50.853 -7.85049 51.463 -7.16999 51.997C-8.74651 53.7386 -9.61967 56.0038 -9.61999 58.353C-9.61999 63.65 -5.26999 67.95 0.0900059 67.95C5.45001 67.95 9.80001 63.65 9.80001 58.353C9.80001 55.911 8.87001 53.687 7.35001 51.997C8.0305 51.463 8.64783 50.853 9.19001 50.179C10.9668 51.7425 13.2533 52.6034 15.62 52.6C20.98 52.6 25.33 48.3 25.33 43.003C25.33 37.706 20.98 33.406 15.62 33.406C13.15 33.406 10.9 34.326 9.19001 35.828C8.64788 35.1536 8.03055 34.5433 7.35001 34.009C8.92629 32.2676 9.79944 30.0028 9.80001 27.654C9.80001 22.356 5.45001 18.057 0.0900059 18.057C-5.26999 18.057 -9.61999 22.357 -9.61999 27.654C-9.61999 30.095 -8.68999 32.319 -7.16999 34.009C-7.85054 34.5433 -8.46787 35.1536 -9.00999 35.828ZM33.71 -6.38502C31.9334 -7.94889 29.6469 -8.81016 27.28 -8.80702C21.92 -8.80702 17.57 -4.50701 17.57 0.789986C17.57 6.08799 21.92 10.378 27.28 10.378C29.75 10.378 32 9.45799 33.71 7.95599C34.25 8.62799 34.87 9.24099 35.55 9.77499C33.9737 11.5163 33.1006 13.7812 33.1 16.13C33.1 21.428 37.45 25.727 42.81 25.727C48.17 25.727 52.52 21.427 52.52 16.13C52.52 13.689 51.59 11.465 50.07 9.77499C50.75 9.24099 51.37 8.62799 51.91 7.95599C53.6866 9.51986 55.9731 10.3811 58.34 10.378C63.7 10.378 68.05 6.07799 68.05 0.779985C68.05 -4.51701 63.7 -8.81702 58.34 -8.81702C55.87 -8.81702 53.62 -7.89702 51.91 -6.39502C51.3679 -7.06938 50.7505 -7.67966 50.07 -8.21402C51.6463 -9.95536 52.5194 -12.2202 52.52 -14.569C52.52 -19.867 48.17 -24.166 42.81 -24.166C37.45 -24.166 33.1 -19.866 33.1 -14.569C33.1 -12.128 34.03 -9.90402 35.55 -8.21402C34.87 -7.68002 34.25 -7.06702 33.71 -6.39502V-6.38502ZM76.42 35.828C74.6434 34.2641 72.3569 33.4028 69.99 33.406C64.63 33.406 60.28 37.706 60.28 43.003C60.28 48.301 64.63 52.6 69.99 52.6C72.46 52.6 74.71 51.681 76.42 50.179C76.9622 50.853 77.5795 51.463 78.26 51.997C76.6835 53.7386 75.8103 56.0038 75.81 58.353C75.81 63.65 80.16 67.95 85.52 67.95C90.88 67.95 95.23 63.65 95.23 58.353C95.23 55.911 94.3 53.687 92.78 51.997C93.4605 51.463 94.0778 50.853 94.62 50.179C96.3968 51.7425 98.6833 52.6034 101.05 52.6C106.41 52.6 110.76 48.3 110.76 43.003C110.76 37.706 106.41 33.406 101.05 33.406C98.58 33.406 96.33 34.326 94.62 35.828C94.0779 35.1536 93.4606 34.5433 92.78 34.009C94.3563 32.2676 95.2294 30.0028 95.23 27.654C95.23 22.356 90.88 18.057 85.52 18.057C80.16 18.057 75.81 22.357 75.81 27.654C75.81 30.095 76.74 32.319 78.26 34.009C77.5795 34.5433 76.9621 35.1536 76.42 35.828ZM33.71 78.052C31.9333 76.4885 29.6467 75.6276 27.28 75.631C21.92 75.631 17.57 79.931 17.57 85.228C17.57 90.525 21.92 94.825 27.28 94.825C29.75 94.825 32 93.905 33.71 92.403C34.2521 93.0774 34.8695 93.6876 35.55 94.222C33.9737 95.9633 33.1006 98.2282 33.1 100.577C33.1 105.875 37.45 110.174 42.81 110.174C48.17 110.174 52.52 105.875 52.52 100.577C52.52 98.136 51.59 95.912 50.07 94.222C50.7506 93.6876 51.3679 93.0774 51.91 92.403C53.6866 93.9669 55.9731 94.8281 58.34 94.825C63.7 94.825 68.05 90.525 68.05 85.228C68.05 79.93 63.7 75.631 58.34 75.631C55.87 75.631 53.62 76.55 51.91 78.052C51.3678 77.378 50.7505 76.768 50.07 76.234C51.6465 74.4924 52.5197 72.2271 52.52 69.878C52.52 64.581 48.17 60.281 42.81 60.281C37.45 60.281 33.1 64.581 33.1 69.878C33.1 72.32 34.03 74.543 35.55 76.234C34.8695 76.768 34.2522 77.378 33.71 78.052Z" fill="#1A3038"/>
</g>
</g>
<defs>
<clipPath id="clip0_137_44">
<rect width="85" height="85" fill="white"/>
</clipPath>
</defs>
</svg>
