<svg xmlns="http://www.w3.org/2000/svg" viewBox="0 0 32 32">
  <path fill="currentColor" d="M16 7.786c1.476 0 2.845.369 4.107 1.107a8.238 8.238 0 0 1 3 3A7.993 7.993 0 0 1 24.214 16a7.993 7.993 0 0 1-1.107 4.107 8.24 8.24 0 0 1-3 3A7.994 7.994 0 0 1 16 24.214a7.994 7.994 0 0 1-4.107-1.107 8.24 8.24 0 0 1-3-3A7.993 7.993 0 0 1 7.786 16c0-1.476.369-2.845 1.107-4.107a8.238 8.238 0 0 1 3-3A7.994 7.994 0 0 1 16 7.786Zm0 13.571c1.476 0 2.738-.524 3.786-1.571 1.047-1.048 1.571-2.31 1.571-3.786s-.524-2.738-1.571-3.786c-1.048-1.047-2.31-1.571-3.786-1.571s-2.738.524-3.786 1.571c-1.047 1.048-1.571 2.31-1.571 3.786s.524 2.738 1.571 3.786c1.048 1.047 2.31 1.571 3.786 1.571ZM26.5 7.428c-.048.524-.25.977-.607 1.358a1.74 1.74 0 0 1-1.322.571c-.524 0-.976-.19-1.357-.571a1.854 1.854 0 0 1-.571-1.358c0-.523.19-.976.571-1.357.381-.38.834-.571 1.357-.571.524 0 .976.19 1.357.571.381.381.572.834.572 1.357Zm5.428 1.93C31.976 10.69 32 12.904 32 16s-.036 5.321-.107 6.678c-.072 1.358-.274 2.536-.608 3.536a8.325 8.325 0 0 1-1.964 3.107 8.325 8.325 0 0 1-3.107 1.965c-1 .333-2.178.535-3.536.607-1.357.071-3.583.107-6.678.107-3.095 0-5.322-.036-6.679-.107-1.357-.072-2.535-.298-3.535-.679a7.614 7.614 0 0 1-3.107-1.893 8.324 8.324 0 0 1-1.965-3.107c-.333-1-.535-2.178-.607-3.536C.036 21.321 0 19.095 0 16c0-3.095.036-5.322.107-6.679.072-1.357.274-2.535.607-3.535A8.324 8.324 0 0 1 2.68 2.679 8.326 8.326 0 0 1 5.786.714C6.786.381 7.964.18 9.32.107 10.678.036 12.905 0 16 0s5.321.036 6.678.107c1.358.072 2.536.274 3.536.607a8.326 8.326 0 0 1 3.107 1.965 8.325 8.325 0 0 1 1.964 3.107c.334 1 .548 2.19.643 3.571ZM28.5 25.427c.285-.809.476-2.095.571-3.857.048-1.047.072-2.523.072-4.428v-2.286c0-1.952-.024-3.428-.072-4.428-.095-1.81-.286-3.096-.571-3.858-.572-1.476-1.595-2.5-3.072-3.071-.761-.286-2.047-.476-3.857-.571-1.047-.048-2.523-.072-4.428-.072h-2.286c-1.905 0-3.38.024-4.428.072-1.762.095-3.048.285-3.858.571-1.476.571-2.5 1.595-3.071 3.071-.286.762-.476 2.048-.571 3.857-.048 1.048-.072 2.524-.072 4.43v2.285c0 1.905.024 3.38.072 4.428.095 1.762.285 3.048.57 3.857.62 1.477 1.644 2.5 3.072 3.072.81.286 2.096.476 3.857.571 1.048.048 2.524.072 4.429.072h2.286c1.952 0 3.428-.024 4.428-.072 1.81-.095 3.096-.285 3.857-.571 1.477-.62 2.5-1.643 3.072-3.072Z"/>
</svg>