<svg xmlns="http://www.w3.org/2000/svg" fill="none" viewBox="0 0 32 32">
  <path fill="currentColor" d="M0 13.827v-1.638h32v1.638H0Zm0-4.095V8.095h32v1.637H0Zm0-4.094V4h32v1.638H0ZM4.764 25.967l2.682-5.963h1.158v7.861H7.346v-5.054l-2.282 5.054h-.69l-2.26-4.997v4.997H.858v-7.861h1.224l2.683 5.963ZM11.605 24.44v2.19h3.962v1.235h-5.253v-7.861h5.142v1.235h-3.851v2h3.428v1.2h-3.428ZM21.788 25.608v-5.604h1.257v7.861h-1.19l-3.73-5.604v5.604h-1.257v-7.861h1.19l3.73 5.604ZM27.709 28c-1.814 0-3.005-1.325-3.005-3.077v-4.92h1.29v4.92c0 1.078.646 1.83 1.715 1.83 1.068 0 1.714-.752 1.714-1.83v-4.92h1.291v4.92c0 1.752-1.191 3.077-3.005 3.077Z"/>
</svg>