<svg width="171" height="197" viewBox="0 0 171 197" fill="none" xmlns="http://www.w3.org/2000/svg">
<rect width="171" height="197" fill="#F4ECDD"/>
<path d="M105.455 51.202L145.682 91.3347V51.202H105.455Z" fill="#1A3038"/>
<path d="M24.9924 91.3347L65.2257 51.202H24.9924V91.3347Z" fill="#1A3038"/>
<path d="M105.453 51.208H65.2257V171.594H105.453V51.208Z" fill="#1A3038"/>
<path d="M30.1043 29.886H24.9924V24.7869H40.4727V29.886H35.3668V43.676H30.1043V29.886Z" fill="#1A3038"/>
<path d="M43.3215 24.7869H57.4531V29.4356H48.584V31.832H56.7005V36.3306H48.584V39.0333H57.7542V43.676H43.3215V24.7869Z" fill="#1A3038"/>
<path d="M65.9488 36.781L59.4822 24.7869H65.1962L68.5018 31.5317H68.6523L71.9579 24.7869H77.6719L71.2113 36.781V43.676H65.9488V36.781Z" fill="#1A3038"/>
<path d="M79.6481 24.7869H84.9105V38.5829H93.1775V43.676H79.6481V24.7869Z" fill="#1A3038"/>
<path d="M95.7311 24.7869H109.863V29.4356H100.994V31.832H109.11V36.3306H100.994V39.0333H110.158V43.676H95.7311V24.7869Z" fill="#1A3038"/>
<path d="M121.441 32.8834C122.043 32.8834 122.518 32.7212 122.868 32.4029C123.217 32.0846 123.398 31.6942 123.398 31.2317C123.398 30.7692 123.223 30.3788 122.868 30.0605C122.518 29.7422 122.043 29.58 121.441 29.58H118.737V32.8774H121.441V32.8834ZM113.475 24.7872H121.742C122.783 24.7872 123.741 24.9493 124.614 25.2797C125.487 25.61 126.234 26.0725 126.854 26.6611C127.474 27.2497 127.956 27.9344 128.299 28.7152C128.636 29.496 128.811 30.3308 128.811 31.2317C128.811 32.1927 128.636 32.9975 128.287 33.6462C127.938 34.2948 127.558 34.8294 127.161 35.2498C126.661 35.7483 126.107 36.1567 125.511 36.481L129.72 43.6763H123.861C123.584 43.1778 123.265 42.5892 122.916 41.9106C122.567 41.2319 122.223 40.5712 121.88 39.9285C121.501 39.1898 121.11 38.439 120.706 37.6823H118.749V43.6824H113.487V24.7932L113.475 24.7872Z" fill="#1A3038"/>
<path d="M138.577 43.9767C137.415 43.9767 136.368 43.8145 135.434 43.4842C134.501 43.1538 133.712 42.6974 133.074 42.1028C132.436 41.5142 131.936 40.8295 131.587 40.0487C131.238 39.2679 131.063 38.427 131.063 37.5321L136.175 37.0817C136.175 37.6823 136.374 38.1808 136.777 38.5832C137.181 38.9856 137.68 39.1838 138.282 39.1838C138.963 39.1838 139.457 39.0336 139.77 38.7333C140.077 38.433 140.233 38.1327 140.233 37.8324C140.233 37.454 140.01 37.1537 139.571 36.9315C139.131 36.7093 138.583 36.4991 137.933 36.2889C137.283 36.0786 136.572 35.8384 135.802 35.5681C135.031 35.2978 134.32 34.9375 133.664 34.487C133.014 34.0366 132.466 33.46 132.026 32.7453C131.587 32.0365 131.364 31.1296 131.364 30.0305C131.364 29.2918 131.521 28.583 131.834 27.9043C132.141 27.2257 132.592 26.6371 133.183 26.1325C133.773 25.628 134.501 25.2316 135.362 24.9313C136.223 24.631 137.193 24.4809 138.276 24.4809C139.36 24.4809 140.414 24.643 141.329 24.9734C142.238 25.3037 143.015 25.7542 143.659 26.3247C144.304 26.8953 144.791 27.562 145.134 28.3368C145.478 29.1056 145.646 29.9224 145.646 30.7813L140.534 31.2317C140.534 30.6311 140.342 30.1566 139.95 29.8083C139.559 29.4599 139.101 29.2857 138.583 29.2857C138.12 29.2857 137.759 29.4119 137.488 29.6581C137.217 29.9104 137.078 30.1807 137.078 30.481C137.078 30.8593 137.295 31.1536 137.74 31.3639C138.18 31.5741 138.728 31.7783 139.378 31.9765C140.029 32.1747 140.739 32.4029 141.516 32.6492C142.286 32.9014 142.997 33.2498 143.653 33.7002C144.304 34.1507 144.851 34.7273 145.291 35.424C145.731 36.1267 145.953 37.0216 145.953 38.1207C145.953 38.8835 145.785 39.6102 145.442 40.3069C145.098 41.0096 144.611 41.6283 143.966 42.1628C143.322 42.7034 142.551 43.1358 141.636 43.4661C140.727 43.7965 139.709 43.9586 138.583 43.9586L138.577 43.9767Z" fill="#1A3038"/>
</svg>