<svg xmlns="http://www.w3.org/2000/svg" viewBox="0 0 242 286" width="242" height="286">
  <path fill="#1A3038" d="m175.141 85.25 66.81 66.82V85.25h-66.81ZM41.508 152.07l66.82-66.82h-66.82v66.82ZM175.138 85.26h-66.81V285.7h66.81V85.26ZM49.998 49.76h-8.49v-8.49h25.71v8.49h-8.48v22.96h-8.74V49.76ZM71.95 41.27h23.47v7.74H80.69V53h13.48v7.49H80.69v4.5h15.23v7.73H71.95V41.27ZM109.529 61.24l-10.74-19.97h9.49l5.49 11.23h.25l5.49-11.23h9.49l-10.73 19.97v11.48h-8.74V61.24ZM132.281 41.27h8.74v22.97h13.73v8.48h-22.47V41.27ZM158.992 41.27h23.47v7.74h-14.73V53h13.48v7.49h-13.48v4.5h15.22v7.73h-23.96V41.27Z"/>
</svg>