<svg width="192" height="221" viewBox="0 0 192 221" fill="none" xmlns="http://www.w3.org/2000/svg">
<mask id="mask0_146_2" style="mask-type:luminance" maskUnits="userSpaceOnUse" x="0" y="0" width="192" height="221">
<path d="M191.635 0H0V220.407H191.635V0Z" fill="white"/>
</mask>
<g mask="url(#mask0_146_2)">
<path d="M191.635 0H0V220.407H191.635V0Z" fill="#F4ECDD"/>
<path d="M118.405 57.4398L163.573 102.462V57.4398H118.405Z" fill="#1A3038"/>
<path d="M28.0616 102.462L73.2358 57.4398H28.0616V102.462Z" fill="#1A3038"/>
<path d="M118.403 57.4465H73.2358V192.499H118.403V57.4465Z" fill="#1A3038"/>
<path d="M33.8013 33.527H28.0616V27.8066H45.443V33.527H39.71V48.997H33.8013V33.527Z" fill="#1A3038"/>
<path d="M48.6417 27.8066H64.5088V33.0216H54.5505V35.71H63.6637V40.7566H54.5505V43.7887H64.8468V48.997H48.6417V27.8066Z" fill="#1A3038"/>
<path d="M74.0478 41.262L66.787 27.8066H73.2027L76.9142 35.3731H77.0833L80.7948 27.8066H87.2106L79.9565 41.262V48.997H74.0478V41.262Z" fill="#1A3038"/>
<path d="M89.4294 27.8066H95.3381V43.2833H104.62V48.997H89.4294V27.8066Z" fill="#1A3038"/>
<path d="M107.488 27.8066H123.355V33.0216H113.396V35.71H122.51V40.7566H113.396V43.7887H123.686V48.997H107.488V27.8066Z" fill="#1A3038"/>
<mask id="mask1_146_2" style="mask-type:luminance" maskUnits="userSpaceOnUse" x="0" y="0" width="192" height="221">
<path d="M191.635 0H0V220.407H191.635V0Z" fill="#F4ECDD"/>
</mask>
<g mask="url(#mask1_146_2)">
<path d="M136.354 36.8895C137.031 36.8895 137.565 36.7076 137.957 36.3505C138.349 35.9933 138.552 35.5554 138.552 35.0366C138.552 34.5178 138.356 34.0798 137.957 33.7227C137.565 33.3656 137.031 33.1837 136.354 33.1837H133.319V36.8827H136.354V36.8895ZM127.41 27.8069H136.692C137.862 27.8069 138.937 27.9888 139.917 28.3594C140.898 28.73 141.736 29.2488 142.432 29.9091C143.129 30.5694 143.669 31.3375 144.055 32.2134C144.433 33.0894 144.629 34.0259 144.629 35.0366C144.629 36.1146 144.433 37.0175 144.041 37.7452C143.649 38.4729 143.223 39.0725 142.777 39.5442C142.216 40.1034 141.594 40.5616 140.925 40.9254L145.65 48.9973H139.072C138.761 48.4381 138.403 47.7778 138.011 47.0164C137.619 46.255 137.233 45.5139 136.848 44.7929C136.422 43.9642 135.983 43.1219 135.53 42.273H133.332V49.0041H127.424V27.8137L127.41 27.8069Z" fill="#1A3038"/>
<path d="M155.596 49.3342C154.291 49.3342 153.115 49.1523 152.067 48.7817C151.019 48.4111 150.133 47.8991 149.417 47.232C148.7 46.5717 148.139 45.8036 147.747 44.9277C147.355 44.0518 147.159 43.1085 147.159 42.1045L152.898 41.5992C152.898 42.273 153.121 42.8322 153.574 43.2837C154.027 43.7351 154.588 43.9574 155.264 43.9574C156.028 43.9574 156.583 43.789 156.934 43.4521C157.279 43.1152 157.455 42.7783 157.455 42.4414C157.455 42.0169 157.205 41.6801 156.711 41.4308C156.218 41.1815 155.602 40.9456 154.872 40.7098C154.142 40.474 153.344 40.2045 152.479 39.9013C151.614 39.5981 150.816 39.1938 150.079 38.6885C149.349 38.1831 148.734 37.5363 148.24 36.7345C147.747 35.9394 147.497 34.922 147.497 33.689C147.497 32.8603 147.672 32.0652 148.024 31.3038C148.369 30.5425 148.876 29.8822 149.538 29.3162C150.201 28.7502 151.019 28.3055 151.986 27.9686C152.952 27.6317 154.041 27.4633 155.258 27.4633C156.475 27.4633 157.658 27.6452 158.685 28.0158C159.706 28.3864 160.578 28.8917 161.302 29.5318C162.025 30.1719 162.573 30.9198 162.958 31.789C163.343 32.6514 163.533 33.5677 163.533 34.5312L157.793 35.0366C157.793 34.3628 157.577 33.8305 157.137 33.4397C156.698 33.0489 156.184 32.8535 155.602 32.8535C155.082 32.8535 154.676 32.995 154.372 33.2713C154.068 33.5543 153.912 33.8575 153.912 34.1944C153.912 34.6188 154.156 34.949 154.656 35.1848C155.15 35.4206 155.765 35.6497 156.495 35.8721C157.225 36.0944 158.023 36.3505 158.895 36.6267C159.76 36.9097 160.558 37.3005 161.295 37.8058C162.025 38.3112 162.64 38.958 163.134 39.7396C163.627 40.5279 163.877 41.5318 163.877 42.7648C163.877 43.6205 163.688 44.4358 163.303 45.2174C162.917 46.0057 162.37 46.6997 161.646 47.2994C160.923 47.9058 160.058 48.3909 159.03 48.7615C158.009 49.1321 156.867 49.314 155.602 49.314L155.596 49.3342Z" fill="#1A3038"/>
</g>
</g>
</svg>
